G75*
%MOIN*%
%OFA0B0*%
%FSLAX25Y25*%
%IPPOS*%
%LPD*%
%AMOC8*
5,1,8,0,0,1.08239X$1,22.5*
%
%ADD10C,0.00000*%
%ADD11R,0.02362X0.08661*%
%ADD12R,0.05512X0.02362*%
%ADD13R,0.04921X0.03937*%
%ADD14R,0.05118X0.04724*%
%ADD15R,0.06299X0.07874*%
%ADD16R,0.07874X0.06299*%
%ADD17R,0.07087X0.06299*%
D10*
X0037312Y0035098D02*
X0098336Y0035098D01*
X0098460Y0035100D01*
X0098583Y0035106D01*
X0098707Y0035115D01*
X0098829Y0035129D01*
X0098952Y0035146D01*
X0099074Y0035168D01*
X0099195Y0035193D01*
X0099315Y0035222D01*
X0099434Y0035254D01*
X0099553Y0035291D01*
X0099670Y0035331D01*
X0099785Y0035374D01*
X0099900Y0035422D01*
X0100012Y0035473D01*
X0100123Y0035527D01*
X0100233Y0035585D01*
X0100340Y0035646D01*
X0100446Y0035711D01*
X0100549Y0035779D01*
X0100650Y0035850D01*
X0100749Y0035924D01*
X0100846Y0036001D01*
X0100940Y0036082D01*
X0101031Y0036165D01*
X0101120Y0036251D01*
X0101206Y0036340D01*
X0101289Y0036431D01*
X0101370Y0036525D01*
X0101447Y0036622D01*
X0101521Y0036721D01*
X0101592Y0036822D01*
X0101660Y0036925D01*
X0101725Y0037031D01*
X0101786Y0037138D01*
X0101844Y0037248D01*
X0101898Y0037359D01*
X0101949Y0037471D01*
X0101997Y0037586D01*
X0102040Y0037701D01*
X0102080Y0037818D01*
X0102117Y0037937D01*
X0102149Y0038056D01*
X0102178Y0038176D01*
X0102203Y0038297D01*
X0102225Y0038419D01*
X0102242Y0038542D01*
X0102256Y0038664D01*
X0102265Y0038788D01*
X0102271Y0038911D01*
X0102273Y0039035D01*
X0102273Y0050846D01*
X0102275Y0050970D01*
X0102281Y0051093D01*
X0102290Y0051217D01*
X0102304Y0051339D01*
X0102321Y0051462D01*
X0102343Y0051584D01*
X0102368Y0051705D01*
X0102397Y0051825D01*
X0102429Y0051944D01*
X0102466Y0052063D01*
X0102506Y0052180D01*
X0102549Y0052295D01*
X0102597Y0052410D01*
X0102648Y0052522D01*
X0102702Y0052633D01*
X0102760Y0052743D01*
X0102821Y0052850D01*
X0102886Y0052956D01*
X0102954Y0053059D01*
X0103025Y0053160D01*
X0103099Y0053259D01*
X0103176Y0053356D01*
X0103257Y0053450D01*
X0103340Y0053541D01*
X0103426Y0053630D01*
X0103515Y0053716D01*
X0103606Y0053799D01*
X0103700Y0053880D01*
X0103797Y0053957D01*
X0103896Y0054031D01*
X0103997Y0054102D01*
X0104100Y0054170D01*
X0104206Y0054235D01*
X0104313Y0054296D01*
X0104423Y0054354D01*
X0104534Y0054408D01*
X0104646Y0054459D01*
X0104761Y0054507D01*
X0104876Y0054550D01*
X0104993Y0054590D01*
X0105112Y0054627D01*
X0105231Y0054659D01*
X0105351Y0054688D01*
X0105472Y0054713D01*
X0105594Y0054735D01*
X0105717Y0054752D01*
X0105839Y0054766D01*
X0105963Y0054775D01*
X0106086Y0054781D01*
X0106210Y0054783D01*
X0165265Y0054783D01*
X0165389Y0054781D01*
X0165512Y0054775D01*
X0165636Y0054766D01*
X0165758Y0054752D01*
X0165881Y0054735D01*
X0166003Y0054713D01*
X0166124Y0054688D01*
X0166244Y0054659D01*
X0166363Y0054627D01*
X0166482Y0054590D01*
X0166599Y0054550D01*
X0166714Y0054507D01*
X0166829Y0054459D01*
X0166941Y0054408D01*
X0167052Y0054354D01*
X0167162Y0054296D01*
X0167269Y0054235D01*
X0167375Y0054170D01*
X0167478Y0054102D01*
X0167579Y0054031D01*
X0167678Y0053957D01*
X0167775Y0053880D01*
X0167869Y0053799D01*
X0167960Y0053716D01*
X0168049Y0053630D01*
X0168135Y0053541D01*
X0168218Y0053450D01*
X0168299Y0053356D01*
X0168376Y0053259D01*
X0168450Y0053160D01*
X0168521Y0053059D01*
X0168589Y0052956D01*
X0168654Y0052850D01*
X0168715Y0052743D01*
X0168773Y0052633D01*
X0168827Y0052522D01*
X0168878Y0052410D01*
X0168926Y0052295D01*
X0168969Y0052180D01*
X0169009Y0052063D01*
X0169046Y0051944D01*
X0169078Y0051825D01*
X0169107Y0051705D01*
X0169132Y0051584D01*
X0169154Y0051462D01*
X0169171Y0051339D01*
X0169185Y0051217D01*
X0169194Y0051093D01*
X0169200Y0050970D01*
X0169202Y0050846D01*
X0169202Y0039035D01*
X0169204Y0038911D01*
X0169210Y0038788D01*
X0169219Y0038664D01*
X0169233Y0038542D01*
X0169250Y0038419D01*
X0169272Y0038297D01*
X0169297Y0038176D01*
X0169326Y0038056D01*
X0169358Y0037937D01*
X0169395Y0037818D01*
X0169435Y0037701D01*
X0169478Y0037586D01*
X0169526Y0037471D01*
X0169577Y0037359D01*
X0169631Y0037248D01*
X0169689Y0037138D01*
X0169750Y0037031D01*
X0169815Y0036925D01*
X0169883Y0036822D01*
X0169954Y0036721D01*
X0170028Y0036622D01*
X0170105Y0036525D01*
X0170186Y0036431D01*
X0170269Y0036340D01*
X0170355Y0036251D01*
X0170444Y0036165D01*
X0170535Y0036082D01*
X0170629Y0036001D01*
X0170726Y0035924D01*
X0170825Y0035850D01*
X0170926Y0035779D01*
X0171029Y0035711D01*
X0171135Y0035646D01*
X0171242Y0035585D01*
X0171352Y0035527D01*
X0171463Y0035473D01*
X0171575Y0035422D01*
X0171690Y0035374D01*
X0171805Y0035331D01*
X0171922Y0035291D01*
X0172041Y0035254D01*
X0172160Y0035222D01*
X0172280Y0035193D01*
X0172401Y0035168D01*
X0172523Y0035146D01*
X0172646Y0035129D01*
X0172768Y0035115D01*
X0172892Y0035106D01*
X0173015Y0035100D01*
X0173139Y0035098D01*
X0234162Y0035098D01*
X0234447Y0035101D01*
X0234733Y0035112D01*
X0235018Y0035129D01*
X0235302Y0035153D01*
X0235586Y0035184D01*
X0235869Y0035222D01*
X0236150Y0035267D01*
X0236431Y0035318D01*
X0236711Y0035376D01*
X0236989Y0035441D01*
X0237265Y0035513D01*
X0237539Y0035591D01*
X0237812Y0035676D01*
X0238082Y0035768D01*
X0238350Y0035866D01*
X0238616Y0035970D01*
X0238879Y0036081D01*
X0239139Y0036198D01*
X0239397Y0036321D01*
X0239651Y0036451D01*
X0239902Y0036587D01*
X0240150Y0036728D01*
X0240394Y0036876D01*
X0240635Y0037029D01*
X0240871Y0037189D01*
X0241104Y0037354D01*
X0241333Y0037524D01*
X0241558Y0037700D01*
X0241778Y0037882D01*
X0241994Y0038068D01*
X0242205Y0038260D01*
X0242412Y0038457D01*
X0242614Y0038659D01*
X0242811Y0038866D01*
X0243003Y0039077D01*
X0243189Y0039293D01*
X0243371Y0039513D01*
X0243547Y0039738D01*
X0243717Y0039967D01*
X0243882Y0040200D01*
X0244042Y0040436D01*
X0244195Y0040677D01*
X0244343Y0040921D01*
X0244484Y0041169D01*
X0244620Y0041420D01*
X0244750Y0041674D01*
X0244873Y0041932D01*
X0244990Y0042192D01*
X0245101Y0042455D01*
X0245205Y0042721D01*
X0245303Y0042989D01*
X0245395Y0043259D01*
X0245480Y0043532D01*
X0245558Y0043806D01*
X0245630Y0044082D01*
X0245695Y0044360D01*
X0245753Y0044640D01*
X0245804Y0044921D01*
X0245849Y0045202D01*
X0245887Y0045485D01*
X0245918Y0045769D01*
X0245942Y0046053D01*
X0245959Y0046338D01*
X0245970Y0046624D01*
X0245973Y0046909D01*
X0245973Y0204390D01*
X0245971Y0204514D01*
X0245965Y0204637D01*
X0245956Y0204761D01*
X0245942Y0204883D01*
X0245925Y0205006D01*
X0245903Y0205128D01*
X0245878Y0205249D01*
X0245849Y0205369D01*
X0245817Y0205488D01*
X0245780Y0205607D01*
X0245740Y0205724D01*
X0245697Y0205839D01*
X0245649Y0205954D01*
X0245598Y0206066D01*
X0245544Y0206177D01*
X0245486Y0206287D01*
X0245425Y0206394D01*
X0245360Y0206500D01*
X0245292Y0206603D01*
X0245221Y0206704D01*
X0245147Y0206803D01*
X0245070Y0206900D01*
X0244989Y0206994D01*
X0244906Y0207085D01*
X0244820Y0207174D01*
X0244731Y0207260D01*
X0244640Y0207343D01*
X0244546Y0207424D01*
X0244449Y0207501D01*
X0244350Y0207575D01*
X0244249Y0207646D01*
X0244146Y0207714D01*
X0244040Y0207779D01*
X0243933Y0207840D01*
X0243823Y0207898D01*
X0243712Y0207952D01*
X0243600Y0208003D01*
X0243485Y0208051D01*
X0243370Y0208094D01*
X0243253Y0208134D01*
X0243134Y0208171D01*
X0243015Y0208203D01*
X0242895Y0208232D01*
X0242774Y0208257D01*
X0242652Y0208279D01*
X0242529Y0208296D01*
X0242407Y0208310D01*
X0242283Y0208319D01*
X0242160Y0208325D01*
X0242036Y0208327D01*
X0171170Y0208327D01*
X0171046Y0208329D01*
X0170923Y0208335D01*
X0170799Y0208344D01*
X0170677Y0208358D01*
X0170554Y0208375D01*
X0170432Y0208397D01*
X0170311Y0208422D01*
X0170191Y0208451D01*
X0170072Y0208483D01*
X0169953Y0208520D01*
X0169836Y0208560D01*
X0169721Y0208603D01*
X0169606Y0208651D01*
X0169494Y0208702D01*
X0169383Y0208756D01*
X0169273Y0208814D01*
X0169166Y0208875D01*
X0169060Y0208940D01*
X0168957Y0209008D01*
X0168856Y0209079D01*
X0168757Y0209153D01*
X0168660Y0209230D01*
X0168566Y0209311D01*
X0168475Y0209394D01*
X0168386Y0209480D01*
X0168300Y0209569D01*
X0168217Y0209660D01*
X0168136Y0209754D01*
X0168059Y0209851D01*
X0167985Y0209950D01*
X0167914Y0210051D01*
X0167846Y0210154D01*
X0167781Y0210260D01*
X0167720Y0210367D01*
X0167662Y0210477D01*
X0167608Y0210588D01*
X0167557Y0210700D01*
X0167509Y0210815D01*
X0167466Y0210930D01*
X0167426Y0211047D01*
X0167389Y0211166D01*
X0167357Y0211285D01*
X0167328Y0211405D01*
X0167303Y0211526D01*
X0167281Y0211648D01*
X0167264Y0211771D01*
X0167250Y0211893D01*
X0167241Y0212017D01*
X0167235Y0212140D01*
X0167233Y0212264D01*
X0167235Y0212388D01*
X0167241Y0212511D01*
X0167250Y0212635D01*
X0167264Y0212757D01*
X0167281Y0212880D01*
X0167303Y0213002D01*
X0167328Y0213123D01*
X0167357Y0213243D01*
X0167389Y0213362D01*
X0167426Y0213481D01*
X0167466Y0213598D01*
X0167509Y0213713D01*
X0167557Y0213828D01*
X0167608Y0213940D01*
X0167662Y0214051D01*
X0167720Y0214161D01*
X0167781Y0214268D01*
X0167846Y0214374D01*
X0167914Y0214477D01*
X0167985Y0214578D01*
X0168059Y0214677D01*
X0168136Y0214774D01*
X0168217Y0214868D01*
X0168300Y0214959D01*
X0168386Y0215048D01*
X0168475Y0215134D01*
X0168566Y0215217D01*
X0168660Y0215298D01*
X0168757Y0215375D01*
X0168856Y0215449D01*
X0168957Y0215520D01*
X0169060Y0215588D01*
X0169166Y0215653D01*
X0169273Y0215714D01*
X0169383Y0215772D01*
X0169494Y0215826D01*
X0169606Y0215877D01*
X0169721Y0215925D01*
X0169836Y0215968D01*
X0169953Y0216008D01*
X0170072Y0216045D01*
X0170191Y0216077D01*
X0170311Y0216106D01*
X0170432Y0216131D01*
X0170554Y0216153D01*
X0170677Y0216170D01*
X0170799Y0216184D01*
X0170923Y0216193D01*
X0171046Y0216199D01*
X0171170Y0216201D01*
X0242036Y0216201D01*
X0242160Y0216203D01*
X0242283Y0216209D01*
X0242407Y0216218D01*
X0242529Y0216232D01*
X0242652Y0216249D01*
X0242774Y0216271D01*
X0242895Y0216296D01*
X0243015Y0216325D01*
X0243134Y0216357D01*
X0243253Y0216394D01*
X0243370Y0216434D01*
X0243485Y0216477D01*
X0243600Y0216525D01*
X0243712Y0216576D01*
X0243823Y0216630D01*
X0243933Y0216688D01*
X0244040Y0216749D01*
X0244146Y0216814D01*
X0244249Y0216882D01*
X0244350Y0216953D01*
X0244449Y0217027D01*
X0244546Y0217104D01*
X0244640Y0217185D01*
X0244731Y0217268D01*
X0244820Y0217354D01*
X0244906Y0217443D01*
X0244989Y0217534D01*
X0245070Y0217628D01*
X0245147Y0217725D01*
X0245221Y0217824D01*
X0245292Y0217925D01*
X0245360Y0218028D01*
X0245425Y0218134D01*
X0245486Y0218241D01*
X0245544Y0218351D01*
X0245598Y0218462D01*
X0245649Y0218574D01*
X0245697Y0218689D01*
X0245740Y0218804D01*
X0245780Y0218921D01*
X0245817Y0219040D01*
X0245849Y0219159D01*
X0245878Y0219279D01*
X0245903Y0219400D01*
X0245925Y0219522D01*
X0245942Y0219645D01*
X0245956Y0219767D01*
X0245965Y0219891D01*
X0245971Y0220014D01*
X0245973Y0220138D01*
X0245973Y0279193D01*
X0245970Y0279478D01*
X0245959Y0279764D01*
X0245942Y0280049D01*
X0245918Y0280333D01*
X0245887Y0280617D01*
X0245849Y0280900D01*
X0245804Y0281181D01*
X0245753Y0281462D01*
X0245695Y0281742D01*
X0245630Y0282020D01*
X0245558Y0282296D01*
X0245480Y0282570D01*
X0245395Y0282843D01*
X0245303Y0283113D01*
X0245205Y0283381D01*
X0245101Y0283647D01*
X0244990Y0283910D01*
X0244873Y0284170D01*
X0244750Y0284428D01*
X0244620Y0284682D01*
X0244484Y0284933D01*
X0244343Y0285181D01*
X0244195Y0285425D01*
X0244042Y0285666D01*
X0243882Y0285902D01*
X0243717Y0286135D01*
X0243547Y0286364D01*
X0243371Y0286589D01*
X0243189Y0286809D01*
X0243003Y0287025D01*
X0242811Y0287236D01*
X0242614Y0287443D01*
X0242412Y0287645D01*
X0242205Y0287842D01*
X0241994Y0288034D01*
X0241778Y0288220D01*
X0241558Y0288402D01*
X0241333Y0288578D01*
X0241104Y0288748D01*
X0240871Y0288913D01*
X0240635Y0289073D01*
X0240394Y0289226D01*
X0240150Y0289374D01*
X0239902Y0289515D01*
X0239651Y0289651D01*
X0239397Y0289781D01*
X0239139Y0289904D01*
X0238879Y0290021D01*
X0238616Y0290132D01*
X0238350Y0290236D01*
X0238082Y0290334D01*
X0237812Y0290426D01*
X0237539Y0290511D01*
X0237265Y0290589D01*
X0236989Y0290661D01*
X0236711Y0290726D01*
X0236431Y0290784D01*
X0236150Y0290835D01*
X0235869Y0290880D01*
X0235586Y0290918D01*
X0235302Y0290949D01*
X0235018Y0290973D01*
X0234733Y0290990D01*
X0234447Y0291001D01*
X0234162Y0291004D01*
X0037312Y0291004D01*
X0037027Y0291001D01*
X0036741Y0290990D01*
X0036456Y0290973D01*
X0036172Y0290949D01*
X0035888Y0290918D01*
X0035605Y0290880D01*
X0035324Y0290835D01*
X0035043Y0290784D01*
X0034763Y0290726D01*
X0034485Y0290661D01*
X0034209Y0290589D01*
X0033935Y0290511D01*
X0033662Y0290426D01*
X0033392Y0290334D01*
X0033124Y0290236D01*
X0032858Y0290132D01*
X0032595Y0290021D01*
X0032335Y0289904D01*
X0032077Y0289781D01*
X0031823Y0289651D01*
X0031572Y0289515D01*
X0031324Y0289374D01*
X0031080Y0289226D01*
X0030839Y0289073D01*
X0030603Y0288913D01*
X0030370Y0288748D01*
X0030141Y0288578D01*
X0029916Y0288402D01*
X0029696Y0288220D01*
X0029480Y0288034D01*
X0029269Y0287842D01*
X0029062Y0287645D01*
X0028860Y0287443D01*
X0028663Y0287236D01*
X0028471Y0287025D01*
X0028285Y0286809D01*
X0028103Y0286589D01*
X0027927Y0286364D01*
X0027757Y0286135D01*
X0027592Y0285902D01*
X0027432Y0285666D01*
X0027279Y0285425D01*
X0027131Y0285181D01*
X0026990Y0284933D01*
X0026854Y0284682D01*
X0026724Y0284428D01*
X0026601Y0284170D01*
X0026484Y0283910D01*
X0026373Y0283647D01*
X0026269Y0283381D01*
X0026171Y0283113D01*
X0026079Y0282843D01*
X0025994Y0282570D01*
X0025916Y0282296D01*
X0025844Y0282020D01*
X0025779Y0281742D01*
X0025721Y0281462D01*
X0025670Y0281181D01*
X0025625Y0280900D01*
X0025587Y0280617D01*
X0025556Y0280333D01*
X0025532Y0280049D01*
X0025515Y0279764D01*
X0025504Y0279478D01*
X0025501Y0279193D01*
X0025501Y0046909D01*
X0025504Y0046624D01*
X0025515Y0046338D01*
X0025532Y0046053D01*
X0025556Y0045769D01*
X0025587Y0045485D01*
X0025625Y0045202D01*
X0025670Y0044921D01*
X0025721Y0044640D01*
X0025779Y0044360D01*
X0025844Y0044082D01*
X0025916Y0043806D01*
X0025994Y0043532D01*
X0026079Y0043259D01*
X0026171Y0042989D01*
X0026269Y0042721D01*
X0026373Y0042455D01*
X0026484Y0042192D01*
X0026601Y0041932D01*
X0026724Y0041674D01*
X0026854Y0041420D01*
X0026990Y0041169D01*
X0027131Y0040921D01*
X0027279Y0040677D01*
X0027432Y0040436D01*
X0027592Y0040200D01*
X0027757Y0039967D01*
X0027927Y0039738D01*
X0028103Y0039513D01*
X0028285Y0039293D01*
X0028471Y0039077D01*
X0028663Y0038866D01*
X0028860Y0038659D01*
X0029062Y0038457D01*
X0029269Y0038260D01*
X0029480Y0038068D01*
X0029696Y0037882D01*
X0029916Y0037700D01*
X0030141Y0037524D01*
X0030370Y0037354D01*
X0030603Y0037189D01*
X0030839Y0037029D01*
X0031080Y0036876D01*
X0031324Y0036728D01*
X0031572Y0036587D01*
X0031823Y0036451D01*
X0032077Y0036321D01*
X0032335Y0036198D01*
X0032595Y0036081D01*
X0032858Y0035970D01*
X0033124Y0035866D01*
X0033392Y0035768D01*
X0033662Y0035676D01*
X0033935Y0035591D01*
X0034209Y0035513D01*
X0034485Y0035441D01*
X0034763Y0035376D01*
X0035043Y0035318D01*
X0035324Y0035267D01*
X0035605Y0035222D01*
X0035888Y0035184D01*
X0036172Y0035153D01*
X0036456Y0035129D01*
X0036741Y0035112D01*
X0037027Y0035101D01*
X0037312Y0035098D01*
X0033765Y0048883D02*
X0033767Y0049031D01*
X0033773Y0049179D01*
X0033783Y0049327D01*
X0033797Y0049474D01*
X0033815Y0049621D01*
X0033836Y0049767D01*
X0033862Y0049913D01*
X0033892Y0050058D01*
X0033925Y0050202D01*
X0033963Y0050345D01*
X0034004Y0050487D01*
X0034049Y0050628D01*
X0034097Y0050768D01*
X0034150Y0050907D01*
X0034206Y0051044D01*
X0034266Y0051179D01*
X0034329Y0051313D01*
X0034396Y0051445D01*
X0034467Y0051575D01*
X0034541Y0051703D01*
X0034618Y0051829D01*
X0034699Y0051953D01*
X0034783Y0052075D01*
X0034870Y0052194D01*
X0034961Y0052311D01*
X0035055Y0052426D01*
X0035151Y0052538D01*
X0035251Y0052648D01*
X0035353Y0052754D01*
X0035459Y0052858D01*
X0035567Y0052959D01*
X0035678Y0053057D01*
X0035791Y0053153D01*
X0035907Y0053245D01*
X0036025Y0053334D01*
X0036146Y0053419D01*
X0036269Y0053502D01*
X0036394Y0053581D01*
X0036521Y0053657D01*
X0036650Y0053729D01*
X0036781Y0053798D01*
X0036914Y0053863D01*
X0037049Y0053924D01*
X0037185Y0053982D01*
X0037322Y0054037D01*
X0037461Y0054087D01*
X0037602Y0054134D01*
X0037743Y0054177D01*
X0037886Y0054217D01*
X0038030Y0054252D01*
X0038174Y0054284D01*
X0038320Y0054311D01*
X0038466Y0054335D01*
X0038613Y0054355D01*
X0038760Y0054371D01*
X0038907Y0054383D01*
X0039055Y0054391D01*
X0039203Y0054395D01*
X0039351Y0054395D01*
X0039499Y0054391D01*
X0039647Y0054383D01*
X0039794Y0054371D01*
X0039941Y0054355D01*
X0040088Y0054335D01*
X0040234Y0054311D01*
X0040380Y0054284D01*
X0040524Y0054252D01*
X0040668Y0054217D01*
X0040811Y0054177D01*
X0040952Y0054134D01*
X0041093Y0054087D01*
X0041232Y0054037D01*
X0041369Y0053982D01*
X0041505Y0053924D01*
X0041640Y0053863D01*
X0041773Y0053798D01*
X0041904Y0053729D01*
X0042033Y0053657D01*
X0042160Y0053581D01*
X0042285Y0053502D01*
X0042408Y0053419D01*
X0042529Y0053334D01*
X0042647Y0053245D01*
X0042763Y0053153D01*
X0042876Y0053057D01*
X0042987Y0052959D01*
X0043095Y0052858D01*
X0043201Y0052754D01*
X0043303Y0052648D01*
X0043403Y0052538D01*
X0043499Y0052426D01*
X0043593Y0052311D01*
X0043684Y0052194D01*
X0043771Y0052075D01*
X0043855Y0051953D01*
X0043936Y0051829D01*
X0044013Y0051703D01*
X0044087Y0051575D01*
X0044158Y0051445D01*
X0044225Y0051313D01*
X0044288Y0051179D01*
X0044348Y0051044D01*
X0044404Y0050907D01*
X0044457Y0050768D01*
X0044505Y0050628D01*
X0044550Y0050487D01*
X0044591Y0050345D01*
X0044629Y0050202D01*
X0044662Y0050058D01*
X0044692Y0049913D01*
X0044718Y0049767D01*
X0044739Y0049621D01*
X0044757Y0049474D01*
X0044771Y0049327D01*
X0044781Y0049179D01*
X0044787Y0049031D01*
X0044789Y0048883D01*
X0044787Y0048735D01*
X0044781Y0048587D01*
X0044771Y0048439D01*
X0044757Y0048292D01*
X0044739Y0048145D01*
X0044718Y0047999D01*
X0044692Y0047853D01*
X0044662Y0047708D01*
X0044629Y0047564D01*
X0044591Y0047421D01*
X0044550Y0047279D01*
X0044505Y0047138D01*
X0044457Y0046998D01*
X0044404Y0046859D01*
X0044348Y0046722D01*
X0044288Y0046587D01*
X0044225Y0046453D01*
X0044158Y0046321D01*
X0044087Y0046191D01*
X0044013Y0046063D01*
X0043936Y0045937D01*
X0043855Y0045813D01*
X0043771Y0045691D01*
X0043684Y0045572D01*
X0043593Y0045455D01*
X0043499Y0045340D01*
X0043403Y0045228D01*
X0043303Y0045118D01*
X0043201Y0045012D01*
X0043095Y0044908D01*
X0042987Y0044807D01*
X0042876Y0044709D01*
X0042763Y0044613D01*
X0042647Y0044521D01*
X0042529Y0044432D01*
X0042408Y0044347D01*
X0042285Y0044264D01*
X0042160Y0044185D01*
X0042033Y0044109D01*
X0041904Y0044037D01*
X0041773Y0043968D01*
X0041640Y0043903D01*
X0041505Y0043842D01*
X0041369Y0043784D01*
X0041232Y0043729D01*
X0041093Y0043679D01*
X0040952Y0043632D01*
X0040811Y0043589D01*
X0040668Y0043549D01*
X0040524Y0043514D01*
X0040380Y0043482D01*
X0040234Y0043455D01*
X0040088Y0043431D01*
X0039941Y0043411D01*
X0039794Y0043395D01*
X0039647Y0043383D01*
X0039499Y0043375D01*
X0039351Y0043371D01*
X0039203Y0043371D01*
X0039055Y0043375D01*
X0038907Y0043383D01*
X0038760Y0043395D01*
X0038613Y0043411D01*
X0038466Y0043431D01*
X0038320Y0043455D01*
X0038174Y0043482D01*
X0038030Y0043514D01*
X0037886Y0043549D01*
X0037743Y0043589D01*
X0037602Y0043632D01*
X0037461Y0043679D01*
X0037322Y0043729D01*
X0037185Y0043784D01*
X0037049Y0043842D01*
X0036914Y0043903D01*
X0036781Y0043968D01*
X0036650Y0044037D01*
X0036521Y0044109D01*
X0036394Y0044185D01*
X0036269Y0044264D01*
X0036146Y0044347D01*
X0036025Y0044432D01*
X0035907Y0044521D01*
X0035791Y0044613D01*
X0035678Y0044709D01*
X0035567Y0044807D01*
X0035459Y0044908D01*
X0035353Y0045012D01*
X0035251Y0045118D01*
X0035151Y0045228D01*
X0035055Y0045340D01*
X0034961Y0045455D01*
X0034870Y0045572D01*
X0034783Y0045691D01*
X0034699Y0045813D01*
X0034618Y0045937D01*
X0034541Y0046063D01*
X0034467Y0046191D01*
X0034396Y0046321D01*
X0034329Y0046453D01*
X0034266Y0046587D01*
X0034206Y0046722D01*
X0034150Y0046859D01*
X0034097Y0046998D01*
X0034049Y0047138D01*
X0034004Y0047279D01*
X0033963Y0047421D01*
X0033925Y0047564D01*
X0033892Y0047708D01*
X0033862Y0047853D01*
X0033836Y0047999D01*
X0033815Y0048145D01*
X0033797Y0048292D01*
X0033783Y0048439D01*
X0033773Y0048587D01*
X0033767Y0048735D01*
X0033765Y0048883D01*
X0226679Y0048883D02*
X0226681Y0049031D01*
X0226687Y0049179D01*
X0226697Y0049327D01*
X0226711Y0049474D01*
X0226729Y0049621D01*
X0226750Y0049767D01*
X0226776Y0049913D01*
X0226806Y0050058D01*
X0226839Y0050202D01*
X0226877Y0050345D01*
X0226918Y0050487D01*
X0226963Y0050628D01*
X0227011Y0050768D01*
X0227064Y0050907D01*
X0227120Y0051044D01*
X0227180Y0051179D01*
X0227243Y0051313D01*
X0227310Y0051445D01*
X0227381Y0051575D01*
X0227455Y0051703D01*
X0227532Y0051829D01*
X0227613Y0051953D01*
X0227697Y0052075D01*
X0227784Y0052194D01*
X0227875Y0052311D01*
X0227969Y0052426D01*
X0228065Y0052538D01*
X0228165Y0052648D01*
X0228267Y0052754D01*
X0228373Y0052858D01*
X0228481Y0052959D01*
X0228592Y0053057D01*
X0228705Y0053153D01*
X0228821Y0053245D01*
X0228939Y0053334D01*
X0229060Y0053419D01*
X0229183Y0053502D01*
X0229308Y0053581D01*
X0229435Y0053657D01*
X0229564Y0053729D01*
X0229695Y0053798D01*
X0229828Y0053863D01*
X0229963Y0053924D01*
X0230099Y0053982D01*
X0230236Y0054037D01*
X0230375Y0054087D01*
X0230516Y0054134D01*
X0230657Y0054177D01*
X0230800Y0054217D01*
X0230944Y0054252D01*
X0231088Y0054284D01*
X0231234Y0054311D01*
X0231380Y0054335D01*
X0231527Y0054355D01*
X0231674Y0054371D01*
X0231821Y0054383D01*
X0231969Y0054391D01*
X0232117Y0054395D01*
X0232265Y0054395D01*
X0232413Y0054391D01*
X0232561Y0054383D01*
X0232708Y0054371D01*
X0232855Y0054355D01*
X0233002Y0054335D01*
X0233148Y0054311D01*
X0233294Y0054284D01*
X0233438Y0054252D01*
X0233582Y0054217D01*
X0233725Y0054177D01*
X0233866Y0054134D01*
X0234007Y0054087D01*
X0234146Y0054037D01*
X0234283Y0053982D01*
X0234419Y0053924D01*
X0234554Y0053863D01*
X0234687Y0053798D01*
X0234818Y0053729D01*
X0234947Y0053657D01*
X0235074Y0053581D01*
X0235199Y0053502D01*
X0235322Y0053419D01*
X0235443Y0053334D01*
X0235561Y0053245D01*
X0235677Y0053153D01*
X0235790Y0053057D01*
X0235901Y0052959D01*
X0236009Y0052858D01*
X0236115Y0052754D01*
X0236217Y0052648D01*
X0236317Y0052538D01*
X0236413Y0052426D01*
X0236507Y0052311D01*
X0236598Y0052194D01*
X0236685Y0052075D01*
X0236769Y0051953D01*
X0236850Y0051829D01*
X0236927Y0051703D01*
X0237001Y0051575D01*
X0237072Y0051445D01*
X0237139Y0051313D01*
X0237202Y0051179D01*
X0237262Y0051044D01*
X0237318Y0050907D01*
X0237371Y0050768D01*
X0237419Y0050628D01*
X0237464Y0050487D01*
X0237505Y0050345D01*
X0237543Y0050202D01*
X0237576Y0050058D01*
X0237606Y0049913D01*
X0237632Y0049767D01*
X0237653Y0049621D01*
X0237671Y0049474D01*
X0237685Y0049327D01*
X0237695Y0049179D01*
X0237701Y0049031D01*
X0237703Y0048883D01*
X0237701Y0048735D01*
X0237695Y0048587D01*
X0237685Y0048439D01*
X0237671Y0048292D01*
X0237653Y0048145D01*
X0237632Y0047999D01*
X0237606Y0047853D01*
X0237576Y0047708D01*
X0237543Y0047564D01*
X0237505Y0047421D01*
X0237464Y0047279D01*
X0237419Y0047138D01*
X0237371Y0046998D01*
X0237318Y0046859D01*
X0237262Y0046722D01*
X0237202Y0046587D01*
X0237139Y0046453D01*
X0237072Y0046321D01*
X0237001Y0046191D01*
X0236927Y0046063D01*
X0236850Y0045937D01*
X0236769Y0045813D01*
X0236685Y0045691D01*
X0236598Y0045572D01*
X0236507Y0045455D01*
X0236413Y0045340D01*
X0236317Y0045228D01*
X0236217Y0045118D01*
X0236115Y0045012D01*
X0236009Y0044908D01*
X0235901Y0044807D01*
X0235790Y0044709D01*
X0235677Y0044613D01*
X0235561Y0044521D01*
X0235443Y0044432D01*
X0235322Y0044347D01*
X0235199Y0044264D01*
X0235074Y0044185D01*
X0234947Y0044109D01*
X0234818Y0044037D01*
X0234687Y0043968D01*
X0234554Y0043903D01*
X0234419Y0043842D01*
X0234283Y0043784D01*
X0234146Y0043729D01*
X0234007Y0043679D01*
X0233866Y0043632D01*
X0233725Y0043589D01*
X0233582Y0043549D01*
X0233438Y0043514D01*
X0233294Y0043482D01*
X0233148Y0043455D01*
X0233002Y0043431D01*
X0232855Y0043411D01*
X0232708Y0043395D01*
X0232561Y0043383D01*
X0232413Y0043375D01*
X0232265Y0043371D01*
X0232117Y0043371D01*
X0231969Y0043375D01*
X0231821Y0043383D01*
X0231674Y0043395D01*
X0231527Y0043411D01*
X0231380Y0043431D01*
X0231234Y0043455D01*
X0231088Y0043482D01*
X0230944Y0043514D01*
X0230800Y0043549D01*
X0230657Y0043589D01*
X0230516Y0043632D01*
X0230375Y0043679D01*
X0230236Y0043729D01*
X0230099Y0043784D01*
X0229963Y0043842D01*
X0229828Y0043903D01*
X0229695Y0043968D01*
X0229564Y0044037D01*
X0229435Y0044109D01*
X0229308Y0044185D01*
X0229183Y0044264D01*
X0229060Y0044347D01*
X0228939Y0044432D01*
X0228821Y0044521D01*
X0228705Y0044613D01*
X0228592Y0044709D01*
X0228481Y0044807D01*
X0228373Y0044908D01*
X0228267Y0045012D01*
X0228165Y0045118D01*
X0228065Y0045228D01*
X0227969Y0045340D01*
X0227875Y0045455D01*
X0227784Y0045572D01*
X0227697Y0045691D01*
X0227613Y0045813D01*
X0227532Y0045937D01*
X0227455Y0046063D01*
X0227381Y0046191D01*
X0227310Y0046321D01*
X0227243Y0046453D01*
X0227180Y0046587D01*
X0227120Y0046722D01*
X0227064Y0046859D01*
X0227011Y0046998D01*
X0226963Y0047138D01*
X0226918Y0047279D01*
X0226877Y0047421D01*
X0226839Y0047564D01*
X0226806Y0047708D01*
X0226776Y0047853D01*
X0226750Y0047999D01*
X0226729Y0048145D01*
X0226711Y0048292D01*
X0226697Y0048439D01*
X0226687Y0048587D01*
X0226681Y0048735D01*
X0226679Y0048883D01*
X0226679Y0277230D02*
X0226681Y0277378D01*
X0226687Y0277526D01*
X0226697Y0277674D01*
X0226711Y0277821D01*
X0226729Y0277968D01*
X0226750Y0278114D01*
X0226776Y0278260D01*
X0226806Y0278405D01*
X0226839Y0278549D01*
X0226877Y0278692D01*
X0226918Y0278834D01*
X0226963Y0278975D01*
X0227011Y0279115D01*
X0227064Y0279254D01*
X0227120Y0279391D01*
X0227180Y0279526D01*
X0227243Y0279660D01*
X0227310Y0279792D01*
X0227381Y0279922D01*
X0227455Y0280050D01*
X0227532Y0280176D01*
X0227613Y0280300D01*
X0227697Y0280422D01*
X0227784Y0280541D01*
X0227875Y0280658D01*
X0227969Y0280773D01*
X0228065Y0280885D01*
X0228165Y0280995D01*
X0228267Y0281101D01*
X0228373Y0281205D01*
X0228481Y0281306D01*
X0228592Y0281404D01*
X0228705Y0281500D01*
X0228821Y0281592D01*
X0228939Y0281681D01*
X0229060Y0281766D01*
X0229183Y0281849D01*
X0229308Y0281928D01*
X0229435Y0282004D01*
X0229564Y0282076D01*
X0229695Y0282145D01*
X0229828Y0282210D01*
X0229963Y0282271D01*
X0230099Y0282329D01*
X0230236Y0282384D01*
X0230375Y0282434D01*
X0230516Y0282481D01*
X0230657Y0282524D01*
X0230800Y0282564D01*
X0230944Y0282599D01*
X0231088Y0282631D01*
X0231234Y0282658D01*
X0231380Y0282682D01*
X0231527Y0282702D01*
X0231674Y0282718D01*
X0231821Y0282730D01*
X0231969Y0282738D01*
X0232117Y0282742D01*
X0232265Y0282742D01*
X0232413Y0282738D01*
X0232561Y0282730D01*
X0232708Y0282718D01*
X0232855Y0282702D01*
X0233002Y0282682D01*
X0233148Y0282658D01*
X0233294Y0282631D01*
X0233438Y0282599D01*
X0233582Y0282564D01*
X0233725Y0282524D01*
X0233866Y0282481D01*
X0234007Y0282434D01*
X0234146Y0282384D01*
X0234283Y0282329D01*
X0234419Y0282271D01*
X0234554Y0282210D01*
X0234687Y0282145D01*
X0234818Y0282076D01*
X0234947Y0282004D01*
X0235074Y0281928D01*
X0235199Y0281849D01*
X0235322Y0281766D01*
X0235443Y0281681D01*
X0235561Y0281592D01*
X0235677Y0281500D01*
X0235790Y0281404D01*
X0235901Y0281306D01*
X0236009Y0281205D01*
X0236115Y0281101D01*
X0236217Y0280995D01*
X0236317Y0280885D01*
X0236413Y0280773D01*
X0236507Y0280658D01*
X0236598Y0280541D01*
X0236685Y0280422D01*
X0236769Y0280300D01*
X0236850Y0280176D01*
X0236927Y0280050D01*
X0237001Y0279922D01*
X0237072Y0279792D01*
X0237139Y0279660D01*
X0237202Y0279526D01*
X0237262Y0279391D01*
X0237318Y0279254D01*
X0237371Y0279115D01*
X0237419Y0278975D01*
X0237464Y0278834D01*
X0237505Y0278692D01*
X0237543Y0278549D01*
X0237576Y0278405D01*
X0237606Y0278260D01*
X0237632Y0278114D01*
X0237653Y0277968D01*
X0237671Y0277821D01*
X0237685Y0277674D01*
X0237695Y0277526D01*
X0237701Y0277378D01*
X0237703Y0277230D01*
X0237701Y0277082D01*
X0237695Y0276934D01*
X0237685Y0276786D01*
X0237671Y0276639D01*
X0237653Y0276492D01*
X0237632Y0276346D01*
X0237606Y0276200D01*
X0237576Y0276055D01*
X0237543Y0275911D01*
X0237505Y0275768D01*
X0237464Y0275626D01*
X0237419Y0275485D01*
X0237371Y0275345D01*
X0237318Y0275206D01*
X0237262Y0275069D01*
X0237202Y0274934D01*
X0237139Y0274800D01*
X0237072Y0274668D01*
X0237001Y0274538D01*
X0236927Y0274410D01*
X0236850Y0274284D01*
X0236769Y0274160D01*
X0236685Y0274038D01*
X0236598Y0273919D01*
X0236507Y0273802D01*
X0236413Y0273687D01*
X0236317Y0273575D01*
X0236217Y0273465D01*
X0236115Y0273359D01*
X0236009Y0273255D01*
X0235901Y0273154D01*
X0235790Y0273056D01*
X0235677Y0272960D01*
X0235561Y0272868D01*
X0235443Y0272779D01*
X0235322Y0272694D01*
X0235199Y0272611D01*
X0235074Y0272532D01*
X0234947Y0272456D01*
X0234818Y0272384D01*
X0234687Y0272315D01*
X0234554Y0272250D01*
X0234419Y0272189D01*
X0234283Y0272131D01*
X0234146Y0272076D01*
X0234007Y0272026D01*
X0233866Y0271979D01*
X0233725Y0271936D01*
X0233582Y0271896D01*
X0233438Y0271861D01*
X0233294Y0271829D01*
X0233148Y0271802D01*
X0233002Y0271778D01*
X0232855Y0271758D01*
X0232708Y0271742D01*
X0232561Y0271730D01*
X0232413Y0271722D01*
X0232265Y0271718D01*
X0232117Y0271718D01*
X0231969Y0271722D01*
X0231821Y0271730D01*
X0231674Y0271742D01*
X0231527Y0271758D01*
X0231380Y0271778D01*
X0231234Y0271802D01*
X0231088Y0271829D01*
X0230944Y0271861D01*
X0230800Y0271896D01*
X0230657Y0271936D01*
X0230516Y0271979D01*
X0230375Y0272026D01*
X0230236Y0272076D01*
X0230099Y0272131D01*
X0229963Y0272189D01*
X0229828Y0272250D01*
X0229695Y0272315D01*
X0229564Y0272384D01*
X0229435Y0272456D01*
X0229308Y0272532D01*
X0229183Y0272611D01*
X0229060Y0272694D01*
X0228939Y0272779D01*
X0228821Y0272868D01*
X0228705Y0272960D01*
X0228592Y0273056D01*
X0228481Y0273154D01*
X0228373Y0273255D01*
X0228267Y0273359D01*
X0228165Y0273465D01*
X0228065Y0273575D01*
X0227969Y0273687D01*
X0227875Y0273802D01*
X0227784Y0273919D01*
X0227697Y0274038D01*
X0227613Y0274160D01*
X0227532Y0274284D01*
X0227455Y0274410D01*
X0227381Y0274538D01*
X0227310Y0274668D01*
X0227243Y0274800D01*
X0227180Y0274934D01*
X0227120Y0275069D01*
X0227064Y0275206D01*
X0227011Y0275345D01*
X0226963Y0275485D01*
X0226918Y0275626D01*
X0226877Y0275768D01*
X0226839Y0275911D01*
X0226806Y0276055D01*
X0226776Y0276200D01*
X0226750Y0276346D01*
X0226729Y0276492D01*
X0226711Y0276639D01*
X0226697Y0276786D01*
X0226687Y0276934D01*
X0226681Y0277082D01*
X0226679Y0277230D01*
X0033765Y0277230D02*
X0033767Y0277378D01*
X0033773Y0277526D01*
X0033783Y0277674D01*
X0033797Y0277821D01*
X0033815Y0277968D01*
X0033836Y0278114D01*
X0033862Y0278260D01*
X0033892Y0278405D01*
X0033925Y0278549D01*
X0033963Y0278692D01*
X0034004Y0278834D01*
X0034049Y0278975D01*
X0034097Y0279115D01*
X0034150Y0279254D01*
X0034206Y0279391D01*
X0034266Y0279526D01*
X0034329Y0279660D01*
X0034396Y0279792D01*
X0034467Y0279922D01*
X0034541Y0280050D01*
X0034618Y0280176D01*
X0034699Y0280300D01*
X0034783Y0280422D01*
X0034870Y0280541D01*
X0034961Y0280658D01*
X0035055Y0280773D01*
X0035151Y0280885D01*
X0035251Y0280995D01*
X0035353Y0281101D01*
X0035459Y0281205D01*
X0035567Y0281306D01*
X0035678Y0281404D01*
X0035791Y0281500D01*
X0035907Y0281592D01*
X0036025Y0281681D01*
X0036146Y0281766D01*
X0036269Y0281849D01*
X0036394Y0281928D01*
X0036521Y0282004D01*
X0036650Y0282076D01*
X0036781Y0282145D01*
X0036914Y0282210D01*
X0037049Y0282271D01*
X0037185Y0282329D01*
X0037322Y0282384D01*
X0037461Y0282434D01*
X0037602Y0282481D01*
X0037743Y0282524D01*
X0037886Y0282564D01*
X0038030Y0282599D01*
X0038174Y0282631D01*
X0038320Y0282658D01*
X0038466Y0282682D01*
X0038613Y0282702D01*
X0038760Y0282718D01*
X0038907Y0282730D01*
X0039055Y0282738D01*
X0039203Y0282742D01*
X0039351Y0282742D01*
X0039499Y0282738D01*
X0039647Y0282730D01*
X0039794Y0282718D01*
X0039941Y0282702D01*
X0040088Y0282682D01*
X0040234Y0282658D01*
X0040380Y0282631D01*
X0040524Y0282599D01*
X0040668Y0282564D01*
X0040811Y0282524D01*
X0040952Y0282481D01*
X0041093Y0282434D01*
X0041232Y0282384D01*
X0041369Y0282329D01*
X0041505Y0282271D01*
X0041640Y0282210D01*
X0041773Y0282145D01*
X0041904Y0282076D01*
X0042033Y0282004D01*
X0042160Y0281928D01*
X0042285Y0281849D01*
X0042408Y0281766D01*
X0042529Y0281681D01*
X0042647Y0281592D01*
X0042763Y0281500D01*
X0042876Y0281404D01*
X0042987Y0281306D01*
X0043095Y0281205D01*
X0043201Y0281101D01*
X0043303Y0280995D01*
X0043403Y0280885D01*
X0043499Y0280773D01*
X0043593Y0280658D01*
X0043684Y0280541D01*
X0043771Y0280422D01*
X0043855Y0280300D01*
X0043936Y0280176D01*
X0044013Y0280050D01*
X0044087Y0279922D01*
X0044158Y0279792D01*
X0044225Y0279660D01*
X0044288Y0279526D01*
X0044348Y0279391D01*
X0044404Y0279254D01*
X0044457Y0279115D01*
X0044505Y0278975D01*
X0044550Y0278834D01*
X0044591Y0278692D01*
X0044629Y0278549D01*
X0044662Y0278405D01*
X0044692Y0278260D01*
X0044718Y0278114D01*
X0044739Y0277968D01*
X0044757Y0277821D01*
X0044771Y0277674D01*
X0044781Y0277526D01*
X0044787Y0277378D01*
X0044789Y0277230D01*
X0044787Y0277082D01*
X0044781Y0276934D01*
X0044771Y0276786D01*
X0044757Y0276639D01*
X0044739Y0276492D01*
X0044718Y0276346D01*
X0044692Y0276200D01*
X0044662Y0276055D01*
X0044629Y0275911D01*
X0044591Y0275768D01*
X0044550Y0275626D01*
X0044505Y0275485D01*
X0044457Y0275345D01*
X0044404Y0275206D01*
X0044348Y0275069D01*
X0044288Y0274934D01*
X0044225Y0274800D01*
X0044158Y0274668D01*
X0044087Y0274538D01*
X0044013Y0274410D01*
X0043936Y0274284D01*
X0043855Y0274160D01*
X0043771Y0274038D01*
X0043684Y0273919D01*
X0043593Y0273802D01*
X0043499Y0273687D01*
X0043403Y0273575D01*
X0043303Y0273465D01*
X0043201Y0273359D01*
X0043095Y0273255D01*
X0042987Y0273154D01*
X0042876Y0273056D01*
X0042763Y0272960D01*
X0042647Y0272868D01*
X0042529Y0272779D01*
X0042408Y0272694D01*
X0042285Y0272611D01*
X0042160Y0272532D01*
X0042033Y0272456D01*
X0041904Y0272384D01*
X0041773Y0272315D01*
X0041640Y0272250D01*
X0041505Y0272189D01*
X0041369Y0272131D01*
X0041232Y0272076D01*
X0041093Y0272026D01*
X0040952Y0271979D01*
X0040811Y0271936D01*
X0040668Y0271896D01*
X0040524Y0271861D01*
X0040380Y0271829D01*
X0040234Y0271802D01*
X0040088Y0271778D01*
X0039941Y0271758D01*
X0039794Y0271742D01*
X0039647Y0271730D01*
X0039499Y0271722D01*
X0039351Y0271718D01*
X0039203Y0271718D01*
X0039055Y0271722D01*
X0038907Y0271730D01*
X0038760Y0271742D01*
X0038613Y0271758D01*
X0038466Y0271778D01*
X0038320Y0271802D01*
X0038174Y0271829D01*
X0038030Y0271861D01*
X0037886Y0271896D01*
X0037743Y0271936D01*
X0037602Y0271979D01*
X0037461Y0272026D01*
X0037322Y0272076D01*
X0037185Y0272131D01*
X0037049Y0272189D01*
X0036914Y0272250D01*
X0036781Y0272315D01*
X0036650Y0272384D01*
X0036521Y0272456D01*
X0036394Y0272532D01*
X0036269Y0272611D01*
X0036146Y0272694D01*
X0036025Y0272779D01*
X0035907Y0272868D01*
X0035791Y0272960D01*
X0035678Y0273056D01*
X0035567Y0273154D01*
X0035459Y0273255D01*
X0035353Y0273359D01*
X0035251Y0273465D01*
X0035151Y0273575D01*
X0035055Y0273687D01*
X0034961Y0273802D01*
X0034870Y0273919D01*
X0034783Y0274038D01*
X0034699Y0274160D01*
X0034618Y0274284D01*
X0034541Y0274410D01*
X0034467Y0274538D01*
X0034396Y0274668D01*
X0034329Y0274800D01*
X0034266Y0274934D01*
X0034206Y0275069D01*
X0034150Y0275206D01*
X0034097Y0275345D01*
X0034049Y0275485D01*
X0034004Y0275626D01*
X0033963Y0275768D01*
X0033925Y0275911D01*
X0033892Y0276055D01*
X0033862Y0276200D01*
X0033836Y0276346D01*
X0033815Y0276492D01*
X0033797Y0276639D01*
X0033783Y0276786D01*
X0033773Y0276934D01*
X0033767Y0277082D01*
X0033765Y0277230D01*
D11*
X0130163Y0162761D03*
X0135163Y0162761D03*
X0140163Y0162761D03*
X0145163Y0162761D03*
X0145163Y0136541D03*
X0140163Y0136541D03*
X0135163Y0136541D03*
X0130163Y0136541D03*
D12*
X0082072Y0079405D03*
X0082072Y0074405D03*
X0082072Y0069405D03*
X0082072Y0064405D03*
X0060813Y0064405D03*
X0060813Y0069405D03*
X0060813Y0074405D03*
X0060813Y0079405D03*
D13*
X0090065Y0064671D03*
X0090065Y0058765D03*
D14*
X0157899Y0244730D03*
X0176403Y0244730D03*
X0176403Y0257722D03*
X0157899Y0257722D03*
D15*
X0152958Y0235104D03*
X0163982Y0235104D03*
X0070232Y0090104D03*
X0059208Y0090104D03*
X0055458Y0055104D03*
X0066482Y0055104D03*
D16*
X0118470Y0132092D03*
X0118470Y0143116D03*
X0118470Y0154592D03*
X0118470Y0165616D03*
X0157220Y0170616D03*
X0157220Y0159592D03*
D17*
X0158470Y0146866D03*
X0158470Y0135842D03*
M02*
