%
M48
M72
T01C0.01969
T02C0.02362
T03C0.03000
T04C0.03200
T05C0.03500
T06C0.03543
T07C0.04000
T08C0.11024
%
T01
X48470Y103854
T02
X53470Y39604
X50970Y72604
X67220Y82604
X90970Y82604
X118470Y75104
X130970Y75104
X192220Y62604
X209720Y53854
X202220Y113854
X215148Y139479
X163470Y181354
X170970Y197604
X180970Y227604
X170970Y232604
X166595Y251979
X218470Y245104
X112220Y220104
X78470Y200104
X93470Y195104
X80970Y187604
X74720Y177604
X69720Y175104
X83470Y157604
X88470Y157604
X74720Y146354
X82220Y132604
X74720Y125104
X50970Y116354
X53470Y107604
X58470Y102604
X68470Y103854
X77220Y267604
X70970Y280104
T03
X101423Y149100
X181423Y149100
T04
X205970Y245104
X195970Y245104
X130970Y245104
X120970Y245104
T05
X61076Y45403
X71076Y45403
X81076Y45403
X91076Y45403
X95576Y99149
X85576Y99149
X75576Y99149
X60763Y110498
X60763Y120498
X60763Y130498
X60763Y140498
X60970Y152604
X60970Y162604
X60970Y172604
X60970Y182604
X60970Y192604
X60970Y202604
X92220Y212604
X102220Y212604
X112220Y212604
X122220Y212604
X132220Y212604
X142220Y212604
X231423Y227210
X231423Y237210
X231423Y247210
X231423Y257210
X204720Y275104
X194720Y275104
X184720Y275104
X155970Y275104
X145970Y275104
X135970Y275104
X125970Y275104
X115970Y275104
X105970Y275104
X95970Y275104
X85970Y275104
X59139Y272210
X59139Y282210
X236472Y151049
X236472Y141049
X236403Y126659
X236403Y116659
X170970Y98854
X160970Y98854
X150970Y98854
X140970Y98854
X130970Y98854
X120970Y98854
X105576Y99149
X188076Y47643
X198076Y47643
X208076Y47643
T06
X216600Y163805
X216600Y193726
T07
X105670Y66204
X131270Y66204
X148170Y66204
X173770Y66204
X187070Y72304
X204870Y72304
X219570Y72304
X237370Y72304
X173770Y84004
X187070Y97904
X204870Y97904
X219570Y97904
X237370Y97904
X148170Y84004
X131270Y84004
X105670Y84004
X44277Y88057
X34277Y88057
X34277Y78057
X44277Y78057
X44277Y68057
X34277Y68057
X34277Y98057
X44277Y98057
X44277Y108057
X34277Y108057
X34277Y118057
X44277Y118057
X44277Y128057
X34277Y128057
X34277Y138057
X44277Y138057
X44277Y148057
X34277Y148057
X34277Y158057
X44277Y158057
X44277Y168057
X34277Y168057
X34277Y178057
X44277Y178057
X44277Y188057
X34277Y188057
X34277Y198057
X44277Y198057
X44277Y208057
X34277Y208057
X34277Y218057
X44277Y218057
X44277Y228057
X34277Y228057
X34277Y238057
X44277Y238057
X44277Y248057
X34277Y248057
X34277Y258057
X44277Y258057
X76792Y247252
X102392Y247252
X102392Y229452
X76792Y229452
X179267Y180911
X179267Y170911
T08
X39277Y48883
X232191Y48883
X232191Y277230
X39277Y277230
M30
