G75*
%MOIN*%
%OFA0B0*%
%FSLAX25Y25*%
%IPPOS*%
%LPD*%
%AMOC8*
5,1,8,0,0,1.08239X$1,22.5*
%
%ADD10C,0.00000*%
%ADD11R,0.06000X0.06000*%
%ADD12OC8,0.06000*%
%ADD13C,0.05906*%
%ADD14R,0.06500X0.06500*%
%ADD15C,0.06500*%
%ADD16C,0.60000*%
%ADD17C,0.12000*%
%ADD18R,0.04500X0.04000*%
%ADD19C,0.06000*%
%ADD20OC8,0.06600*%
%ADD21R,0.06299X0.07874*%
%ADD22R,0.07087X0.06299*%
%ADD23C,0.02400*%
%ADD24R,0.03562X0.03562*%
%ADD25C,0.01600*%
%ADD26C,0.01200*%
%ADD27C,0.03562*%
%ADD28C,0.03169*%
D10*
X0037312Y0035098D02*
X0098336Y0035098D01*
X0098460Y0035100D01*
X0098583Y0035106D01*
X0098707Y0035115D01*
X0098829Y0035129D01*
X0098952Y0035146D01*
X0099074Y0035168D01*
X0099195Y0035193D01*
X0099315Y0035222D01*
X0099434Y0035254D01*
X0099553Y0035291D01*
X0099670Y0035331D01*
X0099785Y0035374D01*
X0099900Y0035422D01*
X0100012Y0035473D01*
X0100123Y0035527D01*
X0100233Y0035585D01*
X0100340Y0035646D01*
X0100446Y0035711D01*
X0100549Y0035779D01*
X0100650Y0035850D01*
X0100749Y0035924D01*
X0100846Y0036001D01*
X0100940Y0036082D01*
X0101031Y0036165D01*
X0101120Y0036251D01*
X0101206Y0036340D01*
X0101289Y0036431D01*
X0101370Y0036525D01*
X0101447Y0036622D01*
X0101521Y0036721D01*
X0101592Y0036822D01*
X0101660Y0036925D01*
X0101725Y0037031D01*
X0101786Y0037138D01*
X0101844Y0037248D01*
X0101898Y0037359D01*
X0101949Y0037471D01*
X0101997Y0037586D01*
X0102040Y0037701D01*
X0102080Y0037818D01*
X0102117Y0037937D01*
X0102149Y0038056D01*
X0102178Y0038176D01*
X0102203Y0038297D01*
X0102225Y0038419D01*
X0102242Y0038542D01*
X0102256Y0038664D01*
X0102265Y0038788D01*
X0102271Y0038911D01*
X0102273Y0039035D01*
X0102273Y0050846D01*
X0102275Y0050970D01*
X0102281Y0051093D01*
X0102290Y0051217D01*
X0102304Y0051339D01*
X0102321Y0051462D01*
X0102343Y0051584D01*
X0102368Y0051705D01*
X0102397Y0051825D01*
X0102429Y0051944D01*
X0102466Y0052063D01*
X0102506Y0052180D01*
X0102549Y0052295D01*
X0102597Y0052410D01*
X0102648Y0052522D01*
X0102702Y0052633D01*
X0102760Y0052743D01*
X0102821Y0052850D01*
X0102886Y0052956D01*
X0102954Y0053059D01*
X0103025Y0053160D01*
X0103099Y0053259D01*
X0103176Y0053356D01*
X0103257Y0053450D01*
X0103340Y0053541D01*
X0103426Y0053630D01*
X0103515Y0053716D01*
X0103606Y0053799D01*
X0103700Y0053880D01*
X0103797Y0053957D01*
X0103896Y0054031D01*
X0103997Y0054102D01*
X0104100Y0054170D01*
X0104206Y0054235D01*
X0104313Y0054296D01*
X0104423Y0054354D01*
X0104534Y0054408D01*
X0104646Y0054459D01*
X0104761Y0054507D01*
X0104876Y0054550D01*
X0104993Y0054590D01*
X0105112Y0054627D01*
X0105231Y0054659D01*
X0105351Y0054688D01*
X0105472Y0054713D01*
X0105594Y0054735D01*
X0105717Y0054752D01*
X0105839Y0054766D01*
X0105963Y0054775D01*
X0106086Y0054781D01*
X0106210Y0054783D01*
X0165265Y0054783D01*
X0165389Y0054781D01*
X0165512Y0054775D01*
X0165636Y0054766D01*
X0165758Y0054752D01*
X0165881Y0054735D01*
X0166003Y0054713D01*
X0166124Y0054688D01*
X0166244Y0054659D01*
X0166363Y0054627D01*
X0166482Y0054590D01*
X0166599Y0054550D01*
X0166714Y0054507D01*
X0166829Y0054459D01*
X0166941Y0054408D01*
X0167052Y0054354D01*
X0167162Y0054296D01*
X0167269Y0054235D01*
X0167375Y0054170D01*
X0167478Y0054102D01*
X0167579Y0054031D01*
X0167678Y0053957D01*
X0167775Y0053880D01*
X0167869Y0053799D01*
X0167960Y0053716D01*
X0168049Y0053630D01*
X0168135Y0053541D01*
X0168218Y0053450D01*
X0168299Y0053356D01*
X0168376Y0053259D01*
X0168450Y0053160D01*
X0168521Y0053059D01*
X0168589Y0052956D01*
X0168654Y0052850D01*
X0168715Y0052743D01*
X0168773Y0052633D01*
X0168827Y0052522D01*
X0168878Y0052410D01*
X0168926Y0052295D01*
X0168969Y0052180D01*
X0169009Y0052063D01*
X0169046Y0051944D01*
X0169078Y0051825D01*
X0169107Y0051705D01*
X0169132Y0051584D01*
X0169154Y0051462D01*
X0169171Y0051339D01*
X0169185Y0051217D01*
X0169194Y0051093D01*
X0169200Y0050970D01*
X0169202Y0050846D01*
X0169202Y0039035D01*
X0169204Y0038911D01*
X0169210Y0038788D01*
X0169219Y0038664D01*
X0169233Y0038542D01*
X0169250Y0038419D01*
X0169272Y0038297D01*
X0169297Y0038176D01*
X0169326Y0038056D01*
X0169358Y0037937D01*
X0169395Y0037818D01*
X0169435Y0037701D01*
X0169478Y0037586D01*
X0169526Y0037471D01*
X0169577Y0037359D01*
X0169631Y0037248D01*
X0169689Y0037138D01*
X0169750Y0037031D01*
X0169815Y0036925D01*
X0169883Y0036822D01*
X0169954Y0036721D01*
X0170028Y0036622D01*
X0170105Y0036525D01*
X0170186Y0036431D01*
X0170269Y0036340D01*
X0170355Y0036251D01*
X0170444Y0036165D01*
X0170535Y0036082D01*
X0170629Y0036001D01*
X0170726Y0035924D01*
X0170825Y0035850D01*
X0170926Y0035779D01*
X0171029Y0035711D01*
X0171135Y0035646D01*
X0171242Y0035585D01*
X0171352Y0035527D01*
X0171463Y0035473D01*
X0171575Y0035422D01*
X0171690Y0035374D01*
X0171805Y0035331D01*
X0171922Y0035291D01*
X0172041Y0035254D01*
X0172160Y0035222D01*
X0172280Y0035193D01*
X0172401Y0035168D01*
X0172523Y0035146D01*
X0172646Y0035129D01*
X0172768Y0035115D01*
X0172892Y0035106D01*
X0173015Y0035100D01*
X0173139Y0035098D01*
X0234162Y0035098D01*
X0234447Y0035101D01*
X0234733Y0035112D01*
X0235018Y0035129D01*
X0235302Y0035153D01*
X0235586Y0035184D01*
X0235869Y0035222D01*
X0236150Y0035267D01*
X0236431Y0035318D01*
X0236711Y0035376D01*
X0236989Y0035441D01*
X0237265Y0035513D01*
X0237539Y0035591D01*
X0237812Y0035676D01*
X0238082Y0035768D01*
X0238350Y0035866D01*
X0238616Y0035970D01*
X0238879Y0036081D01*
X0239139Y0036198D01*
X0239397Y0036321D01*
X0239651Y0036451D01*
X0239902Y0036587D01*
X0240150Y0036728D01*
X0240394Y0036876D01*
X0240635Y0037029D01*
X0240871Y0037189D01*
X0241104Y0037354D01*
X0241333Y0037524D01*
X0241558Y0037700D01*
X0241778Y0037882D01*
X0241994Y0038068D01*
X0242205Y0038260D01*
X0242412Y0038457D01*
X0242614Y0038659D01*
X0242811Y0038866D01*
X0243003Y0039077D01*
X0243189Y0039293D01*
X0243371Y0039513D01*
X0243547Y0039738D01*
X0243717Y0039967D01*
X0243882Y0040200D01*
X0244042Y0040436D01*
X0244195Y0040677D01*
X0244343Y0040921D01*
X0244484Y0041169D01*
X0244620Y0041420D01*
X0244750Y0041674D01*
X0244873Y0041932D01*
X0244990Y0042192D01*
X0245101Y0042455D01*
X0245205Y0042721D01*
X0245303Y0042989D01*
X0245395Y0043259D01*
X0245480Y0043532D01*
X0245558Y0043806D01*
X0245630Y0044082D01*
X0245695Y0044360D01*
X0245753Y0044640D01*
X0245804Y0044921D01*
X0245849Y0045202D01*
X0245887Y0045485D01*
X0245918Y0045769D01*
X0245942Y0046053D01*
X0245959Y0046338D01*
X0245970Y0046624D01*
X0245973Y0046909D01*
X0245973Y0204390D01*
X0245971Y0204514D01*
X0245965Y0204637D01*
X0245956Y0204761D01*
X0245942Y0204883D01*
X0245925Y0205006D01*
X0245903Y0205128D01*
X0245878Y0205249D01*
X0245849Y0205369D01*
X0245817Y0205488D01*
X0245780Y0205607D01*
X0245740Y0205724D01*
X0245697Y0205839D01*
X0245649Y0205954D01*
X0245598Y0206066D01*
X0245544Y0206177D01*
X0245486Y0206287D01*
X0245425Y0206394D01*
X0245360Y0206500D01*
X0245292Y0206603D01*
X0245221Y0206704D01*
X0245147Y0206803D01*
X0245070Y0206900D01*
X0244989Y0206994D01*
X0244906Y0207085D01*
X0244820Y0207174D01*
X0244731Y0207260D01*
X0244640Y0207343D01*
X0244546Y0207424D01*
X0244449Y0207501D01*
X0244350Y0207575D01*
X0244249Y0207646D01*
X0244146Y0207714D01*
X0244040Y0207779D01*
X0243933Y0207840D01*
X0243823Y0207898D01*
X0243712Y0207952D01*
X0243600Y0208003D01*
X0243485Y0208051D01*
X0243370Y0208094D01*
X0243253Y0208134D01*
X0243134Y0208171D01*
X0243015Y0208203D01*
X0242895Y0208232D01*
X0242774Y0208257D01*
X0242652Y0208279D01*
X0242529Y0208296D01*
X0242407Y0208310D01*
X0242283Y0208319D01*
X0242160Y0208325D01*
X0242036Y0208327D01*
X0171170Y0208327D01*
X0171046Y0208329D01*
X0170923Y0208335D01*
X0170799Y0208344D01*
X0170677Y0208358D01*
X0170554Y0208375D01*
X0170432Y0208397D01*
X0170311Y0208422D01*
X0170191Y0208451D01*
X0170072Y0208483D01*
X0169953Y0208520D01*
X0169836Y0208560D01*
X0169721Y0208603D01*
X0169606Y0208651D01*
X0169494Y0208702D01*
X0169383Y0208756D01*
X0169273Y0208814D01*
X0169166Y0208875D01*
X0169060Y0208940D01*
X0168957Y0209008D01*
X0168856Y0209079D01*
X0168757Y0209153D01*
X0168660Y0209230D01*
X0168566Y0209311D01*
X0168475Y0209394D01*
X0168386Y0209480D01*
X0168300Y0209569D01*
X0168217Y0209660D01*
X0168136Y0209754D01*
X0168059Y0209851D01*
X0167985Y0209950D01*
X0167914Y0210051D01*
X0167846Y0210154D01*
X0167781Y0210260D01*
X0167720Y0210367D01*
X0167662Y0210477D01*
X0167608Y0210588D01*
X0167557Y0210700D01*
X0167509Y0210815D01*
X0167466Y0210930D01*
X0167426Y0211047D01*
X0167389Y0211166D01*
X0167357Y0211285D01*
X0167328Y0211405D01*
X0167303Y0211526D01*
X0167281Y0211648D01*
X0167264Y0211771D01*
X0167250Y0211893D01*
X0167241Y0212017D01*
X0167235Y0212140D01*
X0167233Y0212264D01*
X0167235Y0212388D01*
X0167241Y0212511D01*
X0167250Y0212635D01*
X0167264Y0212757D01*
X0167281Y0212880D01*
X0167303Y0213002D01*
X0167328Y0213123D01*
X0167357Y0213243D01*
X0167389Y0213362D01*
X0167426Y0213481D01*
X0167466Y0213598D01*
X0167509Y0213713D01*
X0167557Y0213828D01*
X0167608Y0213940D01*
X0167662Y0214051D01*
X0167720Y0214161D01*
X0167781Y0214268D01*
X0167846Y0214374D01*
X0167914Y0214477D01*
X0167985Y0214578D01*
X0168059Y0214677D01*
X0168136Y0214774D01*
X0168217Y0214868D01*
X0168300Y0214959D01*
X0168386Y0215048D01*
X0168475Y0215134D01*
X0168566Y0215217D01*
X0168660Y0215298D01*
X0168757Y0215375D01*
X0168856Y0215449D01*
X0168957Y0215520D01*
X0169060Y0215588D01*
X0169166Y0215653D01*
X0169273Y0215714D01*
X0169383Y0215772D01*
X0169494Y0215826D01*
X0169606Y0215877D01*
X0169721Y0215925D01*
X0169836Y0215968D01*
X0169953Y0216008D01*
X0170072Y0216045D01*
X0170191Y0216077D01*
X0170311Y0216106D01*
X0170432Y0216131D01*
X0170554Y0216153D01*
X0170677Y0216170D01*
X0170799Y0216184D01*
X0170923Y0216193D01*
X0171046Y0216199D01*
X0171170Y0216201D01*
X0242036Y0216201D01*
X0242160Y0216203D01*
X0242283Y0216209D01*
X0242407Y0216218D01*
X0242529Y0216232D01*
X0242652Y0216249D01*
X0242774Y0216271D01*
X0242895Y0216296D01*
X0243015Y0216325D01*
X0243134Y0216357D01*
X0243253Y0216394D01*
X0243370Y0216434D01*
X0243485Y0216477D01*
X0243600Y0216525D01*
X0243712Y0216576D01*
X0243823Y0216630D01*
X0243933Y0216688D01*
X0244040Y0216749D01*
X0244146Y0216814D01*
X0244249Y0216882D01*
X0244350Y0216953D01*
X0244449Y0217027D01*
X0244546Y0217104D01*
X0244640Y0217185D01*
X0244731Y0217268D01*
X0244820Y0217354D01*
X0244906Y0217443D01*
X0244989Y0217534D01*
X0245070Y0217628D01*
X0245147Y0217725D01*
X0245221Y0217824D01*
X0245292Y0217925D01*
X0245360Y0218028D01*
X0245425Y0218134D01*
X0245486Y0218241D01*
X0245544Y0218351D01*
X0245598Y0218462D01*
X0245649Y0218574D01*
X0245697Y0218689D01*
X0245740Y0218804D01*
X0245780Y0218921D01*
X0245817Y0219040D01*
X0245849Y0219159D01*
X0245878Y0219279D01*
X0245903Y0219400D01*
X0245925Y0219522D01*
X0245942Y0219645D01*
X0245956Y0219767D01*
X0245965Y0219891D01*
X0245971Y0220014D01*
X0245973Y0220138D01*
X0245973Y0279193D01*
X0245970Y0279478D01*
X0245959Y0279764D01*
X0245942Y0280049D01*
X0245918Y0280333D01*
X0245887Y0280617D01*
X0245849Y0280900D01*
X0245804Y0281181D01*
X0245753Y0281462D01*
X0245695Y0281742D01*
X0245630Y0282020D01*
X0245558Y0282296D01*
X0245480Y0282570D01*
X0245395Y0282843D01*
X0245303Y0283113D01*
X0245205Y0283381D01*
X0245101Y0283647D01*
X0244990Y0283910D01*
X0244873Y0284170D01*
X0244750Y0284428D01*
X0244620Y0284682D01*
X0244484Y0284933D01*
X0244343Y0285181D01*
X0244195Y0285425D01*
X0244042Y0285666D01*
X0243882Y0285902D01*
X0243717Y0286135D01*
X0243547Y0286364D01*
X0243371Y0286589D01*
X0243189Y0286809D01*
X0243003Y0287025D01*
X0242811Y0287236D01*
X0242614Y0287443D01*
X0242412Y0287645D01*
X0242205Y0287842D01*
X0241994Y0288034D01*
X0241778Y0288220D01*
X0241558Y0288402D01*
X0241333Y0288578D01*
X0241104Y0288748D01*
X0240871Y0288913D01*
X0240635Y0289073D01*
X0240394Y0289226D01*
X0240150Y0289374D01*
X0239902Y0289515D01*
X0239651Y0289651D01*
X0239397Y0289781D01*
X0239139Y0289904D01*
X0238879Y0290021D01*
X0238616Y0290132D01*
X0238350Y0290236D01*
X0238082Y0290334D01*
X0237812Y0290426D01*
X0237539Y0290511D01*
X0237265Y0290589D01*
X0236989Y0290661D01*
X0236711Y0290726D01*
X0236431Y0290784D01*
X0236150Y0290835D01*
X0235869Y0290880D01*
X0235586Y0290918D01*
X0235302Y0290949D01*
X0235018Y0290973D01*
X0234733Y0290990D01*
X0234447Y0291001D01*
X0234162Y0291004D01*
X0037312Y0291004D01*
X0037027Y0291001D01*
X0036741Y0290990D01*
X0036456Y0290973D01*
X0036172Y0290949D01*
X0035888Y0290918D01*
X0035605Y0290880D01*
X0035324Y0290835D01*
X0035043Y0290784D01*
X0034763Y0290726D01*
X0034485Y0290661D01*
X0034209Y0290589D01*
X0033935Y0290511D01*
X0033662Y0290426D01*
X0033392Y0290334D01*
X0033124Y0290236D01*
X0032858Y0290132D01*
X0032595Y0290021D01*
X0032335Y0289904D01*
X0032077Y0289781D01*
X0031823Y0289651D01*
X0031572Y0289515D01*
X0031324Y0289374D01*
X0031080Y0289226D01*
X0030839Y0289073D01*
X0030603Y0288913D01*
X0030370Y0288748D01*
X0030141Y0288578D01*
X0029916Y0288402D01*
X0029696Y0288220D01*
X0029480Y0288034D01*
X0029269Y0287842D01*
X0029062Y0287645D01*
X0028860Y0287443D01*
X0028663Y0287236D01*
X0028471Y0287025D01*
X0028285Y0286809D01*
X0028103Y0286589D01*
X0027927Y0286364D01*
X0027757Y0286135D01*
X0027592Y0285902D01*
X0027432Y0285666D01*
X0027279Y0285425D01*
X0027131Y0285181D01*
X0026990Y0284933D01*
X0026854Y0284682D01*
X0026724Y0284428D01*
X0026601Y0284170D01*
X0026484Y0283910D01*
X0026373Y0283647D01*
X0026269Y0283381D01*
X0026171Y0283113D01*
X0026079Y0282843D01*
X0025994Y0282570D01*
X0025916Y0282296D01*
X0025844Y0282020D01*
X0025779Y0281742D01*
X0025721Y0281462D01*
X0025670Y0281181D01*
X0025625Y0280900D01*
X0025587Y0280617D01*
X0025556Y0280333D01*
X0025532Y0280049D01*
X0025515Y0279764D01*
X0025504Y0279478D01*
X0025501Y0279193D01*
X0025501Y0046909D01*
X0025504Y0046624D01*
X0025515Y0046338D01*
X0025532Y0046053D01*
X0025556Y0045769D01*
X0025587Y0045485D01*
X0025625Y0045202D01*
X0025670Y0044921D01*
X0025721Y0044640D01*
X0025779Y0044360D01*
X0025844Y0044082D01*
X0025916Y0043806D01*
X0025994Y0043532D01*
X0026079Y0043259D01*
X0026171Y0042989D01*
X0026269Y0042721D01*
X0026373Y0042455D01*
X0026484Y0042192D01*
X0026601Y0041932D01*
X0026724Y0041674D01*
X0026854Y0041420D01*
X0026990Y0041169D01*
X0027131Y0040921D01*
X0027279Y0040677D01*
X0027432Y0040436D01*
X0027592Y0040200D01*
X0027757Y0039967D01*
X0027927Y0039738D01*
X0028103Y0039513D01*
X0028285Y0039293D01*
X0028471Y0039077D01*
X0028663Y0038866D01*
X0028860Y0038659D01*
X0029062Y0038457D01*
X0029269Y0038260D01*
X0029480Y0038068D01*
X0029696Y0037882D01*
X0029916Y0037700D01*
X0030141Y0037524D01*
X0030370Y0037354D01*
X0030603Y0037189D01*
X0030839Y0037029D01*
X0031080Y0036876D01*
X0031324Y0036728D01*
X0031572Y0036587D01*
X0031823Y0036451D01*
X0032077Y0036321D01*
X0032335Y0036198D01*
X0032595Y0036081D01*
X0032858Y0035970D01*
X0033124Y0035866D01*
X0033392Y0035768D01*
X0033662Y0035676D01*
X0033935Y0035591D01*
X0034209Y0035513D01*
X0034485Y0035441D01*
X0034763Y0035376D01*
X0035043Y0035318D01*
X0035324Y0035267D01*
X0035605Y0035222D01*
X0035888Y0035184D01*
X0036172Y0035153D01*
X0036456Y0035129D01*
X0036741Y0035112D01*
X0037027Y0035101D01*
X0037312Y0035098D01*
X0033765Y0048883D02*
X0033767Y0049031D01*
X0033773Y0049179D01*
X0033783Y0049327D01*
X0033797Y0049474D01*
X0033815Y0049621D01*
X0033836Y0049767D01*
X0033862Y0049913D01*
X0033892Y0050058D01*
X0033925Y0050202D01*
X0033963Y0050345D01*
X0034004Y0050487D01*
X0034049Y0050628D01*
X0034097Y0050768D01*
X0034150Y0050907D01*
X0034206Y0051044D01*
X0034266Y0051179D01*
X0034329Y0051313D01*
X0034396Y0051445D01*
X0034467Y0051575D01*
X0034541Y0051703D01*
X0034618Y0051829D01*
X0034699Y0051953D01*
X0034783Y0052075D01*
X0034870Y0052194D01*
X0034961Y0052311D01*
X0035055Y0052426D01*
X0035151Y0052538D01*
X0035251Y0052648D01*
X0035353Y0052754D01*
X0035459Y0052858D01*
X0035567Y0052959D01*
X0035678Y0053057D01*
X0035791Y0053153D01*
X0035907Y0053245D01*
X0036025Y0053334D01*
X0036146Y0053419D01*
X0036269Y0053502D01*
X0036394Y0053581D01*
X0036521Y0053657D01*
X0036650Y0053729D01*
X0036781Y0053798D01*
X0036914Y0053863D01*
X0037049Y0053924D01*
X0037185Y0053982D01*
X0037322Y0054037D01*
X0037461Y0054087D01*
X0037602Y0054134D01*
X0037743Y0054177D01*
X0037886Y0054217D01*
X0038030Y0054252D01*
X0038174Y0054284D01*
X0038320Y0054311D01*
X0038466Y0054335D01*
X0038613Y0054355D01*
X0038760Y0054371D01*
X0038907Y0054383D01*
X0039055Y0054391D01*
X0039203Y0054395D01*
X0039351Y0054395D01*
X0039499Y0054391D01*
X0039647Y0054383D01*
X0039794Y0054371D01*
X0039941Y0054355D01*
X0040088Y0054335D01*
X0040234Y0054311D01*
X0040380Y0054284D01*
X0040524Y0054252D01*
X0040668Y0054217D01*
X0040811Y0054177D01*
X0040952Y0054134D01*
X0041093Y0054087D01*
X0041232Y0054037D01*
X0041369Y0053982D01*
X0041505Y0053924D01*
X0041640Y0053863D01*
X0041773Y0053798D01*
X0041904Y0053729D01*
X0042033Y0053657D01*
X0042160Y0053581D01*
X0042285Y0053502D01*
X0042408Y0053419D01*
X0042529Y0053334D01*
X0042647Y0053245D01*
X0042763Y0053153D01*
X0042876Y0053057D01*
X0042987Y0052959D01*
X0043095Y0052858D01*
X0043201Y0052754D01*
X0043303Y0052648D01*
X0043403Y0052538D01*
X0043499Y0052426D01*
X0043593Y0052311D01*
X0043684Y0052194D01*
X0043771Y0052075D01*
X0043855Y0051953D01*
X0043936Y0051829D01*
X0044013Y0051703D01*
X0044087Y0051575D01*
X0044158Y0051445D01*
X0044225Y0051313D01*
X0044288Y0051179D01*
X0044348Y0051044D01*
X0044404Y0050907D01*
X0044457Y0050768D01*
X0044505Y0050628D01*
X0044550Y0050487D01*
X0044591Y0050345D01*
X0044629Y0050202D01*
X0044662Y0050058D01*
X0044692Y0049913D01*
X0044718Y0049767D01*
X0044739Y0049621D01*
X0044757Y0049474D01*
X0044771Y0049327D01*
X0044781Y0049179D01*
X0044787Y0049031D01*
X0044789Y0048883D01*
X0044787Y0048735D01*
X0044781Y0048587D01*
X0044771Y0048439D01*
X0044757Y0048292D01*
X0044739Y0048145D01*
X0044718Y0047999D01*
X0044692Y0047853D01*
X0044662Y0047708D01*
X0044629Y0047564D01*
X0044591Y0047421D01*
X0044550Y0047279D01*
X0044505Y0047138D01*
X0044457Y0046998D01*
X0044404Y0046859D01*
X0044348Y0046722D01*
X0044288Y0046587D01*
X0044225Y0046453D01*
X0044158Y0046321D01*
X0044087Y0046191D01*
X0044013Y0046063D01*
X0043936Y0045937D01*
X0043855Y0045813D01*
X0043771Y0045691D01*
X0043684Y0045572D01*
X0043593Y0045455D01*
X0043499Y0045340D01*
X0043403Y0045228D01*
X0043303Y0045118D01*
X0043201Y0045012D01*
X0043095Y0044908D01*
X0042987Y0044807D01*
X0042876Y0044709D01*
X0042763Y0044613D01*
X0042647Y0044521D01*
X0042529Y0044432D01*
X0042408Y0044347D01*
X0042285Y0044264D01*
X0042160Y0044185D01*
X0042033Y0044109D01*
X0041904Y0044037D01*
X0041773Y0043968D01*
X0041640Y0043903D01*
X0041505Y0043842D01*
X0041369Y0043784D01*
X0041232Y0043729D01*
X0041093Y0043679D01*
X0040952Y0043632D01*
X0040811Y0043589D01*
X0040668Y0043549D01*
X0040524Y0043514D01*
X0040380Y0043482D01*
X0040234Y0043455D01*
X0040088Y0043431D01*
X0039941Y0043411D01*
X0039794Y0043395D01*
X0039647Y0043383D01*
X0039499Y0043375D01*
X0039351Y0043371D01*
X0039203Y0043371D01*
X0039055Y0043375D01*
X0038907Y0043383D01*
X0038760Y0043395D01*
X0038613Y0043411D01*
X0038466Y0043431D01*
X0038320Y0043455D01*
X0038174Y0043482D01*
X0038030Y0043514D01*
X0037886Y0043549D01*
X0037743Y0043589D01*
X0037602Y0043632D01*
X0037461Y0043679D01*
X0037322Y0043729D01*
X0037185Y0043784D01*
X0037049Y0043842D01*
X0036914Y0043903D01*
X0036781Y0043968D01*
X0036650Y0044037D01*
X0036521Y0044109D01*
X0036394Y0044185D01*
X0036269Y0044264D01*
X0036146Y0044347D01*
X0036025Y0044432D01*
X0035907Y0044521D01*
X0035791Y0044613D01*
X0035678Y0044709D01*
X0035567Y0044807D01*
X0035459Y0044908D01*
X0035353Y0045012D01*
X0035251Y0045118D01*
X0035151Y0045228D01*
X0035055Y0045340D01*
X0034961Y0045455D01*
X0034870Y0045572D01*
X0034783Y0045691D01*
X0034699Y0045813D01*
X0034618Y0045937D01*
X0034541Y0046063D01*
X0034467Y0046191D01*
X0034396Y0046321D01*
X0034329Y0046453D01*
X0034266Y0046587D01*
X0034206Y0046722D01*
X0034150Y0046859D01*
X0034097Y0046998D01*
X0034049Y0047138D01*
X0034004Y0047279D01*
X0033963Y0047421D01*
X0033925Y0047564D01*
X0033892Y0047708D01*
X0033862Y0047853D01*
X0033836Y0047999D01*
X0033815Y0048145D01*
X0033797Y0048292D01*
X0033783Y0048439D01*
X0033773Y0048587D01*
X0033767Y0048735D01*
X0033765Y0048883D01*
X0226679Y0048883D02*
X0226681Y0049031D01*
X0226687Y0049179D01*
X0226697Y0049327D01*
X0226711Y0049474D01*
X0226729Y0049621D01*
X0226750Y0049767D01*
X0226776Y0049913D01*
X0226806Y0050058D01*
X0226839Y0050202D01*
X0226877Y0050345D01*
X0226918Y0050487D01*
X0226963Y0050628D01*
X0227011Y0050768D01*
X0227064Y0050907D01*
X0227120Y0051044D01*
X0227180Y0051179D01*
X0227243Y0051313D01*
X0227310Y0051445D01*
X0227381Y0051575D01*
X0227455Y0051703D01*
X0227532Y0051829D01*
X0227613Y0051953D01*
X0227697Y0052075D01*
X0227784Y0052194D01*
X0227875Y0052311D01*
X0227969Y0052426D01*
X0228065Y0052538D01*
X0228165Y0052648D01*
X0228267Y0052754D01*
X0228373Y0052858D01*
X0228481Y0052959D01*
X0228592Y0053057D01*
X0228705Y0053153D01*
X0228821Y0053245D01*
X0228939Y0053334D01*
X0229060Y0053419D01*
X0229183Y0053502D01*
X0229308Y0053581D01*
X0229435Y0053657D01*
X0229564Y0053729D01*
X0229695Y0053798D01*
X0229828Y0053863D01*
X0229963Y0053924D01*
X0230099Y0053982D01*
X0230236Y0054037D01*
X0230375Y0054087D01*
X0230516Y0054134D01*
X0230657Y0054177D01*
X0230800Y0054217D01*
X0230944Y0054252D01*
X0231088Y0054284D01*
X0231234Y0054311D01*
X0231380Y0054335D01*
X0231527Y0054355D01*
X0231674Y0054371D01*
X0231821Y0054383D01*
X0231969Y0054391D01*
X0232117Y0054395D01*
X0232265Y0054395D01*
X0232413Y0054391D01*
X0232561Y0054383D01*
X0232708Y0054371D01*
X0232855Y0054355D01*
X0233002Y0054335D01*
X0233148Y0054311D01*
X0233294Y0054284D01*
X0233438Y0054252D01*
X0233582Y0054217D01*
X0233725Y0054177D01*
X0233866Y0054134D01*
X0234007Y0054087D01*
X0234146Y0054037D01*
X0234283Y0053982D01*
X0234419Y0053924D01*
X0234554Y0053863D01*
X0234687Y0053798D01*
X0234818Y0053729D01*
X0234947Y0053657D01*
X0235074Y0053581D01*
X0235199Y0053502D01*
X0235322Y0053419D01*
X0235443Y0053334D01*
X0235561Y0053245D01*
X0235677Y0053153D01*
X0235790Y0053057D01*
X0235901Y0052959D01*
X0236009Y0052858D01*
X0236115Y0052754D01*
X0236217Y0052648D01*
X0236317Y0052538D01*
X0236413Y0052426D01*
X0236507Y0052311D01*
X0236598Y0052194D01*
X0236685Y0052075D01*
X0236769Y0051953D01*
X0236850Y0051829D01*
X0236927Y0051703D01*
X0237001Y0051575D01*
X0237072Y0051445D01*
X0237139Y0051313D01*
X0237202Y0051179D01*
X0237262Y0051044D01*
X0237318Y0050907D01*
X0237371Y0050768D01*
X0237419Y0050628D01*
X0237464Y0050487D01*
X0237505Y0050345D01*
X0237543Y0050202D01*
X0237576Y0050058D01*
X0237606Y0049913D01*
X0237632Y0049767D01*
X0237653Y0049621D01*
X0237671Y0049474D01*
X0237685Y0049327D01*
X0237695Y0049179D01*
X0237701Y0049031D01*
X0237703Y0048883D01*
X0237701Y0048735D01*
X0237695Y0048587D01*
X0237685Y0048439D01*
X0237671Y0048292D01*
X0237653Y0048145D01*
X0237632Y0047999D01*
X0237606Y0047853D01*
X0237576Y0047708D01*
X0237543Y0047564D01*
X0237505Y0047421D01*
X0237464Y0047279D01*
X0237419Y0047138D01*
X0237371Y0046998D01*
X0237318Y0046859D01*
X0237262Y0046722D01*
X0237202Y0046587D01*
X0237139Y0046453D01*
X0237072Y0046321D01*
X0237001Y0046191D01*
X0236927Y0046063D01*
X0236850Y0045937D01*
X0236769Y0045813D01*
X0236685Y0045691D01*
X0236598Y0045572D01*
X0236507Y0045455D01*
X0236413Y0045340D01*
X0236317Y0045228D01*
X0236217Y0045118D01*
X0236115Y0045012D01*
X0236009Y0044908D01*
X0235901Y0044807D01*
X0235790Y0044709D01*
X0235677Y0044613D01*
X0235561Y0044521D01*
X0235443Y0044432D01*
X0235322Y0044347D01*
X0235199Y0044264D01*
X0235074Y0044185D01*
X0234947Y0044109D01*
X0234818Y0044037D01*
X0234687Y0043968D01*
X0234554Y0043903D01*
X0234419Y0043842D01*
X0234283Y0043784D01*
X0234146Y0043729D01*
X0234007Y0043679D01*
X0233866Y0043632D01*
X0233725Y0043589D01*
X0233582Y0043549D01*
X0233438Y0043514D01*
X0233294Y0043482D01*
X0233148Y0043455D01*
X0233002Y0043431D01*
X0232855Y0043411D01*
X0232708Y0043395D01*
X0232561Y0043383D01*
X0232413Y0043375D01*
X0232265Y0043371D01*
X0232117Y0043371D01*
X0231969Y0043375D01*
X0231821Y0043383D01*
X0231674Y0043395D01*
X0231527Y0043411D01*
X0231380Y0043431D01*
X0231234Y0043455D01*
X0231088Y0043482D01*
X0230944Y0043514D01*
X0230800Y0043549D01*
X0230657Y0043589D01*
X0230516Y0043632D01*
X0230375Y0043679D01*
X0230236Y0043729D01*
X0230099Y0043784D01*
X0229963Y0043842D01*
X0229828Y0043903D01*
X0229695Y0043968D01*
X0229564Y0044037D01*
X0229435Y0044109D01*
X0229308Y0044185D01*
X0229183Y0044264D01*
X0229060Y0044347D01*
X0228939Y0044432D01*
X0228821Y0044521D01*
X0228705Y0044613D01*
X0228592Y0044709D01*
X0228481Y0044807D01*
X0228373Y0044908D01*
X0228267Y0045012D01*
X0228165Y0045118D01*
X0228065Y0045228D01*
X0227969Y0045340D01*
X0227875Y0045455D01*
X0227784Y0045572D01*
X0227697Y0045691D01*
X0227613Y0045813D01*
X0227532Y0045937D01*
X0227455Y0046063D01*
X0227381Y0046191D01*
X0227310Y0046321D01*
X0227243Y0046453D01*
X0227180Y0046587D01*
X0227120Y0046722D01*
X0227064Y0046859D01*
X0227011Y0046998D01*
X0226963Y0047138D01*
X0226918Y0047279D01*
X0226877Y0047421D01*
X0226839Y0047564D01*
X0226806Y0047708D01*
X0226776Y0047853D01*
X0226750Y0047999D01*
X0226729Y0048145D01*
X0226711Y0048292D01*
X0226697Y0048439D01*
X0226687Y0048587D01*
X0226681Y0048735D01*
X0226679Y0048883D01*
X0226679Y0277230D02*
X0226681Y0277378D01*
X0226687Y0277526D01*
X0226697Y0277674D01*
X0226711Y0277821D01*
X0226729Y0277968D01*
X0226750Y0278114D01*
X0226776Y0278260D01*
X0226806Y0278405D01*
X0226839Y0278549D01*
X0226877Y0278692D01*
X0226918Y0278834D01*
X0226963Y0278975D01*
X0227011Y0279115D01*
X0227064Y0279254D01*
X0227120Y0279391D01*
X0227180Y0279526D01*
X0227243Y0279660D01*
X0227310Y0279792D01*
X0227381Y0279922D01*
X0227455Y0280050D01*
X0227532Y0280176D01*
X0227613Y0280300D01*
X0227697Y0280422D01*
X0227784Y0280541D01*
X0227875Y0280658D01*
X0227969Y0280773D01*
X0228065Y0280885D01*
X0228165Y0280995D01*
X0228267Y0281101D01*
X0228373Y0281205D01*
X0228481Y0281306D01*
X0228592Y0281404D01*
X0228705Y0281500D01*
X0228821Y0281592D01*
X0228939Y0281681D01*
X0229060Y0281766D01*
X0229183Y0281849D01*
X0229308Y0281928D01*
X0229435Y0282004D01*
X0229564Y0282076D01*
X0229695Y0282145D01*
X0229828Y0282210D01*
X0229963Y0282271D01*
X0230099Y0282329D01*
X0230236Y0282384D01*
X0230375Y0282434D01*
X0230516Y0282481D01*
X0230657Y0282524D01*
X0230800Y0282564D01*
X0230944Y0282599D01*
X0231088Y0282631D01*
X0231234Y0282658D01*
X0231380Y0282682D01*
X0231527Y0282702D01*
X0231674Y0282718D01*
X0231821Y0282730D01*
X0231969Y0282738D01*
X0232117Y0282742D01*
X0232265Y0282742D01*
X0232413Y0282738D01*
X0232561Y0282730D01*
X0232708Y0282718D01*
X0232855Y0282702D01*
X0233002Y0282682D01*
X0233148Y0282658D01*
X0233294Y0282631D01*
X0233438Y0282599D01*
X0233582Y0282564D01*
X0233725Y0282524D01*
X0233866Y0282481D01*
X0234007Y0282434D01*
X0234146Y0282384D01*
X0234283Y0282329D01*
X0234419Y0282271D01*
X0234554Y0282210D01*
X0234687Y0282145D01*
X0234818Y0282076D01*
X0234947Y0282004D01*
X0235074Y0281928D01*
X0235199Y0281849D01*
X0235322Y0281766D01*
X0235443Y0281681D01*
X0235561Y0281592D01*
X0235677Y0281500D01*
X0235790Y0281404D01*
X0235901Y0281306D01*
X0236009Y0281205D01*
X0236115Y0281101D01*
X0236217Y0280995D01*
X0236317Y0280885D01*
X0236413Y0280773D01*
X0236507Y0280658D01*
X0236598Y0280541D01*
X0236685Y0280422D01*
X0236769Y0280300D01*
X0236850Y0280176D01*
X0236927Y0280050D01*
X0237001Y0279922D01*
X0237072Y0279792D01*
X0237139Y0279660D01*
X0237202Y0279526D01*
X0237262Y0279391D01*
X0237318Y0279254D01*
X0237371Y0279115D01*
X0237419Y0278975D01*
X0237464Y0278834D01*
X0237505Y0278692D01*
X0237543Y0278549D01*
X0237576Y0278405D01*
X0237606Y0278260D01*
X0237632Y0278114D01*
X0237653Y0277968D01*
X0237671Y0277821D01*
X0237685Y0277674D01*
X0237695Y0277526D01*
X0237701Y0277378D01*
X0237703Y0277230D01*
X0237701Y0277082D01*
X0237695Y0276934D01*
X0237685Y0276786D01*
X0237671Y0276639D01*
X0237653Y0276492D01*
X0237632Y0276346D01*
X0237606Y0276200D01*
X0237576Y0276055D01*
X0237543Y0275911D01*
X0237505Y0275768D01*
X0237464Y0275626D01*
X0237419Y0275485D01*
X0237371Y0275345D01*
X0237318Y0275206D01*
X0237262Y0275069D01*
X0237202Y0274934D01*
X0237139Y0274800D01*
X0237072Y0274668D01*
X0237001Y0274538D01*
X0236927Y0274410D01*
X0236850Y0274284D01*
X0236769Y0274160D01*
X0236685Y0274038D01*
X0236598Y0273919D01*
X0236507Y0273802D01*
X0236413Y0273687D01*
X0236317Y0273575D01*
X0236217Y0273465D01*
X0236115Y0273359D01*
X0236009Y0273255D01*
X0235901Y0273154D01*
X0235790Y0273056D01*
X0235677Y0272960D01*
X0235561Y0272868D01*
X0235443Y0272779D01*
X0235322Y0272694D01*
X0235199Y0272611D01*
X0235074Y0272532D01*
X0234947Y0272456D01*
X0234818Y0272384D01*
X0234687Y0272315D01*
X0234554Y0272250D01*
X0234419Y0272189D01*
X0234283Y0272131D01*
X0234146Y0272076D01*
X0234007Y0272026D01*
X0233866Y0271979D01*
X0233725Y0271936D01*
X0233582Y0271896D01*
X0233438Y0271861D01*
X0233294Y0271829D01*
X0233148Y0271802D01*
X0233002Y0271778D01*
X0232855Y0271758D01*
X0232708Y0271742D01*
X0232561Y0271730D01*
X0232413Y0271722D01*
X0232265Y0271718D01*
X0232117Y0271718D01*
X0231969Y0271722D01*
X0231821Y0271730D01*
X0231674Y0271742D01*
X0231527Y0271758D01*
X0231380Y0271778D01*
X0231234Y0271802D01*
X0231088Y0271829D01*
X0230944Y0271861D01*
X0230800Y0271896D01*
X0230657Y0271936D01*
X0230516Y0271979D01*
X0230375Y0272026D01*
X0230236Y0272076D01*
X0230099Y0272131D01*
X0229963Y0272189D01*
X0229828Y0272250D01*
X0229695Y0272315D01*
X0229564Y0272384D01*
X0229435Y0272456D01*
X0229308Y0272532D01*
X0229183Y0272611D01*
X0229060Y0272694D01*
X0228939Y0272779D01*
X0228821Y0272868D01*
X0228705Y0272960D01*
X0228592Y0273056D01*
X0228481Y0273154D01*
X0228373Y0273255D01*
X0228267Y0273359D01*
X0228165Y0273465D01*
X0228065Y0273575D01*
X0227969Y0273687D01*
X0227875Y0273802D01*
X0227784Y0273919D01*
X0227697Y0274038D01*
X0227613Y0274160D01*
X0227532Y0274284D01*
X0227455Y0274410D01*
X0227381Y0274538D01*
X0227310Y0274668D01*
X0227243Y0274800D01*
X0227180Y0274934D01*
X0227120Y0275069D01*
X0227064Y0275206D01*
X0227011Y0275345D01*
X0226963Y0275485D01*
X0226918Y0275626D01*
X0226877Y0275768D01*
X0226839Y0275911D01*
X0226806Y0276055D01*
X0226776Y0276200D01*
X0226750Y0276346D01*
X0226729Y0276492D01*
X0226711Y0276639D01*
X0226697Y0276786D01*
X0226687Y0276934D01*
X0226681Y0277082D01*
X0226679Y0277230D01*
X0033765Y0277230D02*
X0033767Y0277378D01*
X0033773Y0277526D01*
X0033783Y0277674D01*
X0033797Y0277821D01*
X0033815Y0277968D01*
X0033836Y0278114D01*
X0033862Y0278260D01*
X0033892Y0278405D01*
X0033925Y0278549D01*
X0033963Y0278692D01*
X0034004Y0278834D01*
X0034049Y0278975D01*
X0034097Y0279115D01*
X0034150Y0279254D01*
X0034206Y0279391D01*
X0034266Y0279526D01*
X0034329Y0279660D01*
X0034396Y0279792D01*
X0034467Y0279922D01*
X0034541Y0280050D01*
X0034618Y0280176D01*
X0034699Y0280300D01*
X0034783Y0280422D01*
X0034870Y0280541D01*
X0034961Y0280658D01*
X0035055Y0280773D01*
X0035151Y0280885D01*
X0035251Y0280995D01*
X0035353Y0281101D01*
X0035459Y0281205D01*
X0035567Y0281306D01*
X0035678Y0281404D01*
X0035791Y0281500D01*
X0035907Y0281592D01*
X0036025Y0281681D01*
X0036146Y0281766D01*
X0036269Y0281849D01*
X0036394Y0281928D01*
X0036521Y0282004D01*
X0036650Y0282076D01*
X0036781Y0282145D01*
X0036914Y0282210D01*
X0037049Y0282271D01*
X0037185Y0282329D01*
X0037322Y0282384D01*
X0037461Y0282434D01*
X0037602Y0282481D01*
X0037743Y0282524D01*
X0037886Y0282564D01*
X0038030Y0282599D01*
X0038174Y0282631D01*
X0038320Y0282658D01*
X0038466Y0282682D01*
X0038613Y0282702D01*
X0038760Y0282718D01*
X0038907Y0282730D01*
X0039055Y0282738D01*
X0039203Y0282742D01*
X0039351Y0282742D01*
X0039499Y0282738D01*
X0039647Y0282730D01*
X0039794Y0282718D01*
X0039941Y0282702D01*
X0040088Y0282682D01*
X0040234Y0282658D01*
X0040380Y0282631D01*
X0040524Y0282599D01*
X0040668Y0282564D01*
X0040811Y0282524D01*
X0040952Y0282481D01*
X0041093Y0282434D01*
X0041232Y0282384D01*
X0041369Y0282329D01*
X0041505Y0282271D01*
X0041640Y0282210D01*
X0041773Y0282145D01*
X0041904Y0282076D01*
X0042033Y0282004D01*
X0042160Y0281928D01*
X0042285Y0281849D01*
X0042408Y0281766D01*
X0042529Y0281681D01*
X0042647Y0281592D01*
X0042763Y0281500D01*
X0042876Y0281404D01*
X0042987Y0281306D01*
X0043095Y0281205D01*
X0043201Y0281101D01*
X0043303Y0280995D01*
X0043403Y0280885D01*
X0043499Y0280773D01*
X0043593Y0280658D01*
X0043684Y0280541D01*
X0043771Y0280422D01*
X0043855Y0280300D01*
X0043936Y0280176D01*
X0044013Y0280050D01*
X0044087Y0279922D01*
X0044158Y0279792D01*
X0044225Y0279660D01*
X0044288Y0279526D01*
X0044348Y0279391D01*
X0044404Y0279254D01*
X0044457Y0279115D01*
X0044505Y0278975D01*
X0044550Y0278834D01*
X0044591Y0278692D01*
X0044629Y0278549D01*
X0044662Y0278405D01*
X0044692Y0278260D01*
X0044718Y0278114D01*
X0044739Y0277968D01*
X0044757Y0277821D01*
X0044771Y0277674D01*
X0044781Y0277526D01*
X0044787Y0277378D01*
X0044789Y0277230D01*
X0044787Y0277082D01*
X0044781Y0276934D01*
X0044771Y0276786D01*
X0044757Y0276639D01*
X0044739Y0276492D01*
X0044718Y0276346D01*
X0044692Y0276200D01*
X0044662Y0276055D01*
X0044629Y0275911D01*
X0044591Y0275768D01*
X0044550Y0275626D01*
X0044505Y0275485D01*
X0044457Y0275345D01*
X0044404Y0275206D01*
X0044348Y0275069D01*
X0044288Y0274934D01*
X0044225Y0274800D01*
X0044158Y0274668D01*
X0044087Y0274538D01*
X0044013Y0274410D01*
X0043936Y0274284D01*
X0043855Y0274160D01*
X0043771Y0274038D01*
X0043684Y0273919D01*
X0043593Y0273802D01*
X0043499Y0273687D01*
X0043403Y0273575D01*
X0043303Y0273465D01*
X0043201Y0273359D01*
X0043095Y0273255D01*
X0042987Y0273154D01*
X0042876Y0273056D01*
X0042763Y0272960D01*
X0042647Y0272868D01*
X0042529Y0272779D01*
X0042408Y0272694D01*
X0042285Y0272611D01*
X0042160Y0272532D01*
X0042033Y0272456D01*
X0041904Y0272384D01*
X0041773Y0272315D01*
X0041640Y0272250D01*
X0041505Y0272189D01*
X0041369Y0272131D01*
X0041232Y0272076D01*
X0041093Y0272026D01*
X0040952Y0271979D01*
X0040811Y0271936D01*
X0040668Y0271896D01*
X0040524Y0271861D01*
X0040380Y0271829D01*
X0040234Y0271802D01*
X0040088Y0271778D01*
X0039941Y0271758D01*
X0039794Y0271742D01*
X0039647Y0271730D01*
X0039499Y0271722D01*
X0039351Y0271718D01*
X0039203Y0271718D01*
X0039055Y0271722D01*
X0038907Y0271730D01*
X0038760Y0271742D01*
X0038613Y0271758D01*
X0038466Y0271778D01*
X0038320Y0271802D01*
X0038174Y0271829D01*
X0038030Y0271861D01*
X0037886Y0271896D01*
X0037743Y0271936D01*
X0037602Y0271979D01*
X0037461Y0272026D01*
X0037322Y0272076D01*
X0037185Y0272131D01*
X0037049Y0272189D01*
X0036914Y0272250D01*
X0036781Y0272315D01*
X0036650Y0272384D01*
X0036521Y0272456D01*
X0036394Y0272532D01*
X0036269Y0272611D01*
X0036146Y0272694D01*
X0036025Y0272779D01*
X0035907Y0272868D01*
X0035791Y0272960D01*
X0035678Y0273056D01*
X0035567Y0273154D01*
X0035459Y0273255D01*
X0035353Y0273359D01*
X0035251Y0273465D01*
X0035151Y0273575D01*
X0035055Y0273687D01*
X0034961Y0273802D01*
X0034870Y0273919D01*
X0034783Y0274038D01*
X0034699Y0274160D01*
X0034618Y0274284D01*
X0034541Y0274410D01*
X0034467Y0274538D01*
X0034396Y0274668D01*
X0034329Y0274800D01*
X0034266Y0274934D01*
X0034206Y0275069D01*
X0034150Y0275206D01*
X0034097Y0275345D01*
X0034049Y0275485D01*
X0034004Y0275626D01*
X0033963Y0275768D01*
X0033925Y0275911D01*
X0033892Y0276055D01*
X0033862Y0276200D01*
X0033836Y0276346D01*
X0033815Y0276492D01*
X0033797Y0276639D01*
X0033783Y0276786D01*
X0033773Y0276934D01*
X0033767Y0277082D01*
X0033765Y0277230D01*
D11*
X0044277Y0068057D03*
D12*
X0034277Y0068057D03*
X0034277Y0078057D03*
X0044277Y0078057D03*
X0044277Y0088057D03*
X0034277Y0088057D03*
X0034277Y0098057D03*
X0044277Y0098057D03*
X0044277Y0108057D03*
X0034277Y0108057D03*
X0034277Y0118057D03*
X0044277Y0118057D03*
X0044277Y0128057D03*
X0034277Y0128057D03*
X0034277Y0138057D03*
X0044277Y0138057D03*
X0044277Y0148057D03*
X0034277Y0148057D03*
X0034277Y0158057D03*
X0044277Y0158057D03*
X0044277Y0168057D03*
X0034277Y0168057D03*
X0034277Y0178057D03*
X0044277Y0178057D03*
X0044277Y0188057D03*
X0034277Y0188057D03*
X0034277Y0198057D03*
X0044277Y0198057D03*
X0044277Y0208057D03*
X0034277Y0208057D03*
X0034277Y0218057D03*
X0044277Y0218057D03*
X0044277Y0228057D03*
X0034277Y0228057D03*
X0034277Y0238057D03*
X0044277Y0238057D03*
X0044277Y0248057D03*
X0034277Y0248057D03*
X0034277Y0258057D03*
X0044277Y0258057D03*
X0179267Y0180911D03*
X0179267Y0170911D03*
D13*
X0216600Y0163805D03*
X0216600Y0193726D03*
D14*
X0231423Y0227210D03*
X0204720Y0275104D03*
X0142220Y0212604D03*
X0060970Y0202604D03*
X0060763Y0140498D03*
X0105576Y0099149D03*
X0120970Y0098854D03*
X0188076Y0047643D03*
X0061076Y0045403D03*
X0236403Y0126659D03*
X0236472Y0151049D03*
X0059139Y0272210D03*
X0085970Y0275104D03*
D15*
X0095970Y0275104D03*
X0105970Y0275104D03*
X0115970Y0275104D03*
X0125970Y0275104D03*
X0135970Y0275104D03*
X0145970Y0275104D03*
X0155970Y0275104D03*
X0184720Y0275104D03*
X0194720Y0275104D03*
X0231423Y0257210D03*
X0231423Y0247210D03*
X0231423Y0237210D03*
X0132220Y0212604D03*
X0122220Y0212604D03*
X0112220Y0212604D03*
X0102220Y0212604D03*
X0092220Y0212604D03*
X0060970Y0192604D03*
X0060970Y0182604D03*
X0060970Y0172604D03*
X0060970Y0162604D03*
X0060970Y0152604D03*
X0060763Y0130498D03*
X0060763Y0120498D03*
X0060763Y0110498D03*
X0075576Y0099149D03*
X0085576Y0099149D03*
X0095576Y0099149D03*
X0130970Y0098854D03*
X0140970Y0098854D03*
X0150970Y0098854D03*
X0160970Y0098854D03*
X0170970Y0098854D03*
X0236403Y0116659D03*
X0236472Y0141049D03*
X0208076Y0047643D03*
X0198076Y0047643D03*
X0091076Y0045403D03*
X0081076Y0045403D03*
X0071076Y0045403D03*
X0059139Y0282210D03*
D16*
X0141423Y0149100D03*
D17*
X0181423Y0143100D02*
X0181423Y0155100D01*
X0101423Y0155100D02*
X0101423Y0143100D01*
D18*
X0193663Y0181009D03*
X0201663Y0177509D03*
X0201663Y0184509D03*
D19*
X0105392Y0229452D02*
X0099392Y0229452D01*
X0079792Y0229452D02*
X0073792Y0229452D01*
X0073792Y0247252D02*
X0079792Y0247252D01*
X0099392Y0247252D02*
X0105392Y0247252D01*
X0187070Y0100904D02*
X0187070Y0094904D01*
X0176770Y0084004D02*
X0170770Y0084004D01*
X0187070Y0075304D02*
X0187070Y0069304D01*
X0176770Y0066204D02*
X0170770Y0066204D01*
X0151170Y0066204D02*
X0145170Y0066204D01*
X0134270Y0066204D02*
X0128270Y0066204D01*
X0108670Y0066204D02*
X0102670Y0066204D01*
X0102670Y0084004D02*
X0108670Y0084004D01*
X0128270Y0084004D02*
X0134270Y0084004D01*
X0145170Y0084004D02*
X0151170Y0084004D01*
X0204870Y0075304D02*
X0204870Y0069304D01*
X0219570Y0069304D02*
X0219570Y0075304D01*
X0237370Y0075304D02*
X0237370Y0069304D01*
X0237370Y0094904D02*
X0237370Y0100904D01*
X0219570Y0100904D02*
X0219570Y0094904D01*
X0204870Y0094904D02*
X0204870Y0100904D01*
D20*
X0205970Y0245104D03*
X0195970Y0245104D03*
X0130970Y0245104D03*
X0120970Y0245104D03*
D21*
X0117958Y0227604D03*
X0128982Y0227604D03*
X0155458Y0260104D03*
X0166482Y0260104D03*
X0195458Y0227604D03*
X0206482Y0227604D03*
X0201482Y0197604D03*
X0190458Y0197604D03*
X0199208Y0060104D03*
X0210232Y0060104D03*
X0071482Y0055104D03*
X0060458Y0055104D03*
D22*
X0223470Y0117092D03*
X0223470Y0128116D03*
X0223470Y0138342D03*
X0223470Y0149366D03*
D23*
X0223470Y0138342D02*
X0233765Y0138342D01*
X0236472Y0141049D01*
X0215148Y0139479D02*
X0193663Y0160964D01*
X0193663Y0181009D01*
X0219720Y0228854D02*
X0218470Y0230104D01*
X0218470Y0245104D01*
X0225970Y0116354D02*
X0236403Y0116659D01*
X0225970Y0116354D02*
X0225970Y0065104D01*
X0224720Y0063854D02*
X0210970Y0063854D01*
X0209720Y0058854D02*
X0209720Y0053854D01*
X0188076Y0047643D02*
X0173470Y0047604D01*
X0173470Y0057604D01*
X0097220Y0057604D01*
X0118470Y0075104D02*
X0118470Y0097604D01*
X0120970Y0098854D01*
X0131270Y0084004D02*
X0130970Y0083704D01*
X0130970Y0075104D01*
D24*
X0130970Y0075104D03*
X0118470Y0075104D03*
X0090970Y0082604D03*
X0067220Y0082604D03*
X0050970Y0072604D03*
X0058470Y0102604D03*
X0053470Y0107604D03*
X0050970Y0116354D03*
X0068470Y0103854D03*
X0074720Y0125104D03*
X0074720Y0146354D03*
X0083470Y0157604D03*
X0088470Y0157604D03*
X0074720Y0177604D03*
X0069720Y0175104D03*
X0080970Y0187604D03*
X0093470Y0195104D03*
X0078470Y0200104D03*
X0112220Y0220104D03*
X0166595Y0251979D03*
X0170970Y0232604D03*
X0180970Y0227604D03*
X0218470Y0245104D03*
X0170970Y0197604D03*
X0215148Y0139479D03*
X0192220Y0062604D03*
X0209720Y0053854D03*
X0053470Y0039604D03*
X0070970Y0280104D03*
D25*
X0166482Y0260104D02*
X0166482Y0252092D01*
X0166595Y0251979D01*
X0132220Y0212604D02*
X0132220Y0198854D01*
X0113470Y0195104D02*
X0108470Y0190104D01*
X0085970Y0190104D01*
X0083470Y0192604D01*
X0060970Y0192604D01*
X0140970Y0098854D02*
X0130970Y0090104D01*
X0123470Y0090104D01*
X0123470Y0065104D01*
X0129870Y0065104D01*
X0131270Y0066204D01*
X0140345Y0086979D02*
X0150970Y0098854D01*
X0192220Y0062604D02*
X0192220Y0060104D01*
X0185970Y0060104D02*
X0197220Y0048854D01*
X0197220Y0050104D01*
X0197220Y0048854D02*
X0198470Y0047604D01*
X0198470Y0046787D01*
X0198076Y0047643D01*
X0185970Y0060104D02*
X0180970Y0060104D01*
X0090970Y0082604D02*
X0067220Y0082604D01*
D26*
X0063639Y0082427D02*
X0060870Y0082427D01*
X0060870Y0083625D02*
X0063639Y0083625D01*
X0063639Y0084824D02*
X0060870Y0084824D01*
X0060870Y0086022D02*
X0064530Y0086022D01*
X0064693Y0086185D02*
X0063639Y0085131D01*
X0063639Y0080077D01*
X0064693Y0079023D01*
X0069747Y0079023D01*
X0070728Y0080004D01*
X0087462Y0080004D01*
X0088443Y0079023D01*
X0093497Y0079023D01*
X0094551Y0080077D01*
X0094551Y0085131D01*
X0093497Y0086185D01*
X0093370Y0086185D01*
X0093370Y0092913D01*
X0094440Y0094154D01*
X0094572Y0094099D01*
X0096581Y0094099D01*
X0098437Y0094868D01*
X0099858Y0096289D01*
X0100626Y0098145D01*
X0100626Y0100154D01*
X0099858Y0102010D01*
X0099163Y0102704D01*
X0100752Y0102704D01*
X0100726Y0102610D01*
X0100726Y0099424D01*
X0105301Y0099424D01*
X0105301Y0098874D01*
X0100726Y0098874D01*
X0100726Y0095689D01*
X0100835Y0095282D01*
X0101046Y0094917D01*
X0101344Y0094619D01*
X0101709Y0094408D01*
X0102116Y0094299D01*
X0105301Y0094299D01*
X0105301Y0098874D01*
X0105851Y0098874D01*
X0105851Y0094299D01*
X0109037Y0094299D01*
X0109444Y0094408D01*
X0109809Y0094619D01*
X0110107Y0094917D01*
X0110317Y0095282D01*
X0110426Y0095689D01*
X0110426Y0098874D01*
X0105851Y0098874D01*
X0105851Y0099424D01*
X0110426Y0099424D01*
X0110426Y0102610D01*
X0110401Y0102704D01*
X0116224Y0102704D01*
X0116120Y0102315D01*
X0116120Y0099129D01*
X0120695Y0099129D01*
X0120695Y0098579D01*
X0116120Y0098579D01*
X0116120Y0095393D01*
X0116229Y0094986D01*
X0116440Y0094622D01*
X0116738Y0094324D01*
X0117102Y0094113D01*
X0117509Y0094004D01*
X0120695Y0094004D01*
X0120695Y0098579D01*
X0121245Y0098579D01*
X0121245Y0099129D01*
X0125820Y0099129D01*
X0125820Y0102315D01*
X0125716Y0102704D01*
X0127678Y0102704D01*
X0126689Y0101715D01*
X0125920Y0099858D01*
X0125920Y0097849D01*
X0126689Y0095993D01*
X0128109Y0094573D01*
X0129966Y0093804D01*
X0131250Y0093804D01*
X0129993Y0092704D01*
X0122953Y0092704D01*
X0121997Y0092308D01*
X0121266Y0091577D01*
X0120870Y0090621D01*
X0120870Y0064587D01*
X0121266Y0063631D01*
X0121997Y0062900D01*
X0122953Y0062504D01*
X0125182Y0062504D01*
X0111758Y0062504D01*
X0112739Y0063485D01*
X0113470Y0065249D01*
X0113470Y0067159D01*
X0112739Y0068923D01*
X0111389Y0070273D01*
X0109625Y0071004D01*
X0101715Y0071004D01*
X0099951Y0070273D01*
X0098601Y0068923D01*
X0097870Y0067159D01*
X0097870Y0065249D01*
X0098601Y0063485D01*
X0099582Y0062504D01*
X0099124Y0062504D01*
X0098057Y0063837D01*
X0098005Y0063963D01*
X0097761Y0064207D01*
X0097546Y0064476D01*
X0097426Y0064542D01*
X0088005Y0073963D01*
X0087330Y0074639D01*
X0086447Y0075004D01*
X0060870Y0075004D01*
X0060870Y0099023D01*
X0060997Y0099023D01*
X0062051Y0100077D01*
X0062051Y0105131D01*
X0061734Y0105448D01*
X0061768Y0105448D01*
X0063624Y0106216D01*
X0065045Y0107637D01*
X0065813Y0109493D01*
X0065813Y0111502D01*
X0065045Y0113358D01*
X0063624Y0114779D01*
X0061889Y0115498D01*
X0063624Y0116216D01*
X0065045Y0117637D01*
X0065813Y0119493D01*
X0065813Y0121502D01*
X0065665Y0121859D01*
X0069820Y0115627D01*
X0069820Y0107435D01*
X0065943Y0107435D01*
X0064889Y0106381D01*
X0064889Y0101327D01*
X0065943Y0100273D01*
X0066070Y0100273D01*
X0066070Y0094627D01*
X0066435Y0093744D01*
X0067111Y0093069D01*
X0072111Y0088069D01*
X0072993Y0087704D01*
X0087395Y0087704D01*
X0087483Y0087675D01*
X0087870Y0087704D01*
X0088258Y0087704D01*
X0088343Y0087739D01*
X0088435Y0087746D01*
X0088570Y0087814D01*
X0088570Y0086185D01*
X0088443Y0086185D01*
X0087462Y0085204D01*
X0070728Y0085204D01*
X0069747Y0086185D01*
X0064693Y0086185D01*
X0060870Y0087221D02*
X0088570Y0087221D01*
X0088280Y0086022D02*
X0069910Y0086022D01*
X0071761Y0088419D02*
X0060870Y0088419D01*
X0060870Y0089618D02*
X0070562Y0089618D01*
X0069364Y0090816D02*
X0060870Y0090816D01*
X0060870Y0092015D02*
X0068165Y0092015D01*
X0066967Y0093213D02*
X0060870Y0093213D01*
X0060870Y0094412D02*
X0066159Y0094412D01*
X0066070Y0095610D02*
X0060870Y0095610D01*
X0060870Y0096809D02*
X0066070Y0096809D01*
X0066070Y0098007D02*
X0060870Y0098007D01*
X0061180Y0099206D02*
X0066070Y0099206D01*
X0065812Y0100404D02*
X0062051Y0100404D01*
X0062051Y0101603D02*
X0064889Y0101603D01*
X0064889Y0102801D02*
X0062051Y0102801D01*
X0062051Y0104000D02*
X0064889Y0104000D01*
X0064889Y0105198D02*
X0061984Y0105198D01*
X0063804Y0106397D02*
X0064905Y0106397D01*
X0065003Y0107595D02*
X0069820Y0107595D01*
X0069820Y0108794D02*
X0065524Y0108794D01*
X0065813Y0109992D02*
X0069820Y0109992D01*
X0069820Y0111191D02*
X0065813Y0111191D01*
X0065446Y0112389D02*
X0069820Y0112389D01*
X0069820Y0113588D02*
X0064815Y0113588D01*
X0063606Y0114786D02*
X0069820Y0114786D01*
X0069582Y0115985D02*
X0063065Y0115985D01*
X0064591Y0117183D02*
X0068783Y0117183D01*
X0067984Y0118382D02*
X0065353Y0118382D01*
X0065813Y0119580D02*
X0067185Y0119580D01*
X0066386Y0120779D02*
X0065813Y0120779D01*
X0060763Y0120498D02*
X0055114Y0120498D01*
X0050970Y0116354D01*
X0055345Y0112604D02*
X0033470Y0112604D01*
X0033470Y0108864D01*
X0034277Y0108057D01*
X0031070Y0111638D02*
X0029477Y0110045D01*
X0029477Y0106068D01*
X0032289Y0103257D01*
X0036265Y0103257D01*
X0039077Y0106068D01*
X0039077Y0110045D01*
X0038918Y0110204D01*
X0039919Y0110204D01*
X0039677Y0109962D01*
X0039677Y0108457D01*
X0043877Y0108457D01*
X0043877Y0107657D01*
X0039677Y0107657D01*
X0039677Y0106151D01*
X0042372Y0103457D01*
X0043877Y0103457D01*
X0043877Y0107657D01*
X0044677Y0107657D01*
X0044677Y0108457D01*
X0048877Y0108457D01*
X0048877Y0109962D01*
X0048635Y0110204D01*
X0049962Y0110204D01*
X0049889Y0110131D01*
X0049889Y0105077D01*
X0050943Y0104023D01*
X0051070Y0104023D01*
X0051070Y0094627D01*
X0051435Y0093744D01*
X0052111Y0093069D01*
X0052993Y0092704D01*
X0053570Y0092704D01*
X0053570Y0076112D01*
X0053497Y0076185D01*
X0053370Y0076185D01*
X0053370Y0088081D01*
X0053005Y0088963D01*
X0052330Y0089639D01*
X0051447Y0090004D01*
X0049077Y0090004D01*
X0049077Y0090045D01*
X0046265Y0092857D01*
X0042289Y0092857D01*
X0039477Y0090045D01*
X0039477Y0086068D01*
X0042289Y0083257D01*
X0046265Y0083257D01*
X0048213Y0085204D01*
X0048570Y0085204D01*
X0048570Y0080552D01*
X0046265Y0082857D01*
X0042289Y0082857D01*
X0039477Y0080045D01*
X0039477Y0076068D01*
X0042289Y0073257D01*
X0046265Y0073257D01*
X0047389Y0074380D01*
X0047389Y0072857D01*
X0040532Y0072857D01*
X0039477Y0071802D01*
X0039477Y0065004D01*
X0039464Y0065004D01*
X0038738Y0065730D01*
X0039077Y0066068D01*
X0039077Y0070045D01*
X0036265Y0072857D01*
X0032289Y0072857D01*
X0029477Y0070045D01*
X0029477Y0066068D01*
X0032289Y0063257D01*
X0034423Y0063257D01*
X0035409Y0062271D01*
X0031617Y0060608D01*
X0028225Y0057485D01*
X0027301Y0055777D01*
X0027301Y0270337D01*
X0028225Y0268628D01*
X0031617Y0265506D01*
X0035839Y0263654D01*
X0040434Y0263273D01*
X0044903Y0264405D01*
X0048762Y0266926D01*
X0051594Y0270564D01*
X0053091Y0274925D01*
X0053091Y0279535D01*
X0051594Y0283895D01*
X0048762Y0287534D01*
X0046206Y0289204D01*
X0225100Y0289204D01*
X0224531Y0288954D01*
X0221139Y0285832D01*
X0218945Y0281777D01*
X0218186Y0277230D01*
X0218945Y0272683D01*
X0221139Y0268628D01*
X0224531Y0265506D01*
X0228753Y0263654D01*
X0233347Y0263273D01*
X0237816Y0264405D01*
X0241676Y0266926D01*
X0244173Y0270135D01*
X0244173Y0220138D01*
X0244132Y0219721D01*
X0243813Y0218950D01*
X0243224Y0218361D01*
X0242453Y0218042D01*
X0242036Y0218001D01*
X0217164Y0218001D01*
X0217330Y0218069D01*
X0218005Y0218744D01*
X0220505Y0221244D01*
X0220870Y0222127D01*
X0220870Y0226083D01*
X0221419Y0226311D01*
X0222263Y0227155D01*
X0222720Y0228257D01*
X0222720Y0228460D01*
X0224464Y0230204D01*
X0226573Y0230204D01*
X0226573Y0227485D01*
X0231148Y0227485D01*
X0231148Y0226935D01*
X0231698Y0226935D01*
X0231698Y0222360D01*
X0234883Y0222360D01*
X0235290Y0222469D01*
X0235655Y0222680D01*
X0235953Y0222978D01*
X0236164Y0223343D01*
X0236273Y0223750D01*
X0236273Y0226935D01*
X0231698Y0226935D01*
X0231698Y0227485D01*
X0236273Y0227485D01*
X0236273Y0230671D01*
X0236164Y0231078D01*
X0235953Y0231443D01*
X0235655Y0231741D01*
X0235290Y0231951D01*
X0234883Y0232060D01*
X0231698Y0232060D01*
X0231698Y0227485D01*
X0231148Y0227485D01*
X0231148Y0232060D01*
X0229189Y0232060D01*
X0229217Y0232127D01*
X0229217Y0232658D01*
X0230418Y0232160D01*
X0232427Y0232160D01*
X0234283Y0232929D01*
X0235704Y0234350D01*
X0236473Y0236206D01*
X0236473Y0238215D01*
X0235704Y0240071D01*
X0234283Y0241491D01*
X0232548Y0242210D01*
X0234283Y0242929D01*
X0235704Y0244350D01*
X0236473Y0246206D01*
X0236473Y0248215D01*
X0235704Y0250071D01*
X0234283Y0251491D01*
X0232548Y0252210D01*
X0234283Y0252929D01*
X0235704Y0254350D01*
X0236473Y0256206D01*
X0236473Y0258215D01*
X0235704Y0260071D01*
X0234283Y0261491D01*
X0232427Y0262260D01*
X0230418Y0262260D01*
X0228562Y0261491D01*
X0227142Y0260071D01*
X0227114Y0260004D01*
X0182048Y0260004D01*
X0163033Y0281396D01*
X0163005Y0281463D01*
X0162717Y0281751D01*
X0162447Y0282055D01*
X0162381Y0282087D01*
X0162330Y0282139D01*
X0161954Y0282294D01*
X0161588Y0282472D01*
X0161515Y0282476D01*
X0161447Y0282504D01*
X0161041Y0282504D01*
X0160634Y0282528D01*
X0160566Y0282504D01*
X0074551Y0282504D01*
X0074551Y0282631D01*
X0073497Y0283685D01*
X0068443Y0283685D01*
X0067389Y0282631D01*
X0067389Y0277577D01*
X0068443Y0276523D01*
X0073497Y0276523D01*
X0074551Y0277577D01*
X0074551Y0277704D01*
X0080920Y0277704D01*
X0080920Y0271108D01*
X0081974Y0270054D01*
X0085126Y0270054D01*
X0092676Y0262504D01*
X0066964Y0262504D01*
X0066045Y0263423D01*
X0063881Y0267907D01*
X0064189Y0268215D01*
X0064189Y0276206D01*
X0063135Y0277260D01*
X0055144Y0277260D01*
X0054089Y0276206D01*
X0054089Y0268215D01*
X0055144Y0267160D01*
X0058912Y0267160D01*
X0061869Y0261032D01*
X0062026Y0260654D01*
X0062076Y0260604D01*
X0062107Y0260540D01*
X0062412Y0260268D01*
X0063935Y0258744D01*
X0064611Y0258069D01*
X0065493Y0257704D01*
X0092476Y0257704D01*
X0096070Y0254110D01*
X0096070Y0250718D01*
X0095323Y0249971D01*
X0094592Y0248207D01*
X0094592Y0246297D01*
X0095323Y0244533D01*
X0096673Y0243183D01*
X0098437Y0242452D01*
X0106347Y0242452D01*
X0108111Y0243183D01*
X0109461Y0244533D01*
X0110192Y0246297D01*
X0110192Y0248207D01*
X0109461Y0249971D01*
X0108111Y0251321D01*
X0106347Y0252052D01*
X0100986Y0252052D01*
X0100870Y0252168D01*
X0100870Y0255581D01*
X0100505Y0256463D01*
X0099830Y0257139D01*
X0096764Y0260204D01*
X0097476Y0260204D01*
X0101435Y0256244D01*
X0102111Y0255569D01*
X0102993Y0255204D01*
X0127186Y0255204D01*
X0130652Y0250004D01*
X0128940Y0250004D01*
X0126070Y0247134D01*
X0126070Y0245304D01*
X0130770Y0245304D01*
X0130770Y0244904D01*
X0126070Y0244904D01*
X0126070Y0243074D01*
X0128940Y0240204D01*
X0130770Y0240204D01*
X0130770Y0244904D01*
X0131170Y0244904D01*
X0131170Y0240204D01*
X0133000Y0240204D01*
X0135511Y0242716D01*
X0146070Y0226877D01*
X0146070Y0217350D01*
X0145681Y0217454D01*
X0142495Y0217454D01*
X0142495Y0212879D01*
X0141945Y0212879D01*
X0141945Y0217454D01*
X0138759Y0217454D01*
X0138352Y0217345D01*
X0137988Y0217134D01*
X0137690Y0216836D01*
X0137479Y0216472D01*
X0137370Y0216065D01*
X0137370Y0212879D01*
X0141945Y0212879D01*
X0141945Y0212329D01*
X0137370Y0212329D01*
X0137370Y0209143D01*
X0137479Y0208736D01*
X0137690Y0208372D01*
X0137988Y0208074D01*
X0138352Y0207863D01*
X0138759Y0207754D01*
X0141945Y0207754D01*
X0141945Y0212329D01*
X0142495Y0212329D01*
X0142495Y0207754D01*
X0145681Y0207754D01*
X0146070Y0207858D01*
X0146070Y0196920D01*
X0145737Y0196254D01*
X0133014Y0196254D01*
X0133210Y0196450D01*
X0133693Y0196650D01*
X0134424Y0197381D01*
X0134820Y0198337D01*
X0134820Y0208215D01*
X0135081Y0208323D01*
X0136501Y0209743D01*
X0137270Y0211599D01*
X0137270Y0213608D01*
X0136501Y0215465D01*
X0135081Y0216885D01*
X0133225Y0217654D01*
X0131216Y0217654D01*
X0129359Y0216885D01*
X0127939Y0215465D01*
X0127220Y0213729D01*
X0126501Y0215465D01*
X0125081Y0216885D01*
X0124620Y0217076D01*
X0124620Y0217559D01*
X0127765Y0221867D01*
X0132877Y0221867D01*
X0133931Y0222921D01*
X0133931Y0232287D01*
X0132877Y0233341D01*
X0125087Y0233341D01*
X0124032Y0232287D01*
X0124032Y0224895D01*
X0122908Y0223354D01*
X0122908Y0232287D01*
X0121853Y0233341D01*
X0120358Y0233341D01*
X0120358Y0238979D01*
X0120751Y0239697D01*
X0121458Y0239859D01*
X0121663Y0240004D01*
X0123083Y0240004D01*
X0126070Y0242991D01*
X0126070Y0247216D01*
X0123083Y0250204D01*
X0118858Y0250204D01*
X0115870Y0247216D01*
X0115870Y0242991D01*
X0116653Y0242209D01*
X0116017Y0241045D01*
X0115924Y0240952D01*
X0115790Y0240630D01*
X0115623Y0240324D01*
X0115609Y0240192D01*
X0115558Y0240070D01*
X0115558Y0239721D01*
X0115521Y0239375D01*
X0115558Y0239247D01*
X0115558Y0233341D01*
X0114063Y0233341D01*
X0113009Y0232287D01*
X0113009Y0223685D01*
X0109693Y0223685D01*
X0108639Y0222631D01*
X0108639Y0217577D01*
X0109345Y0216871D01*
X0107939Y0215465D01*
X0107220Y0213729D01*
X0106501Y0215465D01*
X0105081Y0216885D01*
X0103225Y0217654D01*
X0101216Y0217654D01*
X0099359Y0216885D01*
X0097939Y0215465D01*
X0097220Y0213729D01*
X0096501Y0215465D01*
X0095081Y0216885D01*
X0093225Y0217654D01*
X0091216Y0217654D01*
X0089359Y0216885D01*
X0089096Y0216622D01*
X0081080Y0224639D01*
X0080897Y0224714D01*
X0082511Y0225383D01*
X0083861Y0226733D01*
X0084592Y0228497D01*
X0084592Y0230407D01*
X0083861Y0232171D01*
X0082511Y0233521D01*
X0080747Y0234252D01*
X0072837Y0234252D01*
X0071073Y0233521D01*
X0069723Y0232171D01*
X0069012Y0230456D01*
X0060870Y0238598D01*
X0060870Y0245581D01*
X0060505Y0246463D01*
X0057700Y0249268D01*
X0057407Y0249584D01*
X0057364Y0249605D01*
X0057330Y0249639D01*
X0056932Y0249803D01*
X0056540Y0249984D01*
X0056492Y0249986D01*
X0056447Y0250004D01*
X0056017Y0250004D01*
X0048840Y0250282D01*
X0046265Y0252857D01*
X0042289Y0252857D01*
X0039477Y0250045D01*
X0039477Y0246068D01*
X0042289Y0243257D01*
X0046265Y0243257D01*
X0048500Y0245491D01*
X0054938Y0245242D01*
X0056070Y0244110D01*
X0056070Y0238398D01*
X0054830Y0239639D01*
X0053947Y0240004D01*
X0049077Y0240004D01*
X0049077Y0240045D01*
X0046265Y0242857D01*
X0042289Y0242857D01*
X0039477Y0240045D01*
X0039477Y0236068D01*
X0042289Y0233257D01*
X0046265Y0233257D01*
X0048213Y0235204D01*
X0052476Y0235204D01*
X0057676Y0230004D01*
X0049077Y0230004D01*
X0049077Y0230045D01*
X0046265Y0232857D01*
X0042289Y0232857D01*
X0039477Y0230045D01*
X0039477Y0226068D01*
X0042289Y0223257D01*
X0046265Y0223257D01*
X0048213Y0225204D01*
X0057476Y0225204D01*
X0062656Y0220024D01*
X0048771Y0220351D01*
X0046265Y0222857D01*
X0042289Y0222857D01*
X0039477Y0220045D01*
X0039477Y0216068D01*
X0042289Y0213257D01*
X0046265Y0213257D01*
X0048564Y0215555D01*
X0062453Y0215227D01*
X0063935Y0213744D01*
X0064611Y0213069D01*
X0065493Y0212704D01*
X0072476Y0212704D01*
X0084611Y0200569D01*
X0085493Y0200204D01*
X0115197Y0200204D01*
X0116080Y0200569D01*
X0116964Y0201454D01*
X0122697Y0201454D01*
X0123580Y0201819D01*
X0124255Y0202494D01*
X0124620Y0203377D01*
X0124620Y0208132D01*
X0125081Y0208323D01*
X0126501Y0209743D01*
X0127220Y0211479D01*
X0127939Y0209743D01*
X0129359Y0208323D01*
X0129620Y0208215D01*
X0129620Y0200004D01*
X0115493Y0200004D01*
X0114611Y0199639D01*
X0112480Y0197508D01*
X0111997Y0197308D01*
X0107393Y0192704D01*
X0097051Y0192704D01*
X0097051Y0197631D01*
X0095997Y0198685D01*
X0090943Y0198685D01*
X0089889Y0197631D01*
X0089889Y0197504D01*
X0081978Y0197504D01*
X0082051Y0197577D01*
X0082051Y0202631D01*
X0080997Y0203685D01*
X0075943Y0203685D01*
X0074889Y0202631D01*
X0074889Y0202504D01*
X0074670Y0202504D01*
X0073995Y0203404D01*
X0073995Y0205581D01*
X0073630Y0206463D01*
X0072955Y0207139D01*
X0072955Y0207139D01*
X0068630Y0211463D01*
X0068630Y0211463D01*
X0067955Y0212139D01*
X0067072Y0212504D01*
X0050493Y0212504D01*
X0049611Y0212139D01*
X0048935Y0211463D01*
X0048570Y0210581D01*
X0048570Y0210552D01*
X0046265Y0212857D01*
X0042289Y0212857D01*
X0039477Y0210045D01*
X0039477Y0206068D01*
X0040542Y0205004D01*
X0037993Y0205004D01*
X0037544Y0204818D01*
X0038877Y0206151D01*
X0038877Y0207657D01*
X0034677Y0207657D01*
X0034677Y0208457D01*
X0033877Y0208457D01*
X0033877Y0212657D01*
X0032372Y0212657D01*
X0029677Y0209962D01*
X0029677Y0208457D01*
X0033877Y0208457D01*
X0033877Y0207657D01*
X0029677Y0207657D01*
X0029677Y0206151D01*
X0032372Y0203457D01*
X0033877Y0203457D01*
X0033877Y0207657D01*
X0034677Y0207657D01*
X0034677Y0203457D01*
X0036183Y0203457D01*
X0036256Y0203530D01*
X0036185Y0203359D01*
X0035683Y0202857D01*
X0032289Y0202857D01*
X0029477Y0200045D01*
X0029477Y0196068D01*
X0032289Y0193257D01*
X0036265Y0193257D01*
X0039077Y0196068D01*
X0039077Y0199463D01*
X0039477Y0199863D01*
X0039477Y0196068D01*
X0042289Y0193257D01*
X0046265Y0193257D01*
X0049077Y0196068D01*
X0049077Y0197704D01*
X0053947Y0197704D01*
X0054830Y0198069D01*
X0055505Y0198744D01*
X0055870Y0199627D01*
X0055870Y0205204D01*
X0056120Y0205204D01*
X0056120Y0202879D01*
X0060695Y0202879D01*
X0060695Y0202329D01*
X0056120Y0202329D01*
X0056120Y0199143D01*
X0056229Y0198736D01*
X0056440Y0198372D01*
X0056738Y0198074D01*
X0057102Y0197863D01*
X0057509Y0197754D01*
X0060695Y0197754D01*
X0060695Y0202329D01*
X0061245Y0202329D01*
X0061245Y0197754D01*
X0063570Y0197754D01*
X0063570Y0197127D01*
X0063637Y0196965D01*
X0061975Y0197654D01*
X0059966Y0197654D01*
X0058109Y0196885D01*
X0056689Y0195465D01*
X0055920Y0193608D01*
X0055920Y0191599D01*
X0056689Y0189743D01*
X0058109Y0188323D01*
X0059845Y0187604D01*
X0058109Y0186885D01*
X0056689Y0185465D01*
X0055920Y0183608D01*
X0055920Y0181599D01*
X0056581Y0180004D01*
X0051964Y0180004D01*
X0048005Y0183963D01*
X0047347Y0184621D01*
X0048877Y0186151D01*
X0048877Y0187657D01*
X0044677Y0187657D01*
X0044677Y0188457D01*
X0043877Y0188457D01*
X0043877Y0192657D01*
X0042372Y0192657D01*
X0039677Y0189962D01*
X0039677Y0188457D01*
X0043877Y0188457D01*
X0043877Y0187657D01*
X0039677Y0187657D01*
X0039677Y0186151D01*
X0040825Y0185004D01*
X0038013Y0185004D01*
X0039077Y0186068D01*
X0039077Y0190045D01*
X0036265Y0192857D01*
X0032289Y0192857D01*
X0029477Y0190045D01*
X0029477Y0186068D01*
X0032289Y0183257D01*
X0036083Y0183257D01*
X0035683Y0182857D01*
X0032289Y0182857D01*
X0029477Y0180045D01*
X0029477Y0176068D01*
X0032289Y0173257D01*
X0036265Y0173257D01*
X0039077Y0176068D01*
X0039077Y0179463D01*
X0039477Y0179863D01*
X0039477Y0176068D01*
X0042289Y0173257D01*
X0045683Y0173257D01*
X0046083Y0172857D01*
X0042289Y0172857D01*
X0039477Y0170045D01*
X0039477Y0166068D01*
X0042289Y0163257D01*
X0045683Y0163257D01*
X0046083Y0162857D01*
X0042289Y0162857D01*
X0039477Y0160045D01*
X0039477Y0156068D01*
X0042289Y0153257D01*
X0045683Y0153257D01*
X0046083Y0152857D01*
X0042289Y0152857D01*
X0039477Y0150045D01*
X0039477Y0146068D01*
X0040542Y0145004D01*
X0038013Y0145004D01*
X0039077Y0146068D01*
X0039077Y0150045D01*
X0036265Y0152857D01*
X0032289Y0152857D01*
X0029477Y0150045D01*
X0029477Y0146068D01*
X0032289Y0143257D01*
X0036083Y0143257D01*
X0035683Y0142857D01*
X0032289Y0142857D01*
X0029477Y0140045D01*
X0029477Y0136068D01*
X0032289Y0133257D01*
X0036265Y0133257D01*
X0039077Y0136068D01*
X0039077Y0139463D01*
X0039477Y0139863D01*
X0039477Y0136068D01*
X0042289Y0133257D01*
X0046265Y0133257D01*
X0046338Y0133329D01*
X0056470Y0133329D01*
X0055713Y0131502D01*
X0055713Y0129493D01*
X0056278Y0128129D01*
X0049077Y0128129D01*
X0049077Y0130045D01*
X0046265Y0132857D01*
X0042289Y0132857D01*
X0039477Y0130045D01*
X0039477Y0126068D01*
X0042289Y0123257D01*
X0046265Y0123257D01*
X0046338Y0123329D01*
X0056470Y0123329D01*
X0056291Y0122898D01*
X0054636Y0122898D01*
X0053754Y0122532D01*
X0053079Y0121857D01*
X0051157Y0119935D01*
X0049077Y0119935D01*
X0049077Y0120045D01*
X0046265Y0122857D01*
X0042289Y0122857D01*
X0039477Y0120045D01*
X0039477Y0116068D01*
X0040542Y0115004D01*
X0038013Y0115004D01*
X0039077Y0116068D01*
X0039077Y0120045D01*
X0036265Y0122857D01*
X0032289Y0122857D01*
X0029477Y0120045D01*
X0029477Y0116068D01*
X0031509Y0114037D01*
X0031435Y0113963D01*
X0031070Y0113081D01*
X0031070Y0111638D01*
X0030623Y0111191D02*
X0027301Y0111191D01*
X0027301Y0112389D02*
X0031070Y0112389D01*
X0031280Y0113588D02*
X0027301Y0113588D01*
X0027301Y0114786D02*
X0030759Y0114786D01*
X0029561Y0115985D02*
X0027301Y0115985D01*
X0027301Y0117183D02*
X0029477Y0117183D01*
X0029477Y0118382D02*
X0027301Y0118382D01*
X0027301Y0119580D02*
X0029477Y0119580D01*
X0030211Y0120779D02*
X0027301Y0120779D01*
X0027301Y0121977D02*
X0031410Y0121977D01*
X0032372Y0123457D02*
X0029677Y0126151D01*
X0029677Y0127657D01*
X0033877Y0127657D01*
X0033877Y0128457D01*
X0033877Y0132657D01*
X0032372Y0132657D01*
X0029677Y0129962D01*
X0029677Y0128457D01*
X0033877Y0128457D01*
X0034677Y0128457D01*
X0034677Y0132657D01*
X0036183Y0132657D01*
X0038877Y0129962D01*
X0038877Y0128457D01*
X0034677Y0128457D01*
X0034677Y0127657D01*
X0038877Y0127657D01*
X0038877Y0126151D01*
X0036183Y0123457D01*
X0034677Y0123457D01*
X0034677Y0127657D01*
X0033877Y0127657D01*
X0033877Y0123457D01*
X0032372Y0123457D01*
X0031454Y0124374D02*
X0027301Y0124374D01*
X0027301Y0123176D02*
X0056407Y0123176D01*
X0053199Y0121977D02*
X0047145Y0121977D01*
X0048343Y0120779D02*
X0052001Y0120779D01*
X0045970Y0125729D02*
X0044277Y0128057D01*
X0045970Y0125729D02*
X0065970Y0125729D01*
X0072220Y0116354D01*
X0072220Y0106354D01*
X0073470Y0105104D01*
X0138470Y0105104D01*
X0140970Y0102604D01*
X0140970Y0098854D01*
X0150970Y0098854D02*
X0150970Y0102604D01*
X0145970Y0107604D01*
X0074720Y0107604D01*
X0074720Y0116354D01*
X0068470Y0126354D01*
X0068470Y0132604D01*
X0065345Y0135729D01*
X0045970Y0135729D01*
X0044277Y0138057D01*
X0049077Y0138129D02*
X0049077Y0140045D01*
X0048918Y0140204D01*
X0048947Y0140204D01*
X0049830Y0140569D01*
X0050505Y0141244D01*
X0050505Y0141244D01*
X0053214Y0143954D01*
X0055913Y0143954D01*
X0055913Y0140773D01*
X0060488Y0140773D01*
X0060488Y0140223D01*
X0055913Y0140223D01*
X0055913Y0138129D01*
X0049077Y0138129D01*
X0049077Y0138757D02*
X0055913Y0138757D01*
X0055913Y0139955D02*
X0049077Y0139955D01*
X0050414Y0141154D02*
X0055913Y0141154D01*
X0055913Y0142352D02*
X0051612Y0142352D01*
X0052811Y0143551D02*
X0055913Y0143551D01*
X0052220Y0146354D02*
X0048470Y0142604D01*
X0038470Y0142604D01*
X0038470Y0142250D01*
X0034277Y0138057D01*
X0030586Y0141154D02*
X0027301Y0141154D01*
X0027301Y0142352D02*
X0031784Y0142352D01*
X0031995Y0143551D02*
X0027301Y0143551D01*
X0027301Y0144749D02*
X0030797Y0144749D01*
X0029598Y0145948D02*
X0027301Y0145948D01*
X0027301Y0147146D02*
X0029477Y0147146D01*
X0029477Y0148345D02*
X0027301Y0148345D01*
X0027301Y0149543D02*
X0029477Y0149543D01*
X0030174Y0150742D02*
X0027301Y0150742D01*
X0027301Y0151940D02*
X0031372Y0151940D01*
X0032372Y0153457D02*
X0029677Y0156151D01*
X0029677Y0157657D01*
X0033877Y0157657D01*
X0033877Y0158457D01*
X0033877Y0162657D01*
X0032372Y0162657D01*
X0029677Y0159962D01*
X0029677Y0158457D01*
X0033877Y0158457D01*
X0034677Y0158457D01*
X0034677Y0162657D01*
X0036183Y0162657D01*
X0038877Y0159962D01*
X0038877Y0158457D01*
X0034677Y0158457D01*
X0034677Y0157657D01*
X0038877Y0157657D01*
X0038877Y0156151D01*
X0036183Y0153457D01*
X0034677Y0153457D01*
X0034677Y0157657D01*
X0033877Y0157657D01*
X0033877Y0153457D01*
X0032372Y0153457D01*
X0031491Y0154337D02*
X0027301Y0154337D01*
X0027301Y0153139D02*
X0045801Y0153139D01*
X0049730Y0152604D02*
X0044277Y0158057D01*
X0040961Y0161528D02*
X0037311Y0161528D01*
X0038509Y0160330D02*
X0039762Y0160330D01*
X0039477Y0159131D02*
X0038877Y0159131D01*
X0039477Y0157933D02*
X0034677Y0157933D01*
X0033877Y0157933D02*
X0027301Y0157933D01*
X0027301Y0159131D02*
X0029677Y0159131D01*
X0030045Y0160330D02*
X0027301Y0160330D01*
X0027301Y0161528D02*
X0031243Y0161528D01*
X0032289Y0163257D02*
X0036265Y0163257D01*
X0039077Y0166068D01*
X0039077Y0170045D01*
X0036265Y0172857D01*
X0032289Y0172857D01*
X0029477Y0170045D01*
X0029477Y0166068D01*
X0032289Y0163257D01*
X0031620Y0163925D02*
X0027301Y0163925D01*
X0027301Y0162727D02*
X0042159Y0162727D01*
X0041620Y0163925D02*
X0036934Y0163925D01*
X0038132Y0165124D02*
X0040422Y0165124D01*
X0039477Y0166322D02*
X0039077Y0166322D01*
X0039077Y0167521D02*
X0039477Y0167521D01*
X0039477Y0168719D02*
X0039077Y0168719D01*
X0039077Y0169918D02*
X0039477Y0169918D01*
X0040549Y0171116D02*
X0038006Y0171116D01*
X0036807Y0172315D02*
X0041747Y0172315D01*
X0042032Y0173513D02*
X0036522Y0173513D01*
X0037721Y0174712D02*
X0040834Y0174712D01*
X0039635Y0175910D02*
X0038919Y0175910D01*
X0039077Y0177109D02*
X0039477Y0177109D01*
X0039477Y0178307D02*
X0039077Y0178307D01*
X0039121Y0179506D02*
X0039477Y0179506D01*
X0038470Y0182250D02*
X0034277Y0178057D01*
X0030834Y0174712D02*
X0027301Y0174712D01*
X0027301Y0175910D02*
X0029635Y0175910D01*
X0029477Y0177109D02*
X0027301Y0177109D01*
X0027301Y0178307D02*
X0029477Y0178307D01*
X0029477Y0179506D02*
X0027301Y0179506D01*
X0027301Y0180704D02*
X0030137Y0180704D01*
X0031335Y0181903D02*
X0027301Y0181903D01*
X0027301Y0183101D02*
X0035928Y0183101D01*
X0038470Y0182604D02*
X0038470Y0182250D01*
X0038470Y0182604D02*
X0045970Y0182604D01*
X0050970Y0177604D01*
X0065970Y0177604D01*
X0070970Y0182604D01*
X0110970Y0182604D01*
X0119720Y0191354D01*
X0148470Y0191354D01*
X0150970Y0195104D01*
X0150970Y0228854D01*
X0129720Y0260104D01*
X0108470Y0260104D01*
X0095970Y0272604D01*
X0095970Y0275104D01*
X0085970Y0275104D02*
X0085970Y0272604D01*
X0095970Y0262604D01*
X0098470Y0262604D01*
X0103470Y0257604D01*
X0128470Y0257604D01*
X0148470Y0227604D01*
X0148470Y0196354D01*
X0147220Y0193854D01*
X0117220Y0193854D01*
X0110970Y0187604D01*
X0080970Y0187604D01*
X0068470Y0195104D02*
X0093470Y0195104D01*
X0097051Y0195087D02*
X0109776Y0195087D01*
X0110974Y0196285D02*
X0097051Y0196285D01*
X0097051Y0197484D02*
X0112421Y0197484D01*
X0113654Y0198682D02*
X0096000Y0198682D01*
X0097051Y0193888D02*
X0108577Y0193888D01*
X0113470Y0195104D02*
X0115970Y0197604D01*
X0130970Y0197604D01*
X0132220Y0198854D01*
X0134820Y0198682D02*
X0146070Y0198682D01*
X0146070Y0197484D02*
X0134467Y0197484D01*
X0133045Y0196285D02*
X0145752Y0196285D01*
X0146070Y0199881D02*
X0134820Y0199881D01*
X0134820Y0201079D02*
X0146070Y0201079D01*
X0146070Y0202278D02*
X0134820Y0202278D01*
X0134820Y0203476D02*
X0146070Y0203476D01*
X0146070Y0204675D02*
X0134820Y0204675D01*
X0134820Y0205873D02*
X0146070Y0205873D01*
X0146070Y0207072D02*
X0134820Y0207072D01*
X0134954Y0208270D02*
X0137791Y0208270D01*
X0137370Y0209469D02*
X0136227Y0209469D01*
X0136884Y0210667D02*
X0137370Y0210667D01*
X0137370Y0211866D02*
X0137270Y0211866D01*
X0137270Y0213064D02*
X0137370Y0213064D01*
X0137370Y0214263D02*
X0136999Y0214263D01*
X0137370Y0215461D02*
X0136503Y0215461D01*
X0137588Y0216660D02*
X0135306Y0216660D01*
X0129134Y0216660D02*
X0125306Y0216660D01*
X0124838Y0217858D02*
X0146070Y0217858D01*
X0146070Y0219057D02*
X0125713Y0219057D01*
X0126588Y0220255D02*
X0146070Y0220255D01*
X0146070Y0221454D02*
X0127463Y0221454D01*
X0123270Y0223851D02*
X0122908Y0223851D01*
X0122908Y0225049D02*
X0124032Y0225049D01*
X0124032Y0226248D02*
X0122908Y0226248D01*
X0122908Y0227446D02*
X0124032Y0227446D01*
X0124032Y0228645D02*
X0122908Y0228645D01*
X0122908Y0229843D02*
X0124032Y0229843D01*
X0124032Y0231042D02*
X0122908Y0231042D01*
X0122908Y0232240D02*
X0124032Y0232240D01*
X0120358Y0233439D02*
X0141696Y0233439D01*
X0142495Y0232240D02*
X0133931Y0232240D01*
X0133931Y0231042D02*
X0143294Y0231042D01*
X0144093Y0229843D02*
X0133931Y0229843D01*
X0133931Y0228645D02*
X0144892Y0228645D01*
X0145691Y0227446D02*
X0133931Y0227446D01*
X0133931Y0226248D02*
X0146070Y0226248D01*
X0146070Y0225049D02*
X0133931Y0225049D01*
X0133931Y0223851D02*
X0146070Y0223851D01*
X0146070Y0222652D02*
X0133663Y0222652D01*
X0128982Y0227604D02*
X0122220Y0218342D01*
X0122220Y0212604D01*
X0122220Y0203854D01*
X0115970Y0203854D01*
X0114720Y0202604D01*
X0085970Y0202604D01*
X0073470Y0215104D01*
X0065970Y0215104D01*
X0063470Y0217604D01*
X0044277Y0218057D01*
X0040886Y0221454D02*
X0037668Y0221454D01*
X0036470Y0222652D02*
X0042085Y0222652D01*
X0041695Y0223851D02*
X0036577Y0223851D01*
X0036183Y0223457D02*
X0038877Y0226151D01*
X0038877Y0227657D01*
X0034677Y0227657D01*
X0034677Y0228457D01*
X0033877Y0228457D01*
X0033877Y0232657D01*
X0032372Y0232657D01*
X0029677Y0229962D01*
X0029677Y0228457D01*
X0033877Y0228457D01*
X0033877Y0227657D01*
X0029677Y0227657D01*
X0029677Y0226151D01*
X0032372Y0223457D01*
X0033877Y0223457D01*
X0033877Y0227657D01*
X0034677Y0227657D01*
X0034677Y0223457D01*
X0036183Y0223457D01*
X0036265Y0222857D02*
X0032289Y0222857D01*
X0029477Y0220045D01*
X0029477Y0216068D01*
X0032289Y0213257D01*
X0036265Y0213257D01*
X0039077Y0216068D01*
X0039077Y0220045D01*
X0036265Y0222857D01*
X0034677Y0223851D02*
X0033877Y0223851D01*
X0033877Y0225049D02*
X0034677Y0225049D01*
X0034677Y0226248D02*
X0033877Y0226248D01*
X0033877Y0227446D02*
X0034677Y0227446D01*
X0034677Y0228457D02*
X0038877Y0228457D01*
X0038877Y0229962D01*
X0036183Y0232657D01*
X0034677Y0232657D01*
X0034677Y0228457D01*
X0034677Y0228645D02*
X0033877Y0228645D01*
X0033877Y0229843D02*
X0034677Y0229843D01*
X0034677Y0231042D02*
X0033877Y0231042D01*
X0033877Y0232240D02*
X0034677Y0232240D01*
X0036265Y0233257D02*
X0032289Y0233257D01*
X0029477Y0236068D01*
X0029477Y0240045D01*
X0032289Y0242857D01*
X0036265Y0242857D01*
X0039077Y0240045D01*
X0039077Y0236068D01*
X0036265Y0233257D01*
X0036448Y0233439D02*
X0042107Y0233439D01*
X0041673Y0232240D02*
X0036599Y0232240D01*
X0037797Y0231042D02*
X0040474Y0231042D01*
X0039477Y0229843D02*
X0038877Y0229843D01*
X0038877Y0228645D02*
X0039477Y0228645D01*
X0039477Y0227446D02*
X0038877Y0227446D01*
X0038877Y0226248D02*
X0039477Y0226248D01*
X0040496Y0225049D02*
X0037775Y0225049D01*
X0031978Y0223851D02*
X0027301Y0223851D01*
X0027301Y0225049D02*
X0030779Y0225049D01*
X0029677Y0226248D02*
X0027301Y0226248D01*
X0027301Y0227446D02*
X0029677Y0227446D01*
X0029677Y0228645D02*
X0027301Y0228645D01*
X0027301Y0229843D02*
X0029677Y0229843D01*
X0030757Y0231042D02*
X0027301Y0231042D01*
X0027301Y0232240D02*
X0031956Y0232240D01*
X0032107Y0233439D02*
X0027301Y0233439D01*
X0027301Y0234637D02*
X0030908Y0234637D01*
X0029710Y0235836D02*
X0027301Y0235836D01*
X0027301Y0237034D02*
X0029477Y0237034D01*
X0029477Y0238233D02*
X0027301Y0238233D01*
X0027301Y0239432D02*
X0029477Y0239432D01*
X0030062Y0240630D02*
X0027301Y0240630D01*
X0027301Y0241829D02*
X0031261Y0241829D01*
X0032289Y0243257D02*
X0036265Y0243257D01*
X0039077Y0246068D01*
X0039077Y0250045D01*
X0036265Y0252857D01*
X0032289Y0252857D01*
X0029477Y0250045D01*
X0029477Y0246068D01*
X0032289Y0243257D01*
X0031320Y0244226D02*
X0027301Y0244226D01*
X0027301Y0245424D02*
X0030122Y0245424D01*
X0029477Y0246623D02*
X0027301Y0246623D01*
X0027301Y0247821D02*
X0029477Y0247821D01*
X0029477Y0249020D02*
X0027301Y0249020D01*
X0027301Y0250218D02*
X0029650Y0250218D01*
X0030849Y0251417D02*
X0027301Y0251417D01*
X0027301Y0252615D02*
X0032047Y0252615D01*
X0032289Y0253257D02*
X0036265Y0253257D01*
X0039077Y0256068D01*
X0039077Y0260045D01*
X0036265Y0262857D01*
X0032289Y0262857D01*
X0029477Y0260045D01*
X0029477Y0256068D01*
X0032289Y0253257D01*
X0031732Y0253814D02*
X0027301Y0253814D01*
X0027301Y0255012D02*
X0030533Y0255012D01*
X0029477Y0256211D02*
X0027301Y0256211D01*
X0027301Y0257409D02*
X0029477Y0257409D01*
X0029477Y0258608D02*
X0027301Y0258608D01*
X0027301Y0259806D02*
X0029477Y0259806D01*
X0030437Y0261005D02*
X0027301Y0261005D01*
X0027301Y0262203D02*
X0031635Y0262203D01*
X0033681Y0264600D02*
X0027301Y0264600D01*
X0027301Y0263402D02*
X0038880Y0263402D01*
X0040942Y0263402D02*
X0060726Y0263402D01*
X0060147Y0264600D02*
X0045202Y0264600D01*
X0044677Y0262657D02*
X0044677Y0258457D01*
X0043877Y0258457D01*
X0043877Y0262657D01*
X0042372Y0262657D01*
X0039677Y0259962D01*
X0039677Y0258457D01*
X0043877Y0258457D01*
X0043877Y0257657D01*
X0039677Y0257657D01*
X0039677Y0256151D01*
X0042372Y0253457D01*
X0043877Y0253457D01*
X0043877Y0257657D01*
X0044677Y0257657D01*
X0044677Y0258457D01*
X0048877Y0258457D01*
X0048877Y0259962D01*
X0046183Y0262657D01*
X0044677Y0262657D01*
X0044677Y0262203D02*
X0043877Y0262203D01*
X0043877Y0261005D02*
X0044677Y0261005D01*
X0044677Y0259806D02*
X0043877Y0259806D01*
X0043877Y0258608D02*
X0044677Y0258608D01*
X0044677Y0257657D02*
X0048877Y0257657D01*
X0048877Y0256151D01*
X0046183Y0253457D01*
X0044677Y0253457D01*
X0044677Y0257657D01*
X0044677Y0257409D02*
X0043877Y0257409D01*
X0043877Y0256211D02*
X0044677Y0256211D01*
X0044677Y0255012D02*
X0043877Y0255012D01*
X0043877Y0253814D02*
X0044677Y0253814D01*
X0046539Y0253814D02*
X0096070Y0253814D01*
X0096070Y0252615D02*
X0046507Y0252615D01*
X0047705Y0251417D02*
X0071304Y0251417D01*
X0071073Y0251321D02*
X0069723Y0249971D01*
X0068992Y0248207D01*
X0068992Y0246297D01*
X0069723Y0244533D01*
X0071073Y0243183D01*
X0072837Y0242452D01*
X0080747Y0242452D01*
X0082511Y0243183D01*
X0083861Y0244533D01*
X0084592Y0246297D01*
X0084592Y0248207D01*
X0083861Y0249971D01*
X0082511Y0251321D01*
X0080747Y0252052D01*
X0072837Y0252052D01*
X0071073Y0251321D01*
X0069970Y0250218D02*
X0050485Y0250218D01*
X0050239Y0245424D02*
X0048433Y0245424D01*
X0047234Y0244226D02*
X0055954Y0244226D01*
X0056070Y0243027D02*
X0027301Y0243027D01*
X0037234Y0244226D02*
X0041320Y0244226D01*
X0040122Y0245424D02*
X0038433Y0245424D01*
X0039077Y0246623D02*
X0039477Y0246623D01*
X0039477Y0247821D02*
X0039077Y0247821D01*
X0039077Y0249020D02*
X0039477Y0249020D01*
X0039650Y0250218D02*
X0038904Y0250218D01*
X0037705Y0251417D02*
X0040849Y0251417D01*
X0042047Y0252615D02*
X0036507Y0252615D01*
X0036822Y0253814D02*
X0042015Y0253814D01*
X0040816Y0255012D02*
X0038021Y0255012D01*
X0039077Y0256211D02*
X0039677Y0256211D01*
X0039677Y0257409D02*
X0039077Y0257409D01*
X0039077Y0258608D02*
X0039677Y0258608D01*
X0039677Y0259806D02*
X0039077Y0259806D01*
X0038117Y0261005D02*
X0040720Y0261005D01*
X0041918Y0262203D02*
X0036919Y0262203D01*
X0031299Y0265799D02*
X0027301Y0265799D01*
X0027301Y0266997D02*
X0029997Y0266997D01*
X0028695Y0268196D02*
X0027301Y0268196D01*
X0027301Y0269394D02*
X0027811Y0269394D01*
X0047036Y0265799D02*
X0059569Y0265799D01*
X0058990Y0266997D02*
X0048818Y0266997D01*
X0049750Y0268196D02*
X0054108Y0268196D01*
X0054089Y0269394D02*
X0050683Y0269394D01*
X0051604Y0270593D02*
X0054089Y0270593D01*
X0054089Y0271791D02*
X0052015Y0271791D01*
X0052427Y0272990D02*
X0054089Y0272990D01*
X0054089Y0274188D02*
X0052838Y0274188D01*
X0053091Y0275387D02*
X0054089Y0275387D01*
X0054469Y0276585D02*
X0053091Y0276585D01*
X0053091Y0277784D02*
X0057144Y0277784D01*
X0057278Y0277716D02*
X0058004Y0277480D01*
X0058758Y0277360D01*
X0058864Y0277360D01*
X0058864Y0281935D01*
X0054289Y0281935D01*
X0054289Y0281829D01*
X0054409Y0281075D01*
X0054645Y0280348D01*
X0054991Y0279668D01*
X0055440Y0279051D01*
X0055980Y0278511D01*
X0056597Y0278062D01*
X0057278Y0277716D01*
X0058864Y0277784D02*
X0059414Y0277784D01*
X0059414Y0277360D02*
X0059521Y0277360D01*
X0060275Y0277480D01*
X0061001Y0277716D01*
X0061681Y0278062D01*
X0062299Y0278511D01*
X0062839Y0279051D01*
X0063287Y0279668D01*
X0063634Y0280348D01*
X0063870Y0281075D01*
X0063989Y0281829D01*
X0063989Y0281935D01*
X0059414Y0281935D01*
X0059414Y0277360D01*
X0059414Y0278982D02*
X0058864Y0278982D01*
X0058864Y0280181D02*
X0059414Y0280181D01*
X0059414Y0281379D02*
X0058864Y0281379D01*
X0058864Y0281935D02*
X0059414Y0281935D01*
X0059414Y0282485D01*
X0058864Y0282485D01*
X0058864Y0281935D01*
X0058864Y0282485D02*
X0054289Y0282485D01*
X0054289Y0282592D01*
X0054409Y0283346D01*
X0054645Y0284072D01*
X0054991Y0284752D01*
X0055440Y0285370D01*
X0055980Y0285910D01*
X0056597Y0286358D01*
X0057278Y0286705D01*
X0058004Y0286941D01*
X0058758Y0287060D01*
X0058864Y0287060D01*
X0058864Y0282485D01*
X0058864Y0282578D02*
X0059414Y0282578D01*
X0059414Y0282485D02*
X0059414Y0287060D01*
X0059521Y0287060D01*
X0060275Y0286941D01*
X0061001Y0286705D01*
X0061681Y0286358D01*
X0062299Y0285910D01*
X0062839Y0285370D01*
X0063287Y0284752D01*
X0063634Y0284072D01*
X0063870Y0283346D01*
X0063989Y0282592D01*
X0063989Y0282485D01*
X0059414Y0282485D01*
X0059414Y0283776D02*
X0058864Y0283776D01*
X0058864Y0284975D02*
X0059414Y0284975D01*
X0059414Y0286173D02*
X0058864Y0286173D01*
X0056343Y0286173D02*
X0049821Y0286173D01*
X0050754Y0284975D02*
X0055153Y0284975D01*
X0054549Y0283776D02*
X0051635Y0283776D01*
X0052046Y0282578D02*
X0054289Y0282578D01*
X0054360Y0281379D02*
X0052458Y0281379D01*
X0052869Y0280181D02*
X0054730Y0280181D01*
X0055508Y0278982D02*
X0053091Y0278982D01*
X0061135Y0277784D02*
X0067389Y0277784D01*
X0067389Y0278982D02*
X0062770Y0278982D01*
X0063549Y0280181D02*
X0067389Y0280181D01*
X0067389Y0281379D02*
X0063918Y0281379D01*
X0063989Y0282578D02*
X0067389Y0282578D01*
X0063730Y0283776D02*
X0220027Y0283776D01*
X0219378Y0282578D02*
X0074551Y0282578D01*
X0070970Y0280104D02*
X0160970Y0280104D01*
X0180970Y0257604D01*
X0230970Y0257604D01*
X0231423Y0257210D01*
X0226788Y0255204D02*
X0227142Y0254350D01*
X0228562Y0252929D01*
X0230298Y0252210D01*
X0228562Y0251491D01*
X0227142Y0250071D01*
X0226373Y0248215D01*
X0226373Y0246206D01*
X0227142Y0244350D01*
X0228562Y0242929D01*
X0230298Y0242210D01*
X0228562Y0241491D01*
X0227142Y0240071D01*
X0226373Y0238215D01*
X0226373Y0236206D01*
X0226871Y0235004D01*
X0222993Y0235004D01*
X0222111Y0234639D01*
X0221470Y0233998D01*
X0221470Y0241996D01*
X0222051Y0242577D01*
X0222051Y0247631D01*
X0220997Y0248685D01*
X0215943Y0248685D01*
X0214889Y0247631D01*
X0214889Y0242577D01*
X0215470Y0241996D01*
X0215470Y0229507D01*
X0215927Y0228405D01*
X0216123Y0228209D01*
X0216070Y0228081D01*
X0216070Y0223598D01*
X0214976Y0222504D01*
X0211014Y0222504D01*
X0211431Y0222921D01*
X0211431Y0232287D01*
X0210377Y0233341D01*
X0208370Y0233341D01*
X0208370Y0235581D01*
X0208005Y0236463D01*
X0204264Y0240204D01*
X0205770Y0240204D01*
X0205770Y0244904D01*
X0201070Y0244904D01*
X0201070Y0243398D01*
X0201070Y0247216D01*
X0198083Y0250204D01*
X0193858Y0250204D01*
X0190870Y0247216D01*
X0190870Y0242991D01*
X0193858Y0240004D01*
X0197676Y0240004D01*
X0203570Y0234110D01*
X0203570Y0233341D01*
X0202587Y0233341D01*
X0201532Y0232287D01*
X0201532Y0222921D01*
X0201950Y0222504D01*
X0199990Y0222504D01*
X0200408Y0222921D01*
X0200408Y0232287D01*
X0199353Y0233341D01*
X0191563Y0233341D01*
X0190509Y0232287D01*
X0190509Y0230004D01*
X0184551Y0230004D01*
X0184551Y0230131D01*
X0183497Y0231185D01*
X0178443Y0231185D01*
X0177389Y0230131D01*
X0177389Y0225077D01*
X0178443Y0224023D01*
X0183497Y0224023D01*
X0184551Y0225077D01*
X0184551Y0225204D01*
X0190509Y0225204D01*
X0190509Y0222921D01*
X0190926Y0222504D01*
X0164243Y0222504D01*
X0163370Y0222142D01*
X0163370Y0226610D01*
X0164464Y0227704D01*
X0168947Y0227704D01*
X0169830Y0228069D01*
X0170505Y0228744D01*
X0170783Y0229023D01*
X0173497Y0229023D01*
X0174551Y0230077D01*
X0174551Y0235131D01*
X0173497Y0236185D01*
X0168443Y0236185D01*
X0167389Y0235131D01*
X0167389Y0232504D01*
X0162993Y0232504D01*
X0162111Y0232139D01*
X0160870Y0230898D01*
X0160870Y0237401D01*
X0160916Y0237671D01*
X0160870Y0237873D01*
X0160870Y0238081D01*
X0160765Y0238334D01*
X0160704Y0238602D01*
X0160584Y0238771D01*
X0160505Y0238963D01*
X0160311Y0239157D01*
X0139334Y0268771D01*
X0139255Y0268963D01*
X0139061Y0269157D01*
X0138903Y0269381D01*
X0138727Y0269491D01*
X0138580Y0269639D01*
X0138326Y0269743D01*
X0138095Y0269889D01*
X0137890Y0269924D01*
X0137697Y0270004D01*
X0137423Y0270004D01*
X0137153Y0270050D01*
X0136951Y0270004D01*
X0129464Y0270004D01*
X0128700Y0270768D01*
X0128831Y0270823D01*
X0130251Y0272243D01*
X0130970Y0273979D01*
X0131689Y0272243D01*
X0133109Y0270823D01*
X0134966Y0270054D01*
X0136975Y0270054D01*
X0138831Y0270823D01*
X0140251Y0272243D01*
X0140970Y0273979D01*
X0141689Y0272243D01*
X0143109Y0270823D01*
X0143570Y0270632D01*
X0143570Y0264627D01*
X0143935Y0263744D01*
X0150509Y0257171D01*
X0150509Y0255421D01*
X0151563Y0254367D01*
X0159353Y0254367D01*
X0160408Y0255421D01*
X0160408Y0264787D01*
X0159353Y0265841D01*
X0151563Y0265841D01*
X0150509Y0264787D01*
X0150509Y0263959D01*
X0148370Y0266098D01*
X0148370Y0270632D01*
X0148831Y0270823D01*
X0150251Y0272243D01*
X0151020Y0274099D01*
X0151020Y0276108D01*
X0150359Y0277704D01*
X0151864Y0277704D01*
X0151822Y0277646D01*
X0151475Y0276966D01*
X0151240Y0276240D01*
X0151120Y0275486D01*
X0151120Y0275379D01*
X0155695Y0275379D01*
X0155695Y0274829D01*
X0151120Y0274829D01*
X0151120Y0274722D01*
X0151240Y0273968D01*
X0151475Y0273242D01*
X0151822Y0272562D01*
X0152271Y0271944D01*
X0152811Y0271405D01*
X0153428Y0270956D01*
X0154108Y0270609D01*
X0154834Y0270373D01*
X0155588Y0270254D01*
X0155695Y0270254D01*
X0155695Y0274829D01*
X0156245Y0274829D01*
X0156245Y0275379D01*
X0160820Y0275379D01*
X0160820Y0275486D01*
X0160701Y0276240D01*
X0160465Y0276966D01*
X0160352Y0277187D01*
X0178908Y0256312D01*
X0178935Y0256244D01*
X0179223Y0255957D01*
X0179493Y0255653D01*
X0179559Y0255621D01*
X0179611Y0255569D01*
X0179986Y0255414D01*
X0180353Y0255236D01*
X0180425Y0255232D01*
X0180493Y0255204D01*
X0180900Y0255204D01*
X0181306Y0255180D01*
X0181375Y0255204D01*
X0226788Y0255204D01*
X0226867Y0255012D02*
X0170739Y0255012D01*
X0170614Y0254887D02*
X0170912Y0255184D01*
X0171122Y0255549D01*
X0171231Y0255956D01*
X0171231Y0259504D01*
X0167082Y0259504D01*
X0167082Y0260704D01*
X0171231Y0260704D01*
X0171231Y0264252D01*
X0171122Y0264659D01*
X0170912Y0265023D01*
X0170614Y0265321D01*
X0170249Y0265532D01*
X0169842Y0265641D01*
X0167082Y0265641D01*
X0167082Y0260704D01*
X0165882Y0260704D01*
X0165882Y0265641D01*
X0163122Y0265641D01*
X0162715Y0265532D01*
X0162350Y0265321D01*
X0162052Y0265023D01*
X0161841Y0264659D01*
X0161732Y0264252D01*
X0161732Y0260704D01*
X0165882Y0260704D01*
X0165882Y0259504D01*
X0167082Y0259504D01*
X0167082Y0254567D01*
X0169842Y0254567D01*
X0170249Y0254676D01*
X0170614Y0254887D01*
X0171231Y0256211D02*
X0178969Y0256211D01*
X0177932Y0257409D02*
X0171231Y0257409D01*
X0171231Y0258608D02*
X0176867Y0258608D01*
X0175801Y0259806D02*
X0167082Y0259806D01*
X0167082Y0258608D02*
X0165882Y0258608D01*
X0165882Y0259504D02*
X0165882Y0254567D01*
X0163122Y0254567D01*
X0162715Y0254676D01*
X0162350Y0254887D01*
X0162052Y0255184D01*
X0161841Y0255549D01*
X0161732Y0255956D01*
X0161732Y0259504D01*
X0165882Y0259504D01*
X0165882Y0259806D02*
X0160408Y0259806D01*
X0160408Y0258608D02*
X0161732Y0258608D01*
X0161732Y0257409D02*
X0160408Y0257409D01*
X0160408Y0256211D02*
X0161732Y0256211D01*
X0162224Y0255012D02*
X0159999Y0255012D01*
X0165882Y0255012D02*
X0167082Y0255012D01*
X0167082Y0256211D02*
X0165882Y0256211D01*
X0165882Y0257409D02*
X0167082Y0257409D01*
X0167082Y0261005D02*
X0165882Y0261005D01*
X0165882Y0262203D02*
X0167082Y0262203D01*
X0167082Y0263402D02*
X0165882Y0263402D01*
X0165882Y0264600D02*
X0167082Y0264600D01*
X0169409Y0266997D02*
X0148370Y0266997D01*
X0148370Y0268196D02*
X0168344Y0268196D01*
X0167279Y0269394D02*
X0148370Y0269394D01*
X0148370Y0270593D02*
X0154159Y0270593D01*
X0155695Y0270593D02*
X0156245Y0270593D01*
X0156245Y0270254D02*
X0156352Y0270254D01*
X0157106Y0270373D01*
X0157832Y0270609D01*
X0158512Y0270956D01*
X0159130Y0271405D01*
X0159669Y0271944D01*
X0160118Y0272562D01*
X0160465Y0273242D01*
X0160701Y0273968D01*
X0160820Y0274722D01*
X0160820Y0274829D01*
X0156245Y0274829D01*
X0156245Y0270254D01*
X0156245Y0271791D02*
X0155695Y0271791D01*
X0155695Y0272990D02*
X0156245Y0272990D01*
X0156245Y0274188D02*
X0155695Y0274188D01*
X0152424Y0271791D02*
X0149799Y0271791D01*
X0150560Y0272990D02*
X0151604Y0272990D01*
X0151205Y0274188D02*
X0151020Y0274188D01*
X0151020Y0275387D02*
X0151120Y0275387D01*
X0151352Y0276585D02*
X0150823Y0276585D01*
X0145970Y0275104D02*
X0145970Y0265104D01*
X0153470Y0257604D01*
X0153470Y0258116D01*
X0155458Y0260104D01*
X0160408Y0261005D02*
X0161732Y0261005D01*
X0161732Y0262203D02*
X0160408Y0262203D01*
X0160408Y0263402D02*
X0161732Y0263402D01*
X0161826Y0264600D02*
X0160408Y0264600D01*
X0159396Y0265799D02*
X0170475Y0265799D01*
X0171138Y0264600D02*
X0171540Y0264600D01*
X0171231Y0263402D02*
X0172605Y0263402D01*
X0173671Y0262203D02*
X0171231Y0262203D01*
X0171231Y0261005D02*
X0174736Y0261005D01*
X0177962Y0264600D02*
X0226595Y0264600D01*
X0224212Y0265799D02*
X0176897Y0265799D01*
X0175832Y0266997D02*
X0222910Y0266997D01*
X0221608Y0268196D02*
X0174766Y0268196D01*
X0173701Y0269394D02*
X0220724Y0269394D01*
X0220076Y0270593D02*
X0208972Y0270593D01*
X0208952Y0270574D02*
X0209250Y0270872D01*
X0209461Y0271236D01*
X0209570Y0271643D01*
X0209570Y0274829D01*
X0204995Y0274829D01*
X0204995Y0270254D01*
X0208181Y0270254D01*
X0208588Y0270363D01*
X0208952Y0270574D01*
X0209570Y0271791D02*
X0219427Y0271791D01*
X0218893Y0272990D02*
X0209570Y0272990D01*
X0209570Y0274188D02*
X0218693Y0274188D01*
X0218493Y0275387D02*
X0209570Y0275387D01*
X0209570Y0275379D02*
X0209570Y0278565D01*
X0209461Y0278972D01*
X0209250Y0279336D01*
X0208952Y0279634D01*
X0208588Y0279845D01*
X0208181Y0279954D01*
X0204995Y0279954D01*
X0204995Y0275379D01*
X0204445Y0275379D01*
X0204445Y0279954D01*
X0201259Y0279954D01*
X0200852Y0279845D01*
X0200488Y0279634D01*
X0200190Y0279336D01*
X0199979Y0278972D01*
X0199870Y0278565D01*
X0199870Y0275379D01*
X0204445Y0275379D01*
X0204445Y0274829D01*
X0199870Y0274829D01*
X0199870Y0271643D01*
X0199979Y0271236D01*
X0200190Y0270872D01*
X0200488Y0270574D01*
X0200852Y0270363D01*
X0201259Y0270254D01*
X0204445Y0270254D01*
X0204445Y0274829D01*
X0204995Y0274829D01*
X0204995Y0275379D01*
X0209570Y0275379D01*
X0209570Y0276585D02*
X0218293Y0276585D01*
X0218278Y0277784D02*
X0209570Y0277784D01*
X0209455Y0278982D02*
X0218478Y0278982D01*
X0218678Y0280181D02*
X0164113Y0280181D01*
X0165178Y0278982D02*
X0181457Y0278982D01*
X0181859Y0279385D02*
X0180439Y0277965D01*
X0179670Y0276108D01*
X0179670Y0274099D01*
X0180439Y0272243D01*
X0181859Y0270823D01*
X0183716Y0270054D01*
X0185725Y0270054D01*
X0187581Y0270823D01*
X0189001Y0272243D01*
X0189720Y0273979D01*
X0190439Y0272243D01*
X0191859Y0270823D01*
X0193716Y0270054D01*
X0195725Y0270054D01*
X0197581Y0270823D01*
X0199001Y0272243D01*
X0199770Y0274099D01*
X0199770Y0276108D01*
X0199001Y0277965D01*
X0197581Y0279385D01*
X0195725Y0280154D01*
X0193716Y0280154D01*
X0191859Y0279385D01*
X0190439Y0277965D01*
X0189720Y0276229D01*
X0189001Y0277965D01*
X0187581Y0279385D01*
X0185725Y0280154D01*
X0183716Y0280154D01*
X0181859Y0279385D01*
X0180364Y0277784D02*
X0166243Y0277784D01*
X0167309Y0276585D02*
X0179868Y0276585D01*
X0179670Y0275387D02*
X0168374Y0275387D01*
X0169439Y0274188D02*
X0179670Y0274188D01*
X0180130Y0272990D02*
X0170505Y0272990D01*
X0171570Y0271791D02*
X0180891Y0271791D01*
X0182415Y0270593D02*
X0172635Y0270593D01*
X0166213Y0270593D02*
X0157781Y0270593D01*
X0159516Y0271791D02*
X0165148Y0271791D01*
X0164083Y0272990D02*
X0160336Y0272990D01*
X0160735Y0274188D02*
X0163017Y0274188D01*
X0161952Y0275387D02*
X0160820Y0275387D01*
X0160887Y0276585D02*
X0160588Y0276585D01*
X0163047Y0281379D02*
X0218878Y0281379D01*
X0220675Y0284975D02*
X0063126Y0284975D01*
X0061936Y0286173D02*
X0221510Y0286173D01*
X0222812Y0287372D02*
X0048888Y0287372D01*
X0047175Y0288570D02*
X0224114Y0288570D01*
X0204995Y0278982D02*
X0204445Y0278982D01*
X0204445Y0277784D02*
X0204995Y0277784D01*
X0204995Y0276585D02*
X0204445Y0276585D01*
X0204445Y0275387D02*
X0204995Y0275387D01*
X0204995Y0274188D02*
X0204445Y0274188D01*
X0204445Y0272990D02*
X0204995Y0272990D01*
X0204995Y0271791D02*
X0204445Y0271791D01*
X0204445Y0270593D02*
X0204995Y0270593D01*
X0200468Y0270593D02*
X0197026Y0270593D01*
X0198549Y0271791D02*
X0199870Y0271791D01*
X0199870Y0272990D02*
X0199310Y0272990D01*
X0199770Y0274188D02*
X0199870Y0274188D01*
X0199870Y0275387D02*
X0199770Y0275387D01*
X0199870Y0276585D02*
X0199573Y0276585D01*
X0199870Y0277784D02*
X0199076Y0277784D01*
X0199985Y0278982D02*
X0197983Y0278982D01*
X0191457Y0278982D02*
X0187983Y0278982D01*
X0189076Y0277784D02*
X0190364Y0277784D01*
X0189868Y0276585D02*
X0189573Y0276585D01*
X0189310Y0272990D02*
X0190130Y0272990D01*
X0190891Y0271791D02*
X0188549Y0271791D01*
X0187026Y0270593D02*
X0192415Y0270593D01*
X0181158Y0261005D02*
X0228076Y0261005D01*
X0230281Y0262203D02*
X0180093Y0262203D01*
X0179028Y0263402D02*
X0231794Y0263402D01*
X0232565Y0262203D02*
X0244173Y0262203D01*
X0244173Y0261005D02*
X0234770Y0261005D01*
X0235814Y0259806D02*
X0244173Y0259806D01*
X0244173Y0258608D02*
X0236310Y0258608D01*
X0236473Y0257409D02*
X0244173Y0257409D01*
X0244173Y0256211D02*
X0236473Y0256211D01*
X0235978Y0255012D02*
X0244173Y0255012D01*
X0244173Y0253814D02*
X0235168Y0253814D01*
X0233526Y0252615D02*
X0244173Y0252615D01*
X0244173Y0251417D02*
X0234358Y0251417D01*
X0235557Y0250218D02*
X0244173Y0250218D01*
X0244173Y0249020D02*
X0236139Y0249020D01*
X0236473Y0247821D02*
X0244173Y0247821D01*
X0244173Y0246623D02*
X0236473Y0246623D01*
X0236149Y0245424D02*
X0244173Y0245424D01*
X0244173Y0244226D02*
X0235580Y0244226D01*
X0234381Y0243027D02*
X0244173Y0243027D01*
X0244173Y0241829D02*
X0233470Y0241829D01*
X0235145Y0240630D02*
X0244173Y0240630D01*
X0244173Y0239432D02*
X0235969Y0239432D01*
X0236465Y0238233D02*
X0244173Y0238233D01*
X0244173Y0237034D02*
X0236473Y0237034D01*
X0236320Y0235836D02*
X0244173Y0235836D01*
X0244173Y0234637D02*
X0235823Y0234637D01*
X0234793Y0233439D02*
X0244173Y0233439D01*
X0244173Y0232240D02*
X0232621Y0232240D01*
X0231698Y0231042D02*
X0231148Y0231042D01*
X0231148Y0229843D02*
X0231698Y0229843D01*
X0231698Y0228645D02*
X0231148Y0228645D01*
X0231148Y0227446D02*
X0222384Y0227446D01*
X0222905Y0228645D02*
X0226573Y0228645D01*
X0226573Y0229843D02*
X0224104Y0229843D01*
X0223470Y0232604D02*
X0219720Y0228854D01*
X0218470Y0227604D01*
X0218470Y0222604D01*
X0215970Y0220104D01*
X0164720Y0220104D01*
X0164720Y0192604D01*
X0183470Y0192604D01*
X0185065Y0191009D01*
X0193663Y0181009D01*
X0193561Y0184809D02*
X0187492Y0191867D01*
X0194353Y0191867D01*
X0195408Y0192921D01*
X0195408Y0202287D01*
X0194353Y0203341D01*
X0186563Y0203341D01*
X0185509Y0202287D01*
X0185509Y0200004D01*
X0174551Y0200004D01*
X0174551Y0200131D01*
X0173497Y0201185D01*
X0168443Y0201185D01*
X0167389Y0200131D01*
X0167389Y0195077D01*
X0167462Y0195004D01*
X0167120Y0195004D01*
X0167120Y0208200D01*
X0167920Y0207400D01*
X0167920Y0207400D01*
X0170029Y0206527D01*
X0242036Y0206527D01*
X0242453Y0206486D01*
X0243224Y0206166D01*
X0243813Y0205577D01*
X0244132Y0204807D01*
X0244173Y0204390D01*
X0244173Y0055978D01*
X0241676Y0059187D01*
X0237816Y0061709D01*
X0233347Y0062840D01*
X0228753Y0062460D01*
X0226643Y0061534D01*
X0227263Y0062155D01*
X0227382Y0062442D01*
X0227669Y0062561D01*
X0228513Y0063405D01*
X0228970Y0064507D01*
X0228970Y0113440D01*
X0232380Y0113540D01*
X0233543Y0112378D01*
X0235399Y0111609D01*
X0237408Y0111609D01*
X0239264Y0112378D01*
X0240684Y0113798D01*
X0241453Y0115655D01*
X0241453Y0117664D01*
X0240684Y0119520D01*
X0239264Y0120940D01*
X0237408Y0121709D01*
X0235399Y0121709D01*
X0233543Y0120940D01*
X0232138Y0119536D01*
X0228813Y0119438D01*
X0228813Y0120987D01*
X0227759Y0122042D01*
X0219181Y0122042D01*
X0218127Y0120987D01*
X0218127Y0113197D01*
X0219181Y0112143D01*
X0222970Y0112143D01*
X0222970Y0104292D01*
X0222289Y0104973D01*
X0220525Y0105704D01*
X0218615Y0105704D01*
X0216851Y0104973D01*
X0215501Y0103623D01*
X0214770Y0101859D01*
X0214770Y0093949D01*
X0215501Y0092185D01*
X0216851Y0090835D01*
X0218615Y0090104D01*
X0220525Y0090104D01*
X0222289Y0090835D01*
X0222970Y0091516D01*
X0222970Y0078692D01*
X0222289Y0079373D01*
X0220525Y0080104D01*
X0218615Y0080104D01*
X0216851Y0079373D01*
X0216373Y0078895D01*
X0213370Y0081898D01*
X0213370Y0106206D01*
X0213005Y0107088D01*
X0212330Y0107764D01*
X0211447Y0108129D01*
X0197993Y0108129D01*
X0197111Y0107764D01*
X0196435Y0107088D01*
X0196070Y0106206D01*
X0196070Y0092504D01*
X0191010Y0092504D01*
X0191333Y0093138D01*
X0191557Y0093827D01*
X0191670Y0094542D01*
X0191670Y0097504D01*
X0187470Y0097504D01*
X0187470Y0098304D01*
X0186670Y0098304D01*
X0186670Y0105498D01*
X0185993Y0105391D01*
X0185304Y0105167D01*
X0184659Y0104838D01*
X0184073Y0104413D01*
X0183561Y0103901D01*
X0183136Y0103315D01*
X0182807Y0102670D01*
X0182583Y0101981D01*
X0182470Y0101266D01*
X0182470Y0098304D01*
X0186670Y0098304D01*
X0186670Y0097504D01*
X0182470Y0097504D01*
X0182470Y0094542D01*
X0182478Y0094490D01*
X0177876Y0099092D01*
X0177782Y0099248D01*
X0177542Y0099427D01*
X0177330Y0099639D01*
X0177161Y0099708D01*
X0177015Y0099816D01*
X0176724Y0099889D01*
X0176447Y0100004D01*
X0176266Y0100004D01*
X0175924Y0100089D01*
X0175251Y0101715D01*
X0173831Y0103135D01*
X0171975Y0103904D01*
X0169966Y0103904D01*
X0169309Y0103632D01*
X0159413Y0112704D01*
X0176447Y0112704D01*
X0177330Y0113069D01*
X0178005Y0113744D01*
X0180505Y0116244D01*
X0180870Y0117127D01*
X0180870Y0135300D01*
X0182974Y0135300D01*
X0185841Y0136487D01*
X0188035Y0138682D01*
X0189223Y0141548D01*
X0189223Y0156652D01*
X0188035Y0159518D01*
X0185841Y0161713D01*
X0182974Y0162900D01*
X0179871Y0162900D01*
X0177004Y0161713D01*
X0174810Y0159518D01*
X0173623Y0156652D01*
X0173623Y0141548D01*
X0174810Y0138682D01*
X0176070Y0137422D01*
X0176070Y0118598D01*
X0174976Y0117504D01*
X0142517Y0117504D01*
X0144522Y0117635D01*
X0146573Y0117905D01*
X0148602Y0118309D01*
X0150601Y0118844D01*
X0152560Y0119510D01*
X0154471Y0120301D01*
X0156327Y0121216D01*
X0158119Y0122251D01*
X0159839Y0123400D01*
X0161480Y0124660D01*
X0163036Y0126024D01*
X0164499Y0127487D01*
X0165863Y0129042D01*
X0167123Y0130684D01*
X0168272Y0132404D01*
X0169306Y0134196D01*
X0170222Y0136051D01*
X0171013Y0137963D01*
X0171678Y0139922D01*
X0172214Y0141921D01*
X0172617Y0143950D01*
X0172888Y0146001D01*
X0173023Y0148066D01*
X0173023Y0148500D01*
X0142023Y0148500D01*
X0142023Y0149700D01*
X0173023Y0149700D01*
X0173023Y0150134D01*
X0172888Y0152199D01*
X0172617Y0154250D01*
X0172214Y0156279D01*
X0171678Y0158278D01*
X0171013Y0160237D01*
X0170222Y0162149D01*
X0169306Y0164004D01*
X0168272Y0165796D01*
X0167123Y0167516D01*
X0165863Y0169158D01*
X0164499Y0170713D01*
X0163036Y0172176D01*
X0161480Y0173540D01*
X0159839Y0174800D01*
X0158119Y0175949D01*
X0156327Y0176984D01*
X0154471Y0177899D01*
X0152560Y0178690D01*
X0151784Y0178954D01*
X0155629Y0178954D01*
X0155761Y0178916D01*
X0156103Y0178954D01*
X0156447Y0178954D01*
X0156574Y0179006D01*
X0156710Y0179021D01*
X0157011Y0179187D01*
X0157330Y0179319D01*
X0157426Y0179416D01*
X0157546Y0179482D01*
X0157761Y0179751D01*
X0158005Y0179994D01*
X0158057Y0180121D01*
X0162761Y0186001D01*
X0163005Y0186244D01*
X0163057Y0186371D01*
X0163142Y0186477D01*
X0163238Y0186808D01*
X0163370Y0187127D01*
X0163370Y0187263D01*
X0163408Y0187394D01*
X0163370Y0187737D01*
X0163370Y0190565D01*
X0164243Y0190204D01*
X0182476Y0190204D01*
X0183304Y0189376D01*
X0189613Y0182038D01*
X0189613Y0178264D01*
X0190663Y0177214D01*
X0190663Y0160367D01*
X0191120Y0159265D01*
X0211567Y0138817D01*
X0211567Y0136952D01*
X0212622Y0135898D01*
X0217675Y0135898D01*
X0218127Y0136350D01*
X0218127Y0134447D01*
X0219181Y0133393D01*
X0227759Y0133393D01*
X0228813Y0134447D01*
X0228813Y0135342D01*
X0234362Y0135342D01*
X0235465Y0135799D01*
X0235665Y0135999D01*
X0237477Y0135999D01*
X0239333Y0136768D01*
X0240753Y0138188D01*
X0241522Y0140044D01*
X0241522Y0142053D01*
X0240753Y0143909D01*
X0239333Y0145330D01*
X0237477Y0146099D01*
X0235468Y0146099D01*
X0233611Y0145330D01*
X0232191Y0143909D01*
X0231422Y0142053D01*
X0231422Y0141342D01*
X0228813Y0141342D01*
X0228813Y0142237D01*
X0227759Y0143292D01*
X0219181Y0143292D01*
X0218312Y0142423D01*
X0217675Y0143060D01*
X0215810Y0143060D01*
X0196663Y0162207D01*
X0196663Y0177214D01*
X0197613Y0178164D01*
X0197613Y0174764D01*
X0198667Y0173709D01*
X0204659Y0173709D01*
X0205713Y0174764D01*
X0205713Y0175109D01*
X0216353Y0175109D01*
X0217235Y0175475D01*
X0217330Y0175569D01*
X0218005Y0176244D01*
X0218370Y0177127D01*
X0218370Y0189315D01*
X0219292Y0189697D01*
X0220629Y0191034D01*
X0221353Y0192781D01*
X0221353Y0194671D01*
X0220629Y0196418D01*
X0219292Y0197755D01*
X0217545Y0198479D01*
X0215655Y0198479D01*
X0213908Y0197755D01*
X0212571Y0196418D01*
X0211847Y0194671D01*
X0211847Y0192781D01*
X0212571Y0191034D01*
X0213570Y0190034D01*
X0213570Y0179909D01*
X0205713Y0179909D01*
X0205713Y0180255D01*
X0204959Y0181009D01*
X0205713Y0181764D01*
X0205713Y0187255D01*
X0204659Y0188309D01*
X0204063Y0188309D01*
X0204063Y0191867D01*
X0205377Y0191867D01*
X0206431Y0192921D01*
X0206431Y0202287D01*
X0205377Y0203341D01*
X0197587Y0203341D01*
X0196532Y0202287D01*
X0196532Y0192921D01*
X0197587Y0191867D01*
X0199263Y0191867D01*
X0199263Y0188309D01*
X0198667Y0188309D01*
X0197613Y0187255D01*
X0197613Y0183855D01*
X0196659Y0184809D01*
X0193561Y0184809D01*
X0192968Y0185498D02*
X0197613Y0185498D01*
X0197613Y0184300D02*
X0197168Y0184300D01*
X0197613Y0186697D02*
X0191938Y0186697D01*
X0190907Y0187896D02*
X0198253Y0187896D01*
X0199263Y0189094D02*
X0189877Y0189094D01*
X0188846Y0190293D02*
X0199263Y0190293D01*
X0199263Y0191491D02*
X0187816Y0191491D01*
X0184577Y0187896D02*
X0163370Y0187896D01*
X0163370Y0189094D02*
X0183546Y0189094D01*
X0185607Y0186697D02*
X0163206Y0186697D01*
X0162359Y0185498D02*
X0177067Y0185498D01*
X0177279Y0185711D02*
X0174467Y0182899D01*
X0174467Y0178923D01*
X0177279Y0176111D01*
X0181256Y0176111D01*
X0184067Y0178923D01*
X0184067Y0182899D01*
X0181256Y0185711D01*
X0177279Y0185711D01*
X0175868Y0184300D02*
X0161400Y0184300D01*
X0160442Y0183101D02*
X0174670Y0183101D01*
X0174467Y0181903D02*
X0159483Y0181903D01*
X0158524Y0180704D02*
X0174467Y0180704D01*
X0174467Y0179506D02*
X0157565Y0179506D01*
X0155970Y0181354D02*
X0160970Y0187604D01*
X0160970Y0227604D01*
X0163470Y0230104D01*
X0168470Y0230104D01*
X0170970Y0232604D01*
X0174551Y0232240D02*
X0190509Y0232240D01*
X0190509Y0231042D02*
X0183640Y0231042D01*
X0180970Y0227604D02*
X0195458Y0227604D01*
X0200408Y0227446D02*
X0201532Y0227446D01*
X0201532Y0226248D02*
X0200408Y0226248D01*
X0200408Y0225049D02*
X0201532Y0225049D01*
X0201532Y0223851D02*
X0200408Y0223851D01*
X0200139Y0222652D02*
X0201801Y0222652D01*
X0201532Y0228645D02*
X0200408Y0228645D01*
X0200408Y0229843D02*
X0201532Y0229843D01*
X0201532Y0231042D02*
X0200408Y0231042D01*
X0200408Y0232240D02*
X0201532Y0232240D01*
X0203570Y0233439D02*
X0174551Y0233439D01*
X0174551Y0234637D02*
X0203042Y0234637D01*
X0201844Y0235836D02*
X0173846Y0235836D01*
X0174551Y0231042D02*
X0178300Y0231042D01*
X0177389Y0229843D02*
X0174317Y0229843D01*
X0177389Y0228645D02*
X0170405Y0228645D01*
X0164207Y0227446D02*
X0177389Y0227446D01*
X0177389Y0226248D02*
X0163370Y0226248D01*
X0163370Y0225049D02*
X0177417Y0225049D01*
X0184523Y0225049D02*
X0190509Y0225049D01*
X0190509Y0223851D02*
X0163370Y0223851D01*
X0163370Y0222652D02*
X0190778Y0222652D01*
X0206482Y0227604D02*
X0206482Y0229592D01*
X0205970Y0230104D01*
X0205970Y0235104D01*
X0195970Y0245104D01*
X0201070Y0245304D02*
X0205770Y0245304D01*
X0205770Y0250004D01*
X0203940Y0250004D01*
X0201070Y0247134D01*
X0201070Y0245304D01*
X0201070Y0245424D02*
X0201070Y0245424D01*
X0201070Y0244226D02*
X0201070Y0244226D01*
X0201070Y0243398D02*
X0201070Y0243398D01*
X0201070Y0246623D02*
X0201070Y0246623D01*
X0200465Y0247821D02*
X0201758Y0247821D01*
X0202956Y0249020D02*
X0199267Y0249020D01*
X0192673Y0249020D02*
X0153325Y0249020D01*
X0152476Y0250218D02*
X0227289Y0250218D01*
X0226706Y0249020D02*
X0208984Y0249020D01*
X0208000Y0250004D02*
X0206170Y0250004D01*
X0206170Y0245304D01*
X0205770Y0245304D01*
X0205770Y0244904D01*
X0206170Y0244904D01*
X0206170Y0245304D01*
X0210870Y0245304D01*
X0210870Y0247134D01*
X0208000Y0250004D01*
X0206170Y0249020D02*
X0205770Y0249020D01*
X0205770Y0247821D02*
X0206170Y0247821D01*
X0206170Y0246623D02*
X0205770Y0246623D01*
X0205770Y0245424D02*
X0206170Y0245424D01*
X0206170Y0244904D02*
X0210870Y0244904D01*
X0210870Y0243074D01*
X0208000Y0240204D01*
X0206170Y0240204D01*
X0206170Y0244904D01*
X0206170Y0244226D02*
X0205770Y0244226D01*
X0205770Y0243027D02*
X0206170Y0243027D01*
X0206170Y0241829D02*
X0205770Y0241829D01*
X0205770Y0240630D02*
X0206170Y0240630D01*
X0205037Y0239432D02*
X0215470Y0239432D01*
X0215470Y0240630D02*
X0208426Y0240630D01*
X0209624Y0241829D02*
X0215470Y0241829D01*
X0214889Y0243027D02*
X0210823Y0243027D01*
X0210870Y0244226D02*
X0214889Y0244226D01*
X0214889Y0245424D02*
X0210870Y0245424D01*
X0210870Y0246623D02*
X0214889Y0246623D01*
X0215079Y0247821D02*
X0210183Y0247821D01*
X0221861Y0247821D02*
X0226373Y0247821D01*
X0226373Y0246623D02*
X0222051Y0246623D01*
X0222051Y0245424D02*
X0226697Y0245424D01*
X0227266Y0244226D02*
X0222051Y0244226D01*
X0222051Y0243027D02*
X0228464Y0243027D01*
X0229376Y0241829D02*
X0221470Y0241829D01*
X0221470Y0240630D02*
X0227701Y0240630D01*
X0226877Y0239432D02*
X0221470Y0239432D01*
X0221470Y0238233D02*
X0226380Y0238233D01*
X0226373Y0237034D02*
X0221470Y0237034D01*
X0221470Y0235836D02*
X0226526Y0235836D01*
X0226817Y0232604D02*
X0223470Y0232604D01*
X0222110Y0234637D02*
X0221470Y0234637D01*
X0215470Y0234637D02*
X0208370Y0234637D01*
X0208370Y0233439D02*
X0215470Y0233439D01*
X0215470Y0232240D02*
X0211431Y0232240D01*
X0211431Y0231042D02*
X0215470Y0231042D01*
X0215470Y0229843D02*
X0211431Y0229843D01*
X0211431Y0228645D02*
X0215827Y0228645D01*
X0216070Y0227446D02*
X0211431Y0227446D01*
X0211431Y0226248D02*
X0216070Y0226248D01*
X0216070Y0225049D02*
X0211431Y0225049D01*
X0211431Y0223851D02*
X0216070Y0223851D01*
X0215124Y0222652D02*
X0211162Y0222652D01*
X0218317Y0219057D02*
X0243857Y0219057D01*
X0244132Y0219721D02*
X0244132Y0219721D01*
X0244173Y0220255D02*
X0219516Y0220255D01*
X0220591Y0221454D02*
X0244173Y0221454D01*
X0244173Y0222652D02*
X0235607Y0222652D01*
X0236273Y0223851D02*
X0244173Y0223851D01*
X0244173Y0225049D02*
X0236273Y0225049D01*
X0236273Y0226248D02*
X0244173Y0226248D01*
X0244173Y0227446D02*
X0231698Y0227446D01*
X0231148Y0226935D02*
X0231148Y0222360D01*
X0227962Y0222360D01*
X0227555Y0222469D01*
X0227190Y0222680D01*
X0226893Y0222978D01*
X0226682Y0223343D01*
X0226573Y0223750D01*
X0226573Y0226935D01*
X0231148Y0226935D01*
X0231148Y0226248D02*
X0231698Y0226248D01*
X0231698Y0225049D02*
X0231148Y0225049D01*
X0231148Y0223851D02*
X0231698Y0223851D01*
X0231698Y0222652D02*
X0231148Y0222652D01*
X0227238Y0222652D02*
X0220870Y0222652D01*
X0220870Y0223851D02*
X0226573Y0223851D01*
X0226573Y0225049D02*
X0220870Y0225049D01*
X0221268Y0226248D02*
X0226573Y0226248D01*
X0229217Y0232240D02*
X0230225Y0232240D01*
X0236173Y0231042D02*
X0244173Y0231042D01*
X0244173Y0229843D02*
X0236273Y0229843D01*
X0236273Y0228645D02*
X0244173Y0228645D01*
X0215470Y0235836D02*
X0208265Y0235836D01*
X0207434Y0237034D02*
X0215470Y0237034D01*
X0215470Y0238233D02*
X0206235Y0238233D01*
X0200645Y0237034D02*
X0160870Y0237034D01*
X0160870Y0235836D02*
X0168094Y0235836D01*
X0167389Y0234637D02*
X0160870Y0234637D01*
X0160870Y0233439D02*
X0167389Y0233439D01*
X0162357Y0232240D02*
X0160870Y0232240D01*
X0160870Y0231042D02*
X0161014Y0231042D01*
X0155970Y0235104D02*
X0155970Y0190104D01*
X0153470Y0186354D01*
X0124720Y0186354D01*
X0113470Y0175104D01*
X0093470Y0175104D01*
X0090970Y0172604D01*
X0073470Y0172604D01*
X0069720Y0175104D01*
X0074720Y0177604D02*
X0110970Y0177604D01*
X0122220Y0188854D01*
X0150970Y0188854D01*
X0153470Y0192604D01*
X0153470Y0232604D01*
X0132220Y0262604D01*
X0113470Y0262604D01*
X0105970Y0270104D01*
X0105970Y0275104D01*
X0115970Y0275104D02*
X0115970Y0270104D01*
X0120970Y0265104D01*
X0134720Y0265104D01*
X0155970Y0235104D01*
X0158470Y0237604D02*
X0158470Y0188854D01*
X0154720Y0183854D01*
X0127220Y0183854D01*
X0115970Y0172604D01*
X0095970Y0172604D01*
X0093470Y0170104D01*
X0063470Y0170104D01*
X0060970Y0172604D01*
X0049730Y0172604D01*
X0044277Y0178057D01*
X0048867Y0183101D02*
X0055920Y0183101D01*
X0055920Y0181903D02*
X0050065Y0181903D01*
X0051264Y0180704D02*
X0056291Y0180704D01*
X0056207Y0184300D02*
X0047668Y0184300D01*
X0048224Y0185498D02*
X0056723Y0185498D01*
X0057921Y0186697D02*
X0048877Y0186697D01*
X0048877Y0188457D02*
X0044677Y0188457D01*
X0044677Y0192657D01*
X0046183Y0192657D01*
X0048877Y0189962D01*
X0048877Y0188457D01*
X0048877Y0189094D02*
X0057338Y0189094D01*
X0056461Y0190293D02*
X0048547Y0190293D01*
X0047348Y0191491D02*
X0055965Y0191491D01*
X0055920Y0192690D02*
X0036432Y0192690D01*
X0036897Y0193888D02*
X0041658Y0193888D01*
X0040459Y0195087D02*
X0038095Y0195087D01*
X0039077Y0196285D02*
X0039477Y0196285D01*
X0039477Y0197484D02*
X0039077Y0197484D01*
X0039077Y0198682D02*
X0039477Y0198682D01*
X0038470Y0202250D02*
X0034277Y0198057D01*
X0030511Y0201079D02*
X0027301Y0201079D01*
X0027301Y0199881D02*
X0029477Y0199881D01*
X0029477Y0198682D02*
X0027301Y0198682D01*
X0027301Y0197484D02*
X0029477Y0197484D01*
X0029477Y0196285D02*
X0027301Y0196285D01*
X0027301Y0195087D02*
X0030459Y0195087D01*
X0031658Y0193888D02*
X0027301Y0193888D01*
X0027301Y0192690D02*
X0032122Y0192690D01*
X0030923Y0191491D02*
X0027301Y0191491D01*
X0027301Y0190293D02*
X0029725Y0190293D01*
X0029477Y0189094D02*
X0027301Y0189094D01*
X0027301Y0187896D02*
X0029477Y0187896D01*
X0029477Y0186697D02*
X0027301Y0186697D01*
X0027301Y0185498D02*
X0030047Y0185498D01*
X0031246Y0184300D02*
X0027301Y0184300D01*
X0038507Y0185498D02*
X0040330Y0185498D01*
X0039677Y0186697D02*
X0039077Y0186697D01*
X0039077Y0187896D02*
X0043877Y0187896D01*
X0044677Y0187896D02*
X0059141Y0187896D01*
X0056036Y0193888D02*
X0046897Y0193888D01*
X0048095Y0195087D02*
X0056532Y0195087D01*
X0057509Y0196285D02*
X0049077Y0196285D01*
X0049077Y0197484D02*
X0059554Y0197484D01*
X0060695Y0198682D02*
X0061245Y0198682D01*
X0061245Y0199881D02*
X0060695Y0199881D01*
X0060695Y0201079D02*
X0061245Y0201079D01*
X0061245Y0202278D02*
X0060695Y0202278D01*
X0056120Y0202278D02*
X0055870Y0202278D01*
X0055870Y0203476D02*
X0056120Y0203476D01*
X0056120Y0204675D02*
X0055870Y0204675D01*
X0055870Y0201079D02*
X0056120Y0201079D01*
X0056120Y0199881D02*
X0055870Y0199881D01*
X0056260Y0198682D02*
X0055442Y0198682D01*
X0053470Y0200104D02*
X0046324Y0200104D01*
X0044277Y0198057D01*
X0043877Y0191491D02*
X0044677Y0191491D01*
X0044677Y0190293D02*
X0043877Y0190293D01*
X0043877Y0189094D02*
X0044677Y0189094D01*
X0041206Y0191491D02*
X0037631Y0191491D01*
X0038830Y0190293D02*
X0040008Y0190293D01*
X0039677Y0189094D02*
X0039077Y0189094D01*
X0053470Y0200104D02*
X0053470Y0207604D01*
X0065970Y0207604D01*
X0065970Y0197604D01*
X0068470Y0195104D01*
X0063570Y0197484D02*
X0062386Y0197484D01*
X0071595Y0202604D02*
X0073470Y0200104D01*
X0078470Y0200104D01*
X0082051Y0199881D02*
X0115195Y0199881D01*
X0116589Y0201079D02*
X0129620Y0201079D01*
X0129620Y0202278D02*
X0124038Y0202278D01*
X0124620Y0203476D02*
X0129620Y0203476D01*
X0129620Y0204675D02*
X0124620Y0204675D01*
X0124620Y0205873D02*
X0129620Y0205873D01*
X0129620Y0207072D02*
X0124620Y0207072D01*
X0124954Y0208270D02*
X0129486Y0208270D01*
X0128213Y0209469D02*
X0126227Y0209469D01*
X0126884Y0210667D02*
X0127556Y0210667D01*
X0127441Y0214263D02*
X0126999Y0214263D01*
X0126503Y0215461D02*
X0127938Y0215461D01*
X0141945Y0215461D02*
X0142495Y0215461D01*
X0142495Y0214263D02*
X0141945Y0214263D01*
X0141945Y0213064D02*
X0142495Y0213064D01*
X0142495Y0211866D02*
X0141945Y0211866D01*
X0141945Y0210667D02*
X0142495Y0210667D01*
X0142495Y0209469D02*
X0141945Y0209469D01*
X0141945Y0208270D02*
X0142495Y0208270D01*
X0142495Y0216660D02*
X0141945Y0216660D01*
X0117958Y0227604D02*
X0117958Y0239592D01*
X0120970Y0245104D01*
X0120458Y0242092D01*
X0120605Y0239432D02*
X0137701Y0239432D01*
X0136902Y0240630D02*
X0133426Y0240630D01*
X0134624Y0241829D02*
X0136103Y0241829D01*
X0138500Y0238233D02*
X0120358Y0238233D01*
X0120358Y0237034D02*
X0139299Y0237034D01*
X0140098Y0235836D02*
X0120358Y0235836D01*
X0120358Y0234637D02*
X0140897Y0234637D01*
X0131170Y0240630D02*
X0130770Y0240630D01*
X0130770Y0241829D02*
X0131170Y0241829D01*
X0131170Y0243027D02*
X0130770Y0243027D01*
X0130770Y0244226D02*
X0131170Y0244226D01*
X0128514Y0240630D02*
X0123709Y0240630D01*
X0124907Y0241829D02*
X0127316Y0241829D01*
X0126117Y0243027D02*
X0126070Y0243027D01*
X0126070Y0244226D02*
X0126070Y0244226D01*
X0126070Y0245424D02*
X0126070Y0245424D01*
X0126070Y0246623D02*
X0126070Y0246623D01*
X0125465Y0247821D02*
X0126758Y0247821D01*
X0127956Y0249020D02*
X0124267Y0249020D01*
X0128912Y0252615D02*
X0100870Y0252615D01*
X0100870Y0253814D02*
X0128112Y0253814D01*
X0127313Y0255012D02*
X0100870Y0255012D01*
X0100609Y0256211D02*
X0101469Y0256211D01*
X0101435Y0256244D02*
X0101435Y0256244D01*
X0100271Y0257409D02*
X0099559Y0257409D01*
X0099072Y0258608D02*
X0098360Y0258608D01*
X0097874Y0259806D02*
X0097162Y0259806D01*
X0093470Y0260104D02*
X0098470Y0255104D01*
X0098470Y0251174D01*
X0102392Y0247252D01*
X0100970Y0247252D01*
X0097049Y0243027D02*
X0082135Y0243027D01*
X0083554Y0244226D02*
X0095630Y0244226D01*
X0094954Y0245424D02*
X0084230Y0245424D01*
X0084592Y0246623D02*
X0094592Y0246623D01*
X0094592Y0247821D02*
X0084592Y0247821D01*
X0084255Y0249020D02*
X0094929Y0249020D01*
X0095570Y0250218D02*
X0083614Y0250218D01*
X0082281Y0251417D02*
X0096070Y0251417D01*
X0095168Y0255012D02*
X0047738Y0255012D01*
X0048877Y0256211D02*
X0093969Y0256211D01*
X0092771Y0257409D02*
X0048877Y0257409D01*
X0048877Y0258608D02*
X0064072Y0258608D01*
X0062874Y0259806D02*
X0048877Y0259806D01*
X0047835Y0261005D02*
X0061881Y0261005D01*
X0061304Y0262203D02*
X0046636Y0262203D01*
X0059139Y0272210D02*
X0064061Y0262013D01*
X0065970Y0260104D01*
X0093470Y0260104D01*
X0091778Y0263402D02*
X0066066Y0263402D01*
X0065477Y0264600D02*
X0090580Y0264600D01*
X0089381Y0265799D02*
X0064899Y0265799D01*
X0064320Y0266997D02*
X0088183Y0266997D01*
X0086984Y0268196D02*
X0064170Y0268196D01*
X0064189Y0269394D02*
X0085786Y0269394D01*
X0081436Y0270593D02*
X0064189Y0270593D01*
X0064189Y0271791D02*
X0080920Y0271791D01*
X0080920Y0272990D02*
X0064189Y0272990D01*
X0064189Y0274188D02*
X0080920Y0274188D01*
X0080920Y0275387D02*
X0064189Y0275387D01*
X0063810Y0276585D02*
X0068381Y0276585D01*
X0073559Y0276585D02*
X0080920Y0276585D01*
X0107881Y0251417D02*
X0129711Y0251417D01*
X0130510Y0250218D02*
X0109214Y0250218D01*
X0109855Y0249020D02*
X0117673Y0249020D01*
X0116475Y0247821D02*
X0110192Y0247821D01*
X0110192Y0246623D02*
X0115870Y0246623D01*
X0115870Y0245424D02*
X0109830Y0245424D01*
X0109154Y0244226D02*
X0115870Y0244226D01*
X0115870Y0243027D02*
X0107735Y0243027D01*
X0115790Y0240630D02*
X0060870Y0240630D01*
X0060870Y0239432D02*
X0115527Y0239432D01*
X0115558Y0238233D02*
X0061235Y0238233D01*
X0062434Y0237034D02*
X0115558Y0237034D01*
X0115558Y0235836D02*
X0063632Y0235836D01*
X0064831Y0234637D02*
X0115558Y0234637D01*
X0115558Y0233439D02*
X0107700Y0233439D01*
X0107803Y0233386D02*
X0107158Y0233715D01*
X0106469Y0233939D01*
X0105754Y0234052D01*
X0102792Y0234052D01*
X0102792Y0229852D01*
X0101992Y0229852D01*
X0101992Y0229052D01*
X0094798Y0229052D01*
X0094905Y0228375D01*
X0095129Y0227686D01*
X0095458Y0227041D01*
X0095883Y0226455D01*
X0096395Y0225943D01*
X0096981Y0225518D01*
X0097626Y0225189D01*
X0098315Y0224965D01*
X0099030Y0224852D01*
X0101992Y0224852D01*
X0101992Y0229052D01*
X0102792Y0229052D01*
X0102792Y0224852D01*
X0105754Y0224852D01*
X0106469Y0224965D01*
X0107158Y0225189D01*
X0107803Y0225518D01*
X0108389Y0225943D01*
X0108901Y0226455D01*
X0109326Y0227041D01*
X0109655Y0227686D01*
X0109879Y0228375D01*
X0109986Y0229052D01*
X0102792Y0229052D01*
X0102792Y0229852D01*
X0109986Y0229852D01*
X0109879Y0230529D01*
X0109655Y0231218D01*
X0109326Y0231863D01*
X0108901Y0232449D01*
X0108389Y0232961D01*
X0107803Y0233386D01*
X0109052Y0232240D02*
X0113009Y0232240D01*
X0113009Y0231042D02*
X0109712Y0231042D01*
X0109922Y0228645D02*
X0113009Y0228645D01*
X0113009Y0229843D02*
X0102792Y0229843D01*
X0101992Y0229852D02*
X0101992Y0234052D01*
X0099030Y0234052D01*
X0098315Y0233939D01*
X0097626Y0233715D01*
X0096981Y0233386D01*
X0096395Y0232961D01*
X0095883Y0232449D01*
X0095458Y0231863D01*
X0095129Y0231218D01*
X0094905Y0230529D01*
X0094798Y0229852D01*
X0101992Y0229852D01*
X0101992Y0229843D02*
X0084592Y0229843D01*
X0084592Y0228645D02*
X0094863Y0228645D01*
X0095251Y0227446D02*
X0084157Y0227446D01*
X0083376Y0226248D02*
X0096091Y0226248D01*
X0098056Y0225049D02*
X0081706Y0225049D01*
X0081867Y0223851D02*
X0113009Y0223851D01*
X0113009Y0225049D02*
X0106728Y0225049D01*
X0108693Y0226248D02*
X0113009Y0226248D01*
X0113009Y0227446D02*
X0109533Y0227446D01*
X0102792Y0227446D02*
X0101992Y0227446D01*
X0101992Y0226248D02*
X0102792Y0226248D01*
X0102792Y0225049D02*
X0101992Y0225049D01*
X0101992Y0228645D02*
X0102792Y0228645D01*
X0102792Y0231042D02*
X0101992Y0231042D01*
X0101992Y0232240D02*
X0102792Y0232240D01*
X0102792Y0233439D02*
X0101992Y0233439D01*
X0097085Y0233439D02*
X0082593Y0233439D01*
X0083792Y0232240D02*
X0095732Y0232240D01*
X0095072Y0231042D02*
X0084329Y0231042D01*
X0083066Y0222652D02*
X0108661Y0222652D01*
X0108639Y0221454D02*
X0084264Y0221454D01*
X0085463Y0220255D02*
X0108639Y0220255D01*
X0108639Y0219057D02*
X0086661Y0219057D01*
X0087860Y0217858D02*
X0108639Y0217858D01*
X0109134Y0216660D02*
X0105306Y0216660D01*
X0106503Y0215461D02*
X0107938Y0215461D01*
X0107441Y0214263D02*
X0106999Y0214263D01*
X0102220Y0212604D02*
X0102220Y0207604D01*
X0089720Y0207604D01*
X0077220Y0220104D01*
X0070970Y0220104D01*
X0053470Y0237604D01*
X0043470Y0237604D01*
X0044277Y0238057D01*
X0040908Y0234637D02*
X0037646Y0234637D01*
X0038845Y0235836D02*
X0039710Y0235836D01*
X0039477Y0237034D02*
X0039077Y0237034D01*
X0039077Y0238233D02*
X0039477Y0238233D01*
X0039477Y0239432D02*
X0039077Y0239432D01*
X0038492Y0240630D02*
X0040062Y0240630D01*
X0041261Y0241829D02*
X0037294Y0241829D01*
X0044277Y0248057D02*
X0055970Y0247604D01*
X0058470Y0245104D01*
X0058470Y0237604D01*
X0073470Y0222604D01*
X0079720Y0222604D01*
X0089720Y0212604D01*
X0092220Y0212604D01*
X0096999Y0214263D02*
X0097441Y0214263D01*
X0097938Y0215461D02*
X0096503Y0215461D01*
X0095306Y0216660D02*
X0099134Y0216660D01*
X0089134Y0216660D02*
X0089058Y0216660D01*
X0088470Y0205104D02*
X0075970Y0217604D01*
X0068470Y0217604D01*
X0058470Y0227604D01*
X0043470Y0227604D01*
X0044277Y0228057D01*
X0048058Y0225049D02*
X0057631Y0225049D01*
X0058829Y0223851D02*
X0046860Y0223851D01*
X0046470Y0222652D02*
X0060028Y0222652D01*
X0061226Y0221454D02*
X0047668Y0221454D01*
X0052841Y0220255D02*
X0062425Y0220255D01*
X0063417Y0214263D02*
X0047271Y0214263D01*
X0048470Y0215461D02*
X0052533Y0215461D01*
X0049338Y0211866D02*
X0047256Y0211866D01*
X0048455Y0210667D02*
X0048606Y0210667D01*
X0050970Y0210104D02*
X0066595Y0210104D01*
X0071595Y0205104D01*
X0071595Y0202604D01*
X0073995Y0203476D02*
X0075735Y0203476D01*
X0073995Y0204675D02*
X0080505Y0204675D01*
X0081206Y0203476D02*
X0081704Y0203476D01*
X0082051Y0202278D02*
X0082902Y0202278D01*
X0082051Y0201079D02*
X0084101Y0201079D01*
X0082051Y0198682D02*
X0090940Y0198682D01*
X0088470Y0205104D02*
X0112220Y0205104D01*
X0112220Y0212604D01*
X0112220Y0220104D01*
X0079307Y0205873D02*
X0073874Y0205873D01*
X0073021Y0207072D02*
X0078108Y0207072D01*
X0076910Y0208270D02*
X0071823Y0208270D01*
X0070624Y0209469D02*
X0075711Y0209469D01*
X0074513Y0210667D02*
X0069426Y0210667D01*
X0068227Y0211866D02*
X0073314Y0211866D01*
X0064623Y0213064D02*
X0027301Y0213064D01*
X0027301Y0211866D02*
X0031581Y0211866D01*
X0030382Y0210667D02*
X0027301Y0210667D01*
X0027301Y0209469D02*
X0029677Y0209469D01*
X0029677Y0207072D02*
X0027301Y0207072D01*
X0027301Y0208270D02*
X0033877Y0208270D01*
X0034677Y0208270D02*
X0039477Y0208270D01*
X0038877Y0208457D02*
X0034677Y0208457D01*
X0034677Y0212657D01*
X0036183Y0212657D01*
X0038877Y0209962D01*
X0038877Y0208457D01*
X0038877Y0209469D02*
X0039477Y0209469D01*
X0040099Y0210667D02*
X0038172Y0210667D01*
X0036973Y0211866D02*
X0041298Y0211866D01*
X0041283Y0214263D02*
X0037271Y0214263D01*
X0038470Y0215461D02*
X0040084Y0215461D01*
X0039477Y0216660D02*
X0039077Y0216660D01*
X0039077Y0217858D02*
X0039477Y0217858D01*
X0039477Y0219057D02*
X0039077Y0219057D01*
X0038867Y0220255D02*
X0039688Y0220255D01*
X0032085Y0222652D02*
X0027301Y0222652D01*
X0027301Y0221454D02*
X0030886Y0221454D01*
X0029688Y0220255D02*
X0027301Y0220255D01*
X0027301Y0219057D02*
X0029477Y0219057D01*
X0029477Y0217858D02*
X0027301Y0217858D01*
X0027301Y0216660D02*
X0029477Y0216660D01*
X0030084Y0215461D02*
X0027301Y0215461D01*
X0027301Y0214263D02*
X0031283Y0214263D01*
X0033877Y0211866D02*
X0034677Y0211866D01*
X0034677Y0210667D02*
X0033877Y0210667D01*
X0033877Y0209469D02*
X0034677Y0209469D01*
X0034677Y0207072D02*
X0033877Y0207072D01*
X0033877Y0205873D02*
X0034677Y0205873D01*
X0034677Y0204675D02*
X0033877Y0204675D01*
X0033877Y0203476D02*
X0034677Y0203476D01*
X0036202Y0203476D02*
X0036234Y0203476D01*
X0038470Y0202604D02*
X0050970Y0202604D01*
X0050970Y0210104D01*
X0039477Y0207072D02*
X0038877Y0207072D01*
X0038599Y0205873D02*
X0039672Y0205873D01*
X0038470Y0202604D02*
X0038470Y0202250D01*
X0032352Y0203476D02*
X0027301Y0203476D01*
X0027301Y0202278D02*
X0031710Y0202278D01*
X0031154Y0204675D02*
X0027301Y0204675D01*
X0027301Y0205873D02*
X0029955Y0205873D01*
X0048080Y0231042D02*
X0056638Y0231042D01*
X0055439Y0232240D02*
X0046882Y0232240D01*
X0046448Y0233439D02*
X0054241Y0233439D01*
X0053042Y0234637D02*
X0047646Y0234637D01*
X0048492Y0240630D02*
X0056070Y0240630D01*
X0056070Y0239432D02*
X0055037Y0239432D01*
X0056070Y0241829D02*
X0047294Y0241829D01*
X0059147Y0247821D02*
X0068992Y0247821D01*
X0068992Y0246623D02*
X0060346Y0246623D01*
X0060870Y0245424D02*
X0069354Y0245424D01*
X0070030Y0244226D02*
X0060870Y0244226D01*
X0060870Y0243027D02*
X0071449Y0243027D01*
X0069329Y0249020D02*
X0057949Y0249020D01*
X0060870Y0241829D02*
X0116445Y0241829D01*
X0145685Y0259806D02*
X0147874Y0259806D01*
X0149072Y0258608D02*
X0146533Y0258608D01*
X0147382Y0257409D02*
X0150271Y0257409D01*
X0150509Y0256211D02*
X0148231Y0256211D01*
X0149080Y0255012D02*
X0150918Y0255012D01*
X0149929Y0253814D02*
X0227678Y0253814D01*
X0229320Y0252615D02*
X0150778Y0252615D01*
X0151627Y0251417D02*
X0228487Y0251417D01*
X0233855Y0263402D02*
X0244173Y0263402D01*
X0244173Y0264600D02*
X0238115Y0264600D01*
X0239950Y0265799D02*
X0244173Y0265799D01*
X0244173Y0266997D02*
X0241731Y0266997D01*
X0242664Y0268196D02*
X0244173Y0268196D01*
X0244173Y0269394D02*
X0243597Y0269394D01*
X0198248Y0239432D02*
X0160117Y0239432D01*
X0160807Y0238233D02*
X0199447Y0238233D01*
X0193232Y0240630D02*
X0159268Y0240630D01*
X0158419Y0241829D02*
X0192033Y0241829D01*
X0190870Y0243027D02*
X0157570Y0243027D01*
X0156721Y0244226D02*
X0190870Y0244226D01*
X0190870Y0245424D02*
X0155872Y0245424D01*
X0155023Y0246623D02*
X0190870Y0246623D01*
X0191475Y0247821D02*
X0154174Y0247821D01*
X0158470Y0237604D02*
X0137220Y0267604D01*
X0128470Y0267604D01*
X0125970Y0270104D01*
X0125970Y0275104D01*
X0130560Y0272990D02*
X0131380Y0272990D01*
X0132141Y0271791D02*
X0129799Y0271791D01*
X0128875Y0270593D02*
X0133665Y0270593D01*
X0138276Y0270593D02*
X0143570Y0270593D01*
X0143570Y0269394D02*
X0138881Y0269394D01*
X0139742Y0268196D02*
X0143570Y0268196D01*
X0143570Y0266997D02*
X0140591Y0266997D01*
X0141440Y0265799D02*
X0143570Y0265799D01*
X0143581Y0264600D02*
X0142289Y0264600D01*
X0143138Y0263402D02*
X0144278Y0263402D01*
X0143987Y0262203D02*
X0145477Y0262203D01*
X0144836Y0261005D02*
X0146675Y0261005D01*
X0149868Y0264600D02*
X0150509Y0264600D01*
X0151521Y0265799D02*
X0148669Y0265799D01*
X0142141Y0271791D02*
X0139799Y0271791D01*
X0140560Y0272990D02*
X0141380Y0272990D01*
X0070991Y0233439D02*
X0066029Y0233439D01*
X0067228Y0232240D02*
X0069792Y0232240D01*
X0069255Y0231042D02*
X0068426Y0231042D01*
X0128470Y0181354D02*
X0155970Y0181354D01*
X0153485Y0178307D02*
X0175083Y0178307D01*
X0176281Y0177109D02*
X0156073Y0177109D01*
X0158177Y0175910D02*
X0190663Y0175910D01*
X0190663Y0174712D02*
X0181972Y0174712D01*
X0181173Y0175511D02*
X0179667Y0175511D01*
X0179667Y0171311D01*
X0178867Y0171311D01*
X0178867Y0170511D01*
X0174667Y0170511D01*
X0174667Y0169006D01*
X0177362Y0166311D01*
X0178867Y0166311D01*
X0178867Y0170511D01*
X0179667Y0170511D01*
X0179667Y0166311D01*
X0181173Y0166311D01*
X0183867Y0169006D01*
X0183867Y0170511D01*
X0179667Y0170511D01*
X0179667Y0171311D01*
X0183867Y0171311D01*
X0183867Y0172816D01*
X0181173Y0175511D01*
X0179667Y0174712D02*
X0178867Y0174712D01*
X0178867Y0175511D02*
X0177362Y0175511D01*
X0174667Y0172816D01*
X0174667Y0171311D01*
X0178867Y0171311D01*
X0178867Y0175511D01*
X0178867Y0173513D02*
X0179667Y0173513D01*
X0179667Y0172315D02*
X0178867Y0172315D01*
X0178867Y0171116D02*
X0164096Y0171116D01*
X0165196Y0169918D02*
X0174667Y0169918D01*
X0174954Y0168719D02*
X0166199Y0168719D01*
X0167119Y0167521D02*
X0176152Y0167521D01*
X0177351Y0166322D02*
X0167920Y0166322D01*
X0168660Y0165124D02*
X0190663Y0165124D01*
X0190663Y0166322D02*
X0181184Y0166322D01*
X0179667Y0166322D02*
X0178867Y0166322D01*
X0178867Y0167521D02*
X0179667Y0167521D01*
X0179667Y0168719D02*
X0178867Y0168719D01*
X0178867Y0169918D02*
X0179667Y0169918D01*
X0179667Y0171116D02*
X0190663Y0171116D01*
X0190663Y0169918D02*
X0183867Y0169918D01*
X0183581Y0168719D02*
X0190663Y0168719D01*
X0190663Y0167521D02*
X0182383Y0167521D01*
X0183393Y0162727D02*
X0190663Y0162727D01*
X0190663Y0163925D02*
X0169345Y0163925D01*
X0169936Y0162727D02*
X0179453Y0162727D01*
X0176820Y0161528D02*
X0170478Y0161528D01*
X0170975Y0160330D02*
X0175622Y0160330D01*
X0174650Y0159131D02*
X0171389Y0159131D01*
X0171771Y0157933D02*
X0174154Y0157933D01*
X0173657Y0156734D02*
X0172092Y0156734D01*
X0172362Y0155536D02*
X0173623Y0155536D01*
X0173623Y0154337D02*
X0172600Y0154337D01*
X0172764Y0153139D02*
X0173623Y0153139D01*
X0173623Y0151940D02*
X0172904Y0151940D01*
X0172983Y0150742D02*
X0173623Y0150742D01*
X0173623Y0149543D02*
X0142023Y0149543D01*
X0140823Y0149543D02*
X0109223Y0149543D01*
X0109823Y0149700D02*
X0140823Y0149700D01*
X0140823Y0148500D01*
X0109823Y0148500D01*
X0109823Y0148066D01*
X0109958Y0146001D01*
X0110228Y0143950D01*
X0110632Y0141921D01*
X0111167Y0139922D01*
X0111832Y0137963D01*
X0112624Y0136051D01*
X0113539Y0134196D01*
X0114574Y0132404D01*
X0115723Y0130684D01*
X0116983Y0129042D01*
X0118347Y0127487D01*
X0119810Y0126024D01*
X0121365Y0124660D01*
X0123007Y0123400D01*
X0124727Y0122251D01*
X0126519Y0121216D01*
X0128374Y0120301D01*
X0130286Y0119510D01*
X0132245Y0118844D01*
X0134243Y0118309D01*
X0136273Y0117905D01*
X0138324Y0117635D01*
X0140329Y0117504D01*
X0104726Y0117504D01*
X0103823Y0118807D01*
X0103823Y0135651D01*
X0105841Y0136487D01*
X0108035Y0138682D01*
X0109223Y0141548D01*
X0109223Y0156652D01*
X0108035Y0159518D01*
X0105841Y0161713D01*
X0103448Y0162704D01*
X0112697Y0162704D01*
X0112950Y0162808D01*
X0112624Y0162149D01*
X0111832Y0160237D01*
X0111167Y0158278D01*
X0110632Y0156279D01*
X0110228Y0154250D01*
X0109958Y0152199D01*
X0109823Y0150134D01*
X0109823Y0149700D01*
X0109863Y0150742D02*
X0109223Y0150742D01*
X0109223Y0151940D02*
X0109941Y0151940D01*
X0110082Y0153139D02*
X0109223Y0153139D01*
X0109223Y0154337D02*
X0110245Y0154337D01*
X0110484Y0155536D02*
X0109223Y0155536D01*
X0109189Y0156734D02*
X0110754Y0156734D01*
X0111075Y0157933D02*
X0108692Y0157933D01*
X0108196Y0159131D02*
X0111457Y0159131D01*
X0111871Y0160330D02*
X0107224Y0160330D01*
X0106025Y0161528D02*
X0112367Y0161528D01*
X0112753Y0162727D02*
X0112909Y0162727D01*
X0112220Y0165104D02*
X0128470Y0181354D01*
X0112220Y0165104D02*
X0079720Y0165104D01*
X0078470Y0163854D01*
X0078470Y0152604D01*
X0079720Y0151354D01*
X0079720Y0142604D01*
X0074720Y0137604D01*
X0074720Y0125104D01*
X0074320Y0121523D02*
X0077247Y0121523D01*
X0078301Y0122577D01*
X0078301Y0127631D01*
X0077247Y0128685D01*
X0077120Y0128685D01*
X0077120Y0136610D01*
X0081080Y0140569D01*
X0081755Y0141244D01*
X0082120Y0142127D01*
X0082120Y0151810D01*
X0086070Y0147860D01*
X0086070Y0113377D01*
X0086435Y0112494D01*
X0087111Y0111819D01*
X0088926Y0110004D01*
X0077120Y0110004D01*
X0077120Y0116081D01*
X0077166Y0116279D01*
X0077120Y0116553D01*
X0077120Y0116831D01*
X0077042Y0117020D01*
X0077008Y0117221D01*
X0076861Y0117457D01*
X0076755Y0117713D01*
X0076610Y0117858D01*
X0074320Y0121523D01*
X0074785Y0120779D02*
X0086070Y0120779D01*
X0086070Y0121977D02*
X0077701Y0121977D01*
X0078301Y0123176D02*
X0086070Y0123176D01*
X0086070Y0124374D02*
X0078301Y0124374D01*
X0078301Y0125573D02*
X0086070Y0125573D01*
X0086070Y0126771D02*
X0078301Y0126771D01*
X0077962Y0127970D02*
X0086070Y0127970D01*
X0086070Y0129168D02*
X0077120Y0129168D01*
X0077120Y0130367D02*
X0086070Y0130367D01*
X0086070Y0131565D02*
X0077120Y0131565D01*
X0077120Y0132764D02*
X0086070Y0132764D01*
X0086070Y0133963D02*
X0077120Y0133963D01*
X0077120Y0135161D02*
X0086070Y0135161D01*
X0086070Y0136360D02*
X0077120Y0136360D01*
X0078068Y0137558D02*
X0086070Y0137558D01*
X0086070Y0138757D02*
X0079267Y0138757D01*
X0080465Y0139955D02*
X0086070Y0139955D01*
X0086070Y0141154D02*
X0081664Y0141154D01*
X0082120Y0142352D02*
X0086070Y0142352D01*
X0086070Y0143551D02*
X0082120Y0143551D01*
X0082120Y0144749D02*
X0086070Y0144749D01*
X0086070Y0145948D02*
X0082120Y0145948D01*
X0082120Y0147146D02*
X0086070Y0147146D01*
X0085585Y0148345D02*
X0082120Y0148345D01*
X0082120Y0149543D02*
X0084387Y0149543D01*
X0083188Y0150742D02*
X0082120Y0150742D01*
X0083470Y0153854D02*
X0088470Y0148854D01*
X0088470Y0113854D01*
X0092220Y0110104D01*
X0148470Y0110104D01*
X0160970Y0098854D01*
X0160970Y0092604D01*
X0175970Y0092604D01*
X0180970Y0087604D01*
X0203470Y0087604D01*
X0203470Y0096504D01*
X0204870Y0097904D01*
X0196070Y0098007D02*
X0187470Y0098007D01*
X0187470Y0098304D02*
X0191670Y0098304D01*
X0191670Y0101266D01*
X0191557Y0101981D01*
X0191333Y0102670D01*
X0191004Y0103315D01*
X0190579Y0103901D01*
X0190067Y0104413D01*
X0189481Y0104838D01*
X0188836Y0105167D01*
X0188147Y0105391D01*
X0187470Y0105498D01*
X0187470Y0098304D01*
X0186670Y0098007D02*
X0178961Y0098007D01*
X0177808Y0099206D02*
X0182470Y0099206D01*
X0182470Y0100404D02*
X0175794Y0100404D01*
X0175298Y0101603D02*
X0182523Y0101603D01*
X0182874Y0102801D02*
X0174165Y0102801D01*
X0170970Y0098854D02*
X0155970Y0112604D01*
X0095970Y0112604D01*
X0090970Y0117604D01*
X0090970Y0152604D01*
X0088470Y0155104D01*
X0088470Y0157604D01*
X0083470Y0157604D02*
X0083470Y0153854D01*
X0074720Y0146354D02*
X0052220Y0146354D01*
X0049730Y0152604D02*
X0060970Y0152604D01*
X0065613Y0143954D02*
X0071139Y0143954D01*
X0071139Y0143827D01*
X0072193Y0142773D01*
X0076495Y0142773D01*
X0072685Y0138963D01*
X0072320Y0138081D01*
X0072320Y0137127D01*
X0072320Y0128685D01*
X0072193Y0128685D01*
X0071139Y0127631D01*
X0071139Y0126612D01*
X0070870Y0127042D01*
X0070870Y0133081D01*
X0070505Y0133963D01*
X0072320Y0133963D01*
X0072320Y0135161D02*
X0069307Y0135161D01*
X0069830Y0134639D02*
X0066705Y0137764D01*
X0065822Y0138129D01*
X0065613Y0138129D01*
X0065613Y0140223D01*
X0061038Y0140223D01*
X0061038Y0140773D01*
X0065613Y0140773D01*
X0065613Y0143954D01*
X0065613Y0143551D02*
X0071416Y0143551D01*
X0074876Y0141154D02*
X0065613Y0141154D01*
X0065613Y0142352D02*
X0076074Y0142352D01*
X0073677Y0139955D02*
X0065613Y0139955D01*
X0065613Y0138757D02*
X0072600Y0138757D01*
X0072320Y0137558D02*
X0066910Y0137558D01*
X0068109Y0136360D02*
X0072320Y0136360D01*
X0070505Y0133963D02*
X0069830Y0134639D01*
X0070870Y0132764D02*
X0072320Y0132764D01*
X0072320Y0131565D02*
X0070870Y0131565D01*
X0070870Y0130367D02*
X0072320Y0130367D01*
X0072320Y0129168D02*
X0070870Y0129168D01*
X0070870Y0127970D02*
X0071478Y0127970D01*
X0071139Y0126771D02*
X0071039Y0126771D01*
X0075534Y0119580D02*
X0086070Y0119580D01*
X0086070Y0118382D02*
X0076283Y0118382D01*
X0077015Y0117183D02*
X0086070Y0117183D01*
X0086070Y0115985D02*
X0077120Y0115985D01*
X0077120Y0114786D02*
X0086070Y0114786D01*
X0086070Y0113588D02*
X0077120Y0113588D01*
X0077120Y0112389D02*
X0086541Y0112389D01*
X0087111Y0111819D02*
X0087111Y0111819D01*
X0087739Y0111191D02*
X0077120Y0111191D01*
X0068470Y0103854D02*
X0068470Y0095104D01*
X0073470Y0090104D01*
X0087781Y0090104D01*
X0095576Y0099149D01*
X0090970Y0094543D01*
X0090970Y0082604D01*
X0094551Y0082427D02*
X0098128Y0082427D01*
X0097870Y0083049D02*
X0098601Y0081285D01*
X0099951Y0079935D01*
X0101715Y0079204D01*
X0109625Y0079204D01*
X0111389Y0079935D01*
X0112739Y0081285D01*
X0113470Y0083049D01*
X0113470Y0084959D01*
X0112739Y0086723D01*
X0111389Y0088073D01*
X0109625Y0088804D01*
X0101715Y0088804D01*
X0099951Y0088073D01*
X0098601Y0086723D01*
X0097870Y0084959D01*
X0097870Y0083049D01*
X0097870Y0083625D02*
X0094551Y0083625D01*
X0094551Y0084824D02*
X0097870Y0084824D01*
X0098311Y0086022D02*
X0093660Y0086022D01*
X0093370Y0087221D02*
X0099098Y0087221D01*
X0100786Y0088419D02*
X0093370Y0088419D01*
X0093370Y0089618D02*
X0120870Y0089618D01*
X0120870Y0088419D02*
X0110554Y0088419D01*
X0112242Y0087221D02*
X0120870Y0087221D01*
X0120870Y0086022D02*
X0113030Y0086022D01*
X0113470Y0084824D02*
X0120870Y0084824D01*
X0120870Y0083625D02*
X0113470Y0083625D01*
X0113212Y0082427D02*
X0120870Y0082427D01*
X0120870Y0081228D02*
X0112682Y0081228D01*
X0111484Y0080030D02*
X0120870Y0080030D01*
X0120870Y0078831D02*
X0060870Y0078831D01*
X0060870Y0080030D02*
X0063687Y0080030D01*
X0063639Y0081228D02*
X0060870Y0081228D01*
X0060870Y0077632D02*
X0120870Y0077632D01*
X0120870Y0076434D02*
X0060870Y0076434D01*
X0060870Y0075235D02*
X0120870Y0075235D01*
X0120870Y0074037D02*
X0087931Y0074037D01*
X0089130Y0072838D02*
X0120870Y0072838D01*
X0120870Y0071640D02*
X0090328Y0071640D01*
X0091527Y0070441D02*
X0100357Y0070441D01*
X0098921Y0069243D02*
X0092725Y0069243D01*
X0093924Y0068044D02*
X0098237Y0068044D01*
X0097870Y0066846D02*
X0095122Y0066846D01*
X0096321Y0065647D02*
X0097870Y0065647D01*
X0097568Y0064449D02*
X0098202Y0064449D01*
X0098526Y0063250D02*
X0098835Y0063250D01*
X0095970Y0062604D02*
X0097970Y0060104D01*
X0180970Y0060104D01*
X0179970Y0062504D02*
X0179858Y0062504D01*
X0180839Y0063485D01*
X0181570Y0065249D01*
X0181570Y0067159D01*
X0180839Y0068923D01*
X0179489Y0070273D01*
X0177725Y0071004D01*
X0171138Y0071004D01*
X0168923Y0072571D01*
X0168730Y0072764D01*
X0168536Y0072844D01*
X0168366Y0072964D01*
X0168100Y0073024D01*
X0167847Y0073129D01*
X0167638Y0073129D01*
X0167435Y0073175D01*
X0167166Y0073129D01*
X0142745Y0073129D01*
X0142745Y0079813D01*
X0144215Y0079204D01*
X0152125Y0079204D01*
X0153889Y0079935D01*
X0155239Y0081285D01*
X0155970Y0083049D01*
X0155970Y0084959D01*
X0155239Y0086723D01*
X0153889Y0088073D01*
X0152125Y0088804D01*
X0145467Y0088804D01*
X0149947Y0093812D01*
X0149966Y0093804D01*
X0151975Y0093804D01*
X0153831Y0094573D01*
X0155251Y0095993D01*
X0155970Y0097729D01*
X0156689Y0095993D01*
X0158109Y0094573D01*
X0158570Y0094382D01*
X0158570Y0092127D01*
X0158935Y0091244D01*
X0159611Y0090569D01*
X0160493Y0090204D01*
X0174976Y0090204D01*
X0176576Y0088604D01*
X0174170Y0088604D01*
X0174170Y0084404D01*
X0173370Y0084404D01*
X0173370Y0088604D01*
X0170408Y0088604D01*
X0169693Y0088491D01*
X0169004Y0088267D01*
X0168359Y0087938D01*
X0167773Y0087513D01*
X0167261Y0087001D01*
X0166836Y0086415D01*
X0166507Y0085770D01*
X0166283Y0085081D01*
X0166176Y0084404D01*
X0173370Y0084404D01*
X0173370Y0083604D01*
X0166176Y0083604D01*
X0166283Y0082927D01*
X0166507Y0082238D01*
X0166836Y0081593D01*
X0167261Y0081007D01*
X0167773Y0080495D01*
X0168359Y0080070D01*
X0169004Y0079741D01*
X0169693Y0079517D01*
X0170408Y0079404D01*
X0173370Y0079404D01*
X0173370Y0083604D01*
X0174170Y0083604D01*
X0174170Y0084404D01*
X0181364Y0084404D01*
X0181257Y0085081D01*
X0181217Y0085204D01*
X0203947Y0085204D01*
X0204830Y0085569D01*
X0205505Y0086244D01*
X0205870Y0087127D01*
X0205870Y0090123D01*
X0207589Y0090835D01*
X0208570Y0091816D01*
X0208570Y0080427D01*
X0208935Y0079544D01*
X0214770Y0073710D01*
X0214770Y0068349D01*
X0215389Y0066854D01*
X0210373Y0066854D01*
X0209271Y0066397D01*
X0208714Y0065841D01*
X0208195Y0065841D01*
X0208939Y0066585D01*
X0209670Y0068349D01*
X0209670Y0076259D01*
X0208939Y0078023D01*
X0207589Y0079373D01*
X0205825Y0080104D01*
X0203915Y0080104D01*
X0202151Y0079373D01*
X0200801Y0078023D01*
X0200070Y0076259D01*
X0200070Y0068349D01*
X0200801Y0066585D01*
X0201545Y0065841D01*
X0195313Y0065841D01*
X0195202Y0065730D01*
X0194747Y0066185D01*
X0190739Y0066185D01*
X0191139Y0066585D01*
X0191870Y0068349D01*
X0191870Y0076259D01*
X0191139Y0078023D01*
X0189789Y0079373D01*
X0188025Y0080104D01*
X0186115Y0080104D01*
X0184351Y0079373D01*
X0183001Y0078023D01*
X0182270Y0076259D01*
X0182270Y0068349D01*
X0183001Y0066585D01*
X0184351Y0065235D01*
X0186115Y0064504D01*
X0188025Y0064504D01*
X0188639Y0064758D01*
X0188639Y0061112D01*
X0187443Y0062308D01*
X0186487Y0062704D01*
X0180453Y0062704D01*
X0179970Y0062504D01*
X0180605Y0063250D02*
X0188639Y0063250D01*
X0188639Y0062052D02*
X0187699Y0062052D01*
X0188639Y0064449D02*
X0181239Y0064449D01*
X0181570Y0065647D02*
X0183938Y0065647D01*
X0182893Y0066846D02*
X0181570Y0066846D01*
X0181203Y0068044D02*
X0182396Y0068044D01*
X0182270Y0069243D02*
X0180519Y0069243D01*
X0179083Y0070441D02*
X0182270Y0070441D01*
X0182270Y0071640D02*
X0170239Y0071640D01*
X0168549Y0072838D02*
X0182270Y0072838D01*
X0182270Y0074037D02*
X0142745Y0074037D01*
X0142745Y0075235D02*
X0182270Y0075235D01*
X0182343Y0076434D02*
X0142745Y0076434D01*
X0142745Y0077632D02*
X0182839Y0077632D01*
X0183809Y0078831D02*
X0142745Y0078831D01*
X0137945Y0078831D02*
X0126070Y0078831D01*
X0126504Y0079741D02*
X0127193Y0079517D01*
X0127908Y0079404D01*
X0130870Y0079404D01*
X0130870Y0083604D01*
X0131670Y0083604D01*
X0131670Y0079404D01*
X0134632Y0079404D01*
X0135347Y0079517D01*
X0136036Y0079741D01*
X0136681Y0080070D01*
X0137267Y0080495D01*
X0137779Y0081007D01*
X0137945Y0081236D01*
X0137945Y0070252D01*
X0138310Y0069369D01*
X0138986Y0068694D01*
X0139868Y0068329D01*
X0140855Y0068329D01*
X0140370Y0067159D01*
X0140370Y0065249D01*
X0141101Y0063485D01*
X0142082Y0062504D01*
X0137358Y0062504D01*
X0138339Y0063485D01*
X0139070Y0065249D01*
X0139070Y0067159D01*
X0138339Y0068923D01*
X0136989Y0070273D01*
X0135225Y0071004D01*
X0127315Y0071004D01*
X0126070Y0070488D01*
X0126070Y0079962D01*
X0126504Y0079741D01*
X0126070Y0077632D02*
X0137945Y0077632D01*
X0137945Y0076434D02*
X0126070Y0076434D01*
X0126070Y0075235D02*
X0137945Y0075235D01*
X0137945Y0074037D02*
X0126070Y0074037D01*
X0126070Y0072838D02*
X0137945Y0072838D01*
X0137945Y0071640D02*
X0126070Y0071640D01*
X0120870Y0070441D02*
X0110983Y0070441D01*
X0112419Y0069243D02*
X0120870Y0069243D01*
X0120870Y0068044D02*
X0113103Y0068044D01*
X0113470Y0066846D02*
X0120870Y0066846D01*
X0120870Y0065647D02*
X0113470Y0065647D01*
X0113139Y0064449D02*
X0120927Y0064449D01*
X0121647Y0063250D02*
X0112505Y0063250D01*
X0125182Y0062504D02*
X0125182Y0062504D01*
X0138105Y0063250D02*
X0141335Y0063250D01*
X0140702Y0064449D02*
X0138739Y0064449D01*
X0139070Y0065647D02*
X0140370Y0065647D01*
X0140370Y0066846D02*
X0139070Y0066846D01*
X0138703Y0068044D02*
X0140737Y0068044D01*
X0138437Y0069243D02*
X0138019Y0069243D01*
X0137945Y0070441D02*
X0136583Y0070441D01*
X0140345Y0070729D02*
X0167370Y0070729D01*
X0173770Y0066204D01*
X0174170Y0079404D02*
X0177132Y0079404D01*
X0177847Y0079517D01*
X0178536Y0079741D01*
X0179181Y0080070D01*
X0179767Y0080495D01*
X0180279Y0081007D01*
X0180704Y0081593D01*
X0181033Y0082238D01*
X0181257Y0082927D01*
X0181364Y0083604D01*
X0174170Y0083604D01*
X0174170Y0079404D01*
X0174170Y0080030D02*
X0173370Y0080030D01*
X0173370Y0081228D02*
X0174170Y0081228D01*
X0174170Y0082427D02*
X0173370Y0082427D01*
X0173370Y0083625D02*
X0155970Y0083625D01*
X0155970Y0084824D02*
X0166243Y0084824D01*
X0166636Y0086022D02*
X0155530Y0086022D01*
X0154742Y0087221D02*
X0167481Y0087221D01*
X0169473Y0088419D02*
X0153054Y0088419D01*
X0147267Y0090816D02*
X0159364Y0090816D01*
X0158616Y0092015D02*
X0148339Y0092015D01*
X0149412Y0093213D02*
X0158570Y0093213D01*
X0158498Y0094412D02*
X0153442Y0094412D01*
X0154868Y0095610D02*
X0157072Y0095610D01*
X0156351Y0096809D02*
X0155589Y0096809D01*
X0146195Y0089618D02*
X0175562Y0089618D01*
X0174170Y0088419D02*
X0173370Y0088419D01*
X0173370Y0087221D02*
X0174170Y0087221D01*
X0174170Y0086022D02*
X0173370Y0086022D01*
X0173370Y0084824D02*
X0174170Y0084824D01*
X0174170Y0083625D02*
X0208570Y0083625D01*
X0208570Y0082427D02*
X0181094Y0082427D01*
X0180439Y0081228D02*
X0208570Y0081228D01*
X0208735Y0080030D02*
X0206005Y0080030D01*
X0203736Y0080030D02*
X0188205Y0080030D01*
X0185936Y0080030D02*
X0179102Y0080030D01*
X0181298Y0084824D02*
X0208570Y0084824D01*
X0208570Y0086022D02*
X0205282Y0086022D01*
X0205870Y0087221D02*
X0208570Y0087221D01*
X0208570Y0088419D02*
X0205870Y0088419D01*
X0205870Y0089618D02*
X0208570Y0089618D01*
X0208570Y0090816D02*
X0207544Y0090816D01*
X0213370Y0090816D02*
X0216896Y0090816D01*
X0215671Y0092015D02*
X0213370Y0092015D01*
X0213370Y0093213D02*
X0215075Y0093213D01*
X0214770Y0094412D02*
X0213370Y0094412D01*
X0213370Y0095610D02*
X0214770Y0095610D01*
X0214770Y0096809D02*
X0213370Y0096809D01*
X0213370Y0098007D02*
X0214770Y0098007D01*
X0214770Y0099206D02*
X0213370Y0099206D01*
X0213370Y0100404D02*
X0214770Y0100404D01*
X0214770Y0101603D02*
X0213370Y0101603D01*
X0213370Y0102801D02*
X0215160Y0102801D01*
X0215878Y0104000D02*
X0213370Y0104000D01*
X0213370Y0105198D02*
X0217394Y0105198D01*
X0213291Y0106397D02*
X0222970Y0106397D01*
X0222970Y0107595D02*
X0212498Y0107595D01*
X0210970Y0105729D02*
X0210970Y0080904D01*
X0219570Y0072304D01*
X0214770Y0072838D02*
X0209670Y0072838D01*
X0209670Y0071640D02*
X0214770Y0071640D01*
X0214770Y0070441D02*
X0209670Y0070441D01*
X0209670Y0069243D02*
X0214770Y0069243D01*
X0214896Y0068044D02*
X0209544Y0068044D01*
X0209047Y0066846D02*
X0210354Y0066846D01*
X0210970Y0063854D02*
X0210232Y0060104D01*
X0209720Y0058854D01*
X0205282Y0058456D02*
X0204158Y0058456D01*
X0204158Y0057258D02*
X0205282Y0057258D01*
X0205282Y0056059D02*
X0204158Y0056059D01*
X0204158Y0055421D02*
X0204158Y0064504D01*
X0205282Y0064504D01*
X0205282Y0055421D01*
X0206139Y0054565D01*
X0206139Y0052099D01*
X0205534Y0051791D01*
X0204917Y0051343D01*
X0204377Y0050803D01*
X0203928Y0050185D01*
X0203582Y0049505D01*
X0203346Y0048779D01*
X0203226Y0048025D01*
X0203226Y0047918D01*
X0207801Y0047918D01*
X0207801Y0047368D01*
X0203226Y0047368D01*
X0203226Y0047262D01*
X0203346Y0046508D01*
X0203582Y0045782D01*
X0203928Y0045101D01*
X0204377Y0044484D01*
X0204917Y0043944D01*
X0205534Y0043495D01*
X0206215Y0043149D01*
X0206941Y0042913D01*
X0207695Y0042793D01*
X0207801Y0042793D01*
X0207801Y0047368D01*
X0208351Y0047368D01*
X0208351Y0042793D01*
X0208458Y0042793D01*
X0209212Y0042913D01*
X0209938Y0043149D01*
X0210618Y0043495D01*
X0211236Y0043944D01*
X0211776Y0044484D01*
X0212224Y0045101D01*
X0212571Y0045782D01*
X0212807Y0046508D01*
X0212926Y0047262D01*
X0212926Y0047368D01*
X0208351Y0047368D01*
X0208351Y0047918D01*
X0212926Y0047918D01*
X0212926Y0048025D01*
X0212807Y0048779D01*
X0212571Y0049505D01*
X0212224Y0050185D01*
X0212161Y0050273D01*
X0212247Y0050273D01*
X0213301Y0051327D01*
X0213301Y0054367D01*
X0214127Y0054367D01*
X0215181Y0055421D01*
X0215181Y0060854D01*
X0225092Y0060854D01*
X0224531Y0060608D01*
X0221139Y0057485D01*
X0218945Y0053431D01*
X0218186Y0048883D01*
X0218945Y0044336D01*
X0221139Y0040282D01*
X0224531Y0037159D01*
X0225126Y0036898D01*
X0173139Y0036898D01*
X0172722Y0036939D01*
X0171951Y0037258D01*
X0171362Y0037848D01*
X0171043Y0038618D01*
X0171002Y0039035D01*
X0171002Y0045828D01*
X0171350Y0045481D01*
X0171771Y0045061D01*
X0171775Y0045059D01*
X0171778Y0045056D01*
X0172324Y0044831D01*
X0172873Y0044604D01*
X0172878Y0044604D01*
X0172881Y0044602D01*
X0173475Y0044604D01*
X0174067Y0044604D01*
X0174071Y0044606D01*
X0183026Y0044630D01*
X0183026Y0043648D01*
X0184081Y0042593D01*
X0192072Y0042593D01*
X0193126Y0043648D01*
X0193126Y0046397D01*
X0193795Y0044783D01*
X0195216Y0043362D01*
X0197072Y0042593D01*
X0199081Y0042593D01*
X0200937Y0043362D01*
X0202358Y0044783D01*
X0203126Y0046639D01*
X0203126Y0048648D01*
X0202358Y0050504D01*
X0200937Y0051924D01*
X0199620Y0052470D01*
X0199620Y0054367D01*
X0203103Y0054367D01*
X0204158Y0055421D01*
X0203597Y0054861D02*
X0205843Y0054861D01*
X0206139Y0053662D02*
X0199620Y0053662D01*
X0199635Y0052464D02*
X0206139Y0052464D01*
X0204839Y0051265D02*
X0201596Y0051265D01*
X0202539Y0050067D02*
X0203868Y0050067D01*
X0203375Y0048868D02*
X0203035Y0048868D01*
X0203126Y0047670D02*
X0207801Y0047670D01*
X0208351Y0047670D02*
X0218388Y0047670D01*
X0218188Y0048868D02*
X0212778Y0048868D01*
X0212285Y0050067D02*
X0218383Y0050067D01*
X0218583Y0051265D02*
X0213239Y0051265D01*
X0213301Y0052464D02*
X0218783Y0052464D01*
X0219070Y0053662D02*
X0213301Y0053662D01*
X0214621Y0054861D02*
X0219719Y0054861D01*
X0220367Y0056059D02*
X0215181Y0056059D01*
X0215181Y0057258D02*
X0221016Y0057258D01*
X0222194Y0058456D02*
X0215181Y0058456D01*
X0215181Y0059655D02*
X0223496Y0059655D01*
X0225091Y0060853D02*
X0215181Y0060853D01*
X0205282Y0060853D02*
X0204158Y0060853D01*
X0204158Y0059655D02*
X0205282Y0059655D01*
X0205282Y0062052D02*
X0204158Y0062052D01*
X0204158Y0063250D02*
X0205282Y0063250D01*
X0205282Y0064449D02*
X0204158Y0064449D01*
X0200693Y0066846D02*
X0191247Y0066846D01*
X0191744Y0068044D02*
X0200196Y0068044D01*
X0200070Y0069243D02*
X0191870Y0069243D01*
X0191870Y0070441D02*
X0200070Y0070441D01*
X0200070Y0071640D02*
X0191870Y0071640D01*
X0191870Y0072838D02*
X0200070Y0072838D01*
X0200070Y0074037D02*
X0191870Y0074037D01*
X0191870Y0075235D02*
X0200070Y0075235D01*
X0200143Y0076434D02*
X0191797Y0076434D01*
X0191301Y0077632D02*
X0200639Y0077632D01*
X0201609Y0078831D02*
X0190331Y0078831D01*
X0208131Y0078831D02*
X0209649Y0078831D01*
X0209101Y0077632D02*
X0210847Y0077632D01*
X0212046Y0076434D02*
X0209597Y0076434D01*
X0209670Y0075235D02*
X0213244Y0075235D01*
X0214443Y0074037D02*
X0209670Y0074037D01*
X0215239Y0080030D02*
X0218436Y0080030D01*
X0220705Y0080030D02*
X0222970Y0080030D01*
X0222970Y0081228D02*
X0214040Y0081228D01*
X0213370Y0082427D02*
X0222970Y0082427D01*
X0222970Y0083625D02*
X0213370Y0083625D01*
X0213370Y0084824D02*
X0222970Y0084824D01*
X0222970Y0086022D02*
X0213370Y0086022D01*
X0213370Y0087221D02*
X0222970Y0087221D01*
X0222970Y0088419D02*
X0213370Y0088419D01*
X0213370Y0089618D02*
X0222970Y0089618D01*
X0222970Y0090816D02*
X0222244Y0090816D01*
X0228970Y0090816D02*
X0234696Y0090816D01*
X0234651Y0090835D02*
X0236415Y0090104D01*
X0238325Y0090104D01*
X0240089Y0090835D01*
X0241439Y0092185D01*
X0242170Y0093949D01*
X0242170Y0101859D01*
X0241439Y0103623D01*
X0240089Y0104973D01*
X0238325Y0105704D01*
X0236415Y0105704D01*
X0234651Y0104973D01*
X0233301Y0103623D01*
X0232570Y0101859D01*
X0232570Y0093949D01*
X0233301Y0092185D01*
X0234651Y0090835D01*
X0233471Y0092015D02*
X0228970Y0092015D01*
X0228970Y0093213D02*
X0232875Y0093213D01*
X0232570Y0094412D02*
X0228970Y0094412D01*
X0228970Y0095610D02*
X0232570Y0095610D01*
X0232570Y0096809D02*
X0228970Y0096809D01*
X0228970Y0098007D02*
X0232570Y0098007D01*
X0232570Y0099206D02*
X0228970Y0099206D01*
X0228970Y0100404D02*
X0232570Y0100404D01*
X0232570Y0101603D02*
X0228970Y0101603D01*
X0228970Y0102801D02*
X0232960Y0102801D01*
X0233678Y0104000D02*
X0228970Y0104000D01*
X0228970Y0105198D02*
X0235194Y0105198D01*
X0239546Y0105198D02*
X0244173Y0105198D01*
X0244173Y0104000D02*
X0241062Y0104000D01*
X0241780Y0102801D02*
X0244173Y0102801D01*
X0244173Y0101603D02*
X0242170Y0101603D01*
X0242170Y0100404D02*
X0244173Y0100404D01*
X0244173Y0099206D02*
X0242170Y0099206D01*
X0242170Y0098007D02*
X0244173Y0098007D01*
X0244173Y0096809D02*
X0242170Y0096809D01*
X0242170Y0095610D02*
X0244173Y0095610D01*
X0244173Y0094412D02*
X0242170Y0094412D01*
X0241865Y0093213D02*
X0244173Y0093213D01*
X0244173Y0092015D02*
X0241269Y0092015D01*
X0240044Y0090816D02*
X0244173Y0090816D01*
X0244173Y0089618D02*
X0228970Y0089618D01*
X0228970Y0088419D02*
X0244173Y0088419D01*
X0244173Y0087221D02*
X0228970Y0087221D01*
X0228970Y0086022D02*
X0244173Y0086022D01*
X0244173Y0084824D02*
X0228970Y0084824D01*
X0228970Y0083625D02*
X0244173Y0083625D01*
X0244173Y0082427D02*
X0228970Y0082427D01*
X0228970Y0081228D02*
X0244173Y0081228D01*
X0244173Y0080030D02*
X0228970Y0080030D01*
X0228970Y0078831D02*
X0234399Y0078831D01*
X0234373Y0078813D02*
X0233861Y0078301D01*
X0233436Y0077715D01*
X0233107Y0077070D01*
X0232883Y0076381D01*
X0232770Y0075666D01*
X0232770Y0072704D01*
X0236970Y0072704D01*
X0236970Y0079898D01*
X0236293Y0079791D01*
X0235604Y0079567D01*
X0234959Y0079238D01*
X0234373Y0078813D01*
X0233394Y0077632D02*
X0228970Y0077632D01*
X0228970Y0076434D02*
X0232901Y0076434D01*
X0232770Y0075235D02*
X0228970Y0075235D01*
X0228970Y0074037D02*
X0232770Y0074037D01*
X0232770Y0072838D02*
X0228970Y0072838D01*
X0228970Y0071640D02*
X0232770Y0071640D01*
X0232770Y0071904D02*
X0232770Y0068942D01*
X0232883Y0068227D01*
X0233107Y0067538D01*
X0233436Y0066893D01*
X0233861Y0066307D01*
X0234373Y0065795D01*
X0234959Y0065370D01*
X0235604Y0065041D01*
X0236293Y0064817D01*
X0236970Y0064710D01*
X0236970Y0071904D01*
X0232770Y0071904D01*
X0232770Y0070441D02*
X0228970Y0070441D01*
X0228970Y0069243D02*
X0232770Y0069243D01*
X0232943Y0068044D02*
X0228970Y0068044D01*
X0228970Y0066846D02*
X0233470Y0066846D01*
X0234577Y0065647D02*
X0228970Y0065647D01*
X0228946Y0064449D02*
X0244173Y0064449D01*
X0244173Y0065647D02*
X0240163Y0065647D01*
X0240367Y0065795D02*
X0240879Y0066307D01*
X0241304Y0066893D01*
X0241633Y0067538D01*
X0241857Y0068227D01*
X0241970Y0068942D01*
X0241970Y0071904D01*
X0237770Y0071904D01*
X0237770Y0072704D01*
X0236970Y0072704D01*
X0236970Y0071904D01*
X0237770Y0071904D01*
X0237770Y0064710D01*
X0238447Y0064817D01*
X0239136Y0065041D01*
X0239781Y0065370D01*
X0240367Y0065795D01*
X0241270Y0066846D02*
X0244173Y0066846D01*
X0244173Y0068044D02*
X0241798Y0068044D01*
X0241970Y0069243D02*
X0244173Y0069243D01*
X0244173Y0070441D02*
X0241970Y0070441D01*
X0241970Y0071640D02*
X0244173Y0071640D01*
X0244173Y0072838D02*
X0241970Y0072838D01*
X0241970Y0072704D02*
X0241970Y0075666D01*
X0241857Y0076381D01*
X0241633Y0077070D01*
X0241304Y0077715D01*
X0240879Y0078301D01*
X0240367Y0078813D01*
X0239781Y0079238D01*
X0239136Y0079567D01*
X0238447Y0079791D01*
X0237770Y0079898D01*
X0237770Y0072704D01*
X0241970Y0072704D01*
X0241970Y0074037D02*
X0244173Y0074037D01*
X0244173Y0075235D02*
X0241970Y0075235D01*
X0241840Y0076434D02*
X0244173Y0076434D01*
X0244173Y0077632D02*
X0241346Y0077632D01*
X0240341Y0078831D02*
X0244173Y0078831D01*
X0237770Y0078831D02*
X0236970Y0078831D01*
X0236970Y0077632D02*
X0237770Y0077632D01*
X0237770Y0076434D02*
X0236970Y0076434D01*
X0236970Y0075235D02*
X0237770Y0075235D01*
X0237770Y0074037D02*
X0236970Y0074037D01*
X0236970Y0072838D02*
X0237770Y0072838D01*
X0237770Y0071640D02*
X0236970Y0071640D01*
X0236970Y0070441D02*
X0237770Y0070441D01*
X0237770Y0069243D02*
X0236970Y0069243D01*
X0236970Y0068044D02*
X0237770Y0068044D01*
X0237770Y0066846D02*
X0236970Y0066846D01*
X0236970Y0065647D02*
X0237770Y0065647D01*
X0236461Y0062052D02*
X0244173Y0062052D01*
X0244173Y0063250D02*
X0228359Y0063250D01*
X0227823Y0062052D02*
X0227161Y0062052D01*
X0224720Y0063854D02*
X0225970Y0065104D01*
X0239125Y0060853D02*
X0244173Y0060853D01*
X0244173Y0059655D02*
X0240960Y0059655D01*
X0242244Y0058456D02*
X0244173Y0058456D01*
X0244173Y0057258D02*
X0243177Y0057258D01*
X0244110Y0056059D02*
X0244173Y0056059D01*
X0218588Y0046471D02*
X0212795Y0046471D01*
X0212312Y0045273D02*
X0218788Y0045273D01*
X0219086Y0044074D02*
X0211366Y0044074D01*
X0208978Y0042876D02*
X0219735Y0042876D01*
X0220384Y0041677D02*
X0171002Y0041677D01*
X0171002Y0040479D02*
X0221032Y0040479D01*
X0222227Y0039280D02*
X0171002Y0039280D01*
X0171265Y0038082D02*
X0223529Y0038082D01*
X0208351Y0042876D02*
X0207801Y0042876D01*
X0207175Y0042876D02*
X0199763Y0042876D01*
X0201649Y0044074D02*
X0204787Y0044074D01*
X0203841Y0045273D02*
X0202560Y0045273D01*
X0203057Y0046471D02*
X0203358Y0046471D01*
X0207801Y0046471D02*
X0208351Y0046471D01*
X0208351Y0045273D02*
X0207801Y0045273D01*
X0207801Y0044074D02*
X0208351Y0044074D01*
X0196390Y0042876D02*
X0192354Y0042876D01*
X0193126Y0044074D02*
X0194504Y0044074D01*
X0193592Y0045273D02*
X0193126Y0045273D01*
X0197220Y0050104D02*
X0197220Y0058854D01*
X0199208Y0060104D01*
X0183026Y0044074D02*
X0171002Y0044074D01*
X0171002Y0042876D02*
X0183798Y0042876D01*
X0171559Y0045273D02*
X0171002Y0045273D01*
X0140345Y0070729D02*
X0140345Y0086979D01*
X0137945Y0081228D02*
X0137939Y0081228D01*
X0137945Y0080030D02*
X0136602Y0080030D01*
X0131670Y0080030D02*
X0130870Y0080030D01*
X0130870Y0081228D02*
X0131670Y0081228D01*
X0131670Y0082427D02*
X0130870Y0082427D01*
X0120951Y0090816D02*
X0093370Y0090816D01*
X0093370Y0092015D02*
X0121704Y0092015D01*
X0121245Y0094004D02*
X0124431Y0094004D01*
X0124838Y0094113D01*
X0125202Y0094324D01*
X0125500Y0094622D01*
X0125711Y0094986D01*
X0125820Y0095393D01*
X0125820Y0098579D01*
X0121245Y0098579D01*
X0121245Y0094004D01*
X0121245Y0094412D02*
X0120695Y0094412D01*
X0120695Y0095610D02*
X0121245Y0095610D01*
X0121245Y0096809D02*
X0120695Y0096809D01*
X0120695Y0098007D02*
X0121245Y0098007D01*
X0125820Y0098007D02*
X0125920Y0098007D01*
X0125920Y0099206D02*
X0125820Y0099206D01*
X0125820Y0100404D02*
X0126146Y0100404D01*
X0125820Y0101603D02*
X0126643Y0101603D01*
X0126351Y0096809D02*
X0125820Y0096809D01*
X0125820Y0095610D02*
X0127072Y0095610D01*
X0128498Y0094412D02*
X0125291Y0094412D01*
X0130575Y0093213D02*
X0093629Y0093213D01*
X0097335Y0094412D02*
X0101703Y0094412D01*
X0100747Y0095610D02*
X0099179Y0095610D01*
X0100073Y0096809D02*
X0100726Y0096809D01*
X0100726Y0098007D02*
X0100569Y0098007D01*
X0100626Y0099206D02*
X0105301Y0099206D01*
X0105851Y0099206D02*
X0116120Y0099206D01*
X0116120Y0100404D02*
X0110426Y0100404D01*
X0110426Y0101603D02*
X0116120Y0101603D01*
X0116120Y0098007D02*
X0110426Y0098007D01*
X0110426Y0096809D02*
X0116120Y0096809D01*
X0116120Y0095610D02*
X0110405Y0095610D01*
X0109450Y0094412D02*
X0116650Y0094412D01*
X0105851Y0094412D02*
X0105301Y0094412D01*
X0105301Y0095610D02*
X0105851Y0095610D01*
X0105851Y0096809D02*
X0105301Y0096809D01*
X0105301Y0098007D02*
X0105851Y0098007D01*
X0100726Y0100404D02*
X0100523Y0100404D01*
X0100726Y0101603D02*
X0100026Y0101603D01*
X0103470Y0115104D02*
X0101423Y0118057D01*
X0101423Y0149100D01*
X0109223Y0148345D02*
X0109823Y0148345D01*
X0109883Y0147146D02*
X0109223Y0147146D01*
X0109223Y0145948D02*
X0109965Y0145948D01*
X0110123Y0144749D02*
X0109223Y0144749D01*
X0109223Y0143551D02*
X0110308Y0143551D01*
X0110546Y0142352D02*
X0109223Y0142352D01*
X0109059Y0141154D02*
X0110837Y0141154D01*
X0111158Y0139955D02*
X0108563Y0139955D01*
X0108066Y0138757D02*
X0111563Y0138757D01*
X0112000Y0137558D02*
X0106912Y0137558D01*
X0105532Y0136360D02*
X0112497Y0136360D01*
X0113063Y0135161D02*
X0103823Y0135161D01*
X0103823Y0133963D02*
X0113674Y0133963D01*
X0114366Y0132764D02*
X0103823Y0132764D01*
X0103823Y0131565D02*
X0115134Y0131565D01*
X0115966Y0130367D02*
X0103823Y0130367D01*
X0103823Y0129168D02*
X0116886Y0129168D01*
X0117923Y0127970D02*
X0103823Y0127970D01*
X0103823Y0126771D02*
X0119062Y0126771D01*
X0120324Y0125573D02*
X0103823Y0125573D01*
X0103823Y0124374D02*
X0121737Y0124374D01*
X0123342Y0123176D02*
X0103823Y0123176D01*
X0103823Y0121977D02*
X0125201Y0121977D01*
X0127406Y0120779D02*
X0103823Y0120779D01*
X0103823Y0119580D02*
X0130115Y0119580D01*
X0133971Y0118382D02*
X0104118Y0118382D01*
X0103470Y0115104D02*
X0175970Y0115104D01*
X0178470Y0117604D01*
X0178470Y0148647D01*
X0181423Y0149100D01*
X0189223Y0149543D02*
X0200841Y0149543D01*
X0199643Y0150742D02*
X0189223Y0150742D01*
X0189223Y0151940D02*
X0198444Y0151940D01*
X0197246Y0153139D02*
X0189223Y0153139D01*
X0189223Y0154337D02*
X0196047Y0154337D01*
X0194849Y0155536D02*
X0189223Y0155536D01*
X0189189Y0156734D02*
X0193650Y0156734D01*
X0192452Y0157933D02*
X0188692Y0157933D01*
X0188196Y0159131D02*
X0191253Y0159131D01*
X0190679Y0160330D02*
X0187224Y0160330D01*
X0186025Y0161528D02*
X0190663Y0161528D01*
X0196663Y0162727D02*
X0212163Y0162727D01*
X0212159Y0162739D02*
X0212381Y0162057D01*
X0212706Y0161419D01*
X0213127Y0160839D01*
X0213634Y0160332D01*
X0214214Y0159911D01*
X0214852Y0159586D01*
X0215534Y0159364D01*
X0216242Y0159252D01*
X0216314Y0159252D01*
X0216314Y0163519D01*
X0212047Y0163519D01*
X0212047Y0163446D01*
X0212159Y0162739D01*
X0212650Y0161528D02*
X0197342Y0161528D01*
X0198540Y0160330D02*
X0213637Y0160330D01*
X0216314Y0160330D02*
X0216886Y0160330D01*
X0216886Y0159252D02*
X0216958Y0159252D01*
X0217666Y0159364D01*
X0218348Y0159586D01*
X0218986Y0159911D01*
X0219566Y0160332D01*
X0220073Y0160839D01*
X0220494Y0161419D01*
X0220819Y0162057D01*
X0221041Y0162739D01*
X0221153Y0163446D01*
X0221153Y0163519D01*
X0216886Y0163519D01*
X0216886Y0164091D01*
X0216314Y0164091D01*
X0216314Y0168357D01*
X0216242Y0168357D01*
X0215534Y0168245D01*
X0214852Y0168024D01*
X0214214Y0167699D01*
X0213634Y0167277D01*
X0213127Y0166771D01*
X0212706Y0166191D01*
X0212381Y0165552D01*
X0212159Y0164871D01*
X0212047Y0164163D01*
X0212047Y0164091D01*
X0216314Y0164091D01*
X0216314Y0163519D01*
X0216886Y0163519D01*
X0216886Y0159252D01*
X0216886Y0161528D02*
X0216314Y0161528D01*
X0216314Y0162727D02*
X0216886Y0162727D01*
X0216886Y0163925D02*
X0244173Y0163925D01*
X0244173Y0162727D02*
X0221037Y0162727D01*
X0220550Y0161528D02*
X0244173Y0161528D01*
X0244173Y0160330D02*
X0219563Y0160330D01*
X0221153Y0164091D02*
X0216886Y0164091D01*
X0216886Y0168357D01*
X0216958Y0168357D01*
X0217666Y0168245D01*
X0218348Y0168024D01*
X0218986Y0167699D01*
X0219566Y0167277D01*
X0220073Y0166771D01*
X0220494Y0166191D01*
X0220819Y0165552D01*
X0221041Y0164871D01*
X0221153Y0164163D01*
X0221153Y0164091D01*
X0220958Y0165124D02*
X0244173Y0165124D01*
X0244173Y0166322D02*
X0220398Y0166322D01*
X0219231Y0167521D02*
X0244173Y0167521D01*
X0244173Y0168719D02*
X0196663Y0168719D01*
X0196663Y0167521D02*
X0213969Y0167521D01*
X0212802Y0166322D02*
X0196663Y0166322D01*
X0196663Y0165124D02*
X0212242Y0165124D01*
X0216314Y0165124D02*
X0216886Y0165124D01*
X0216886Y0166322D02*
X0216314Y0166322D01*
X0216314Y0167521D02*
X0216886Y0167521D01*
X0216314Y0163925D02*
X0196663Y0163925D01*
X0199739Y0159131D02*
X0244173Y0159131D01*
X0244173Y0157933D02*
X0200937Y0157933D01*
X0202136Y0156734D02*
X0244173Y0156734D01*
X0244173Y0155536D02*
X0240748Y0155536D01*
X0240704Y0155579D02*
X0240340Y0155790D01*
X0239933Y0155899D01*
X0236747Y0155899D01*
X0236747Y0151324D01*
X0236197Y0151324D01*
X0236197Y0155899D01*
X0233011Y0155899D01*
X0232604Y0155790D01*
X0232240Y0155579D01*
X0231942Y0155281D01*
X0231731Y0154916D01*
X0231622Y0154509D01*
X0231622Y0151324D01*
X0236197Y0151324D01*
X0236197Y0150774D01*
X0231622Y0150774D01*
X0231622Y0147588D01*
X0231731Y0147181D01*
X0231942Y0146816D01*
X0232240Y0146519D01*
X0232604Y0146308D01*
X0233011Y0146199D01*
X0236197Y0146199D01*
X0236197Y0150774D01*
X0236747Y0150774D01*
X0236747Y0151324D01*
X0241322Y0151324D01*
X0241322Y0154509D01*
X0241213Y0154916D01*
X0241002Y0155281D01*
X0240704Y0155579D01*
X0241322Y0154337D02*
X0244173Y0154337D01*
X0244173Y0153139D02*
X0241322Y0153139D01*
X0241322Y0151940D02*
X0244173Y0151940D01*
X0244173Y0150742D02*
X0241322Y0150742D01*
X0241322Y0150774D02*
X0236747Y0150774D01*
X0236747Y0146199D01*
X0239933Y0146199D01*
X0240340Y0146308D01*
X0240704Y0146519D01*
X0241002Y0146816D01*
X0241213Y0147181D01*
X0241322Y0147588D01*
X0241322Y0150774D01*
X0241322Y0149543D02*
X0244173Y0149543D01*
X0244173Y0148345D02*
X0241322Y0148345D01*
X0241193Y0147146D02*
X0244173Y0147146D01*
X0244173Y0145948D02*
X0237842Y0145948D01*
X0236747Y0147146D02*
X0236197Y0147146D01*
X0236197Y0148345D02*
X0236747Y0148345D01*
X0236747Y0149543D02*
X0236197Y0149543D01*
X0236197Y0150742D02*
X0236747Y0150742D01*
X0236747Y0151940D02*
X0236197Y0151940D01*
X0236197Y0153139D02*
X0236747Y0153139D01*
X0236747Y0154337D02*
X0236197Y0154337D01*
X0236197Y0155536D02*
X0236747Y0155536D01*
X0232196Y0155536D02*
X0203334Y0155536D01*
X0204533Y0154337D02*
X0231622Y0154337D01*
X0231622Y0153139D02*
X0228501Y0153139D01*
X0228504Y0153133D02*
X0228294Y0153498D01*
X0227996Y0153796D01*
X0227631Y0154006D01*
X0227224Y0154115D01*
X0224070Y0154115D01*
X0224070Y0149966D01*
X0222870Y0149966D01*
X0222870Y0154115D01*
X0219716Y0154115D01*
X0219309Y0154006D01*
X0218944Y0153796D01*
X0218646Y0153498D01*
X0218436Y0153133D01*
X0218327Y0152726D01*
X0218327Y0149966D01*
X0222870Y0149966D01*
X0222870Y0148766D01*
X0218327Y0148766D01*
X0218327Y0146005D01*
X0218436Y0145599D01*
X0218646Y0145234D01*
X0218944Y0144936D01*
X0219309Y0144725D01*
X0219716Y0144616D01*
X0222870Y0144616D01*
X0222870Y0148766D01*
X0224070Y0148766D01*
X0224070Y0149966D01*
X0228613Y0149966D01*
X0228613Y0152726D01*
X0228504Y0153133D01*
X0228613Y0151940D02*
X0231622Y0151940D01*
X0231622Y0150742D02*
X0228613Y0150742D01*
X0228613Y0148766D02*
X0224070Y0148766D01*
X0224070Y0144616D01*
X0227224Y0144616D01*
X0227631Y0144725D01*
X0227996Y0144936D01*
X0228294Y0145234D01*
X0228504Y0145599D01*
X0228613Y0146005D01*
X0228613Y0148766D01*
X0228613Y0148345D02*
X0231622Y0148345D01*
X0231622Y0149543D02*
X0224070Y0149543D01*
X0224070Y0148345D02*
X0222870Y0148345D01*
X0222870Y0149543D02*
X0209327Y0149543D01*
X0210525Y0148345D02*
X0218327Y0148345D01*
X0218327Y0147146D02*
X0211724Y0147146D01*
X0212922Y0145948D02*
X0218342Y0145948D01*
X0219268Y0144749D02*
X0214121Y0144749D01*
X0215319Y0143551D02*
X0232042Y0143551D01*
X0231546Y0142352D02*
X0228699Y0142352D01*
X0227672Y0144749D02*
X0233031Y0144749D01*
X0235103Y0145948D02*
X0228598Y0145948D01*
X0228613Y0147146D02*
X0231751Y0147146D01*
X0239914Y0144749D02*
X0244173Y0144749D01*
X0244173Y0143551D02*
X0240902Y0143551D01*
X0241398Y0142352D02*
X0244173Y0142352D01*
X0244173Y0141154D02*
X0241522Y0141154D01*
X0241485Y0139955D02*
X0244173Y0139955D01*
X0244173Y0138757D02*
X0240989Y0138757D01*
X0240123Y0137558D02*
X0244173Y0137558D01*
X0244173Y0136360D02*
X0238347Y0136360D01*
X0244173Y0135161D02*
X0228813Y0135161D01*
X0228329Y0133963D02*
X0244173Y0133963D01*
X0244173Y0132764D02*
X0227602Y0132764D01*
X0227631Y0132756D02*
X0227224Y0132865D01*
X0224070Y0132865D01*
X0224070Y0128716D01*
X0222870Y0128716D01*
X0222870Y0132865D01*
X0219716Y0132865D01*
X0219309Y0132756D01*
X0218944Y0132546D01*
X0218646Y0132248D01*
X0218436Y0131883D01*
X0218327Y0131476D01*
X0218327Y0128716D01*
X0222870Y0128716D01*
X0222870Y0127516D01*
X0218327Y0127516D01*
X0218327Y0124755D01*
X0218436Y0124349D01*
X0218646Y0123984D01*
X0218944Y0123686D01*
X0219309Y0123475D01*
X0219716Y0123366D01*
X0222870Y0123366D01*
X0222870Y0127516D01*
X0224070Y0127516D01*
X0224070Y0128716D01*
X0228613Y0128716D01*
X0228613Y0131476D01*
X0228504Y0131883D01*
X0228294Y0132248D01*
X0227996Y0132546D01*
X0227631Y0132756D01*
X0228589Y0131565D02*
X0244173Y0131565D01*
X0244173Y0130367D02*
X0241187Y0130367D01*
X0241144Y0130527D02*
X0240933Y0130891D01*
X0240636Y0131189D01*
X0240271Y0131400D01*
X0239864Y0131509D01*
X0236678Y0131509D01*
X0236678Y0126934D01*
X0236128Y0126934D01*
X0236128Y0126384D01*
X0231553Y0126384D01*
X0231553Y0123198D01*
X0231662Y0122791D01*
X0231873Y0122427D01*
X0232171Y0122129D01*
X0232536Y0121918D01*
X0232942Y0121809D01*
X0236128Y0121809D01*
X0236128Y0126384D01*
X0236678Y0126384D01*
X0236678Y0121809D01*
X0239864Y0121809D01*
X0240271Y0121918D01*
X0240636Y0122129D01*
X0240933Y0122427D01*
X0241144Y0122791D01*
X0241253Y0123198D01*
X0241253Y0126384D01*
X0236678Y0126384D01*
X0236678Y0126934D01*
X0241253Y0126934D01*
X0241253Y0130120D01*
X0241144Y0130527D01*
X0241253Y0129168D02*
X0244173Y0129168D01*
X0244173Y0127970D02*
X0241253Y0127970D01*
X0241253Y0125573D02*
X0244173Y0125573D01*
X0244173Y0126771D02*
X0236678Y0126771D01*
X0236128Y0126771D02*
X0228613Y0126771D01*
X0228613Y0127516D02*
X0224070Y0127516D01*
X0224070Y0123366D01*
X0227224Y0123366D01*
X0227631Y0123475D01*
X0227996Y0123686D01*
X0228294Y0123984D01*
X0228504Y0124349D01*
X0228613Y0124755D01*
X0228613Y0127516D01*
X0228613Y0129168D02*
X0231553Y0129168D01*
X0231553Y0130120D02*
X0231553Y0126934D01*
X0236128Y0126934D01*
X0236128Y0131509D01*
X0232942Y0131509D01*
X0232536Y0131400D01*
X0232171Y0131189D01*
X0231873Y0130891D01*
X0231662Y0130527D01*
X0231553Y0130120D01*
X0231619Y0130367D02*
X0228613Y0130367D01*
X0231553Y0127970D02*
X0224070Y0127970D01*
X0224070Y0129168D02*
X0222870Y0129168D01*
X0222870Y0127970D02*
X0180870Y0127970D01*
X0180870Y0129168D02*
X0218327Y0129168D01*
X0218327Y0130367D02*
X0180870Y0130367D01*
X0180870Y0131565D02*
X0218351Y0131565D01*
X0219338Y0132764D02*
X0180870Y0132764D01*
X0180870Y0133963D02*
X0218611Y0133963D01*
X0218127Y0135161D02*
X0180870Y0135161D01*
X0176070Y0135161D02*
X0169782Y0135161D01*
X0170349Y0136360D02*
X0176070Y0136360D01*
X0175934Y0137558D02*
X0170846Y0137558D01*
X0171283Y0138757D02*
X0174779Y0138757D01*
X0174283Y0139955D02*
X0171687Y0139955D01*
X0172008Y0141154D02*
X0173786Y0141154D01*
X0173623Y0142352D02*
X0172300Y0142352D01*
X0172538Y0143551D02*
X0173623Y0143551D01*
X0173623Y0144749D02*
X0172723Y0144749D01*
X0172880Y0145948D02*
X0173623Y0145948D01*
X0173623Y0147146D02*
X0172963Y0147146D01*
X0173023Y0148345D02*
X0173623Y0148345D01*
X0189223Y0148345D02*
X0202040Y0148345D01*
X0203238Y0147146D02*
X0189223Y0147146D01*
X0189223Y0145948D02*
X0204437Y0145948D01*
X0205635Y0144749D02*
X0189223Y0144749D01*
X0189223Y0143551D02*
X0206834Y0143551D01*
X0208032Y0142352D02*
X0189223Y0142352D01*
X0189059Y0141154D02*
X0209231Y0141154D01*
X0210429Y0139955D02*
X0188563Y0139955D01*
X0188066Y0138757D02*
X0211567Y0138757D01*
X0211567Y0137558D02*
X0186912Y0137558D01*
X0185532Y0136360D02*
X0212160Y0136360D01*
X0222870Y0132764D02*
X0224070Y0132764D01*
X0224070Y0131565D02*
X0222870Y0131565D01*
X0222870Y0130367D02*
X0224070Y0130367D01*
X0224070Y0126771D02*
X0222870Y0126771D01*
X0222870Y0125573D02*
X0224070Y0125573D01*
X0224070Y0124374D02*
X0222870Y0124374D01*
X0218429Y0124374D02*
X0180870Y0124374D01*
X0180870Y0123176D02*
X0231559Y0123176D01*
X0231553Y0124374D02*
X0228511Y0124374D01*
X0228613Y0125573D02*
X0231553Y0125573D01*
X0232433Y0121977D02*
X0227823Y0121977D01*
X0228813Y0120779D02*
X0233381Y0120779D01*
X0232183Y0119580D02*
X0228813Y0119580D01*
X0225970Y0117604D02*
X0225970Y0116354D01*
X0223470Y0117092D01*
X0218127Y0117183D02*
X0180870Y0117183D01*
X0180870Y0118382D02*
X0218127Y0118382D01*
X0218127Y0119580D02*
X0180870Y0119580D01*
X0180870Y0120779D02*
X0218127Y0120779D01*
X0219117Y0121977D02*
X0180870Y0121977D01*
X0180870Y0125573D02*
X0218327Y0125573D01*
X0218327Y0126771D02*
X0180870Y0126771D01*
X0176070Y0126771D02*
X0163783Y0126771D01*
X0164922Y0127970D02*
X0176070Y0127970D01*
X0176070Y0129168D02*
X0165960Y0129168D01*
X0166879Y0130367D02*
X0176070Y0130367D01*
X0176070Y0131565D02*
X0167712Y0131565D01*
X0168480Y0132764D02*
X0176070Y0132764D01*
X0176070Y0133963D02*
X0169172Y0133963D01*
X0162522Y0125573D02*
X0176070Y0125573D01*
X0176070Y0124374D02*
X0161109Y0124374D01*
X0159503Y0123176D02*
X0176070Y0123176D01*
X0176070Y0121977D02*
X0157645Y0121977D01*
X0155440Y0120779D02*
X0176070Y0120779D01*
X0176070Y0119580D02*
X0152731Y0119580D01*
X0148874Y0118382D02*
X0175854Y0118382D01*
X0179047Y0114786D02*
X0218127Y0114786D01*
X0218127Y0113588D02*
X0177848Y0113588D01*
X0180245Y0115985D02*
X0218127Y0115985D01*
X0218934Y0112389D02*
X0159756Y0112389D01*
X0161063Y0111191D02*
X0222970Y0111191D01*
X0222970Y0109992D02*
X0162371Y0109992D01*
X0163678Y0108794D02*
X0222970Y0108794D01*
X0222970Y0105198D02*
X0221746Y0105198D01*
X0228970Y0106397D02*
X0244173Y0106397D01*
X0244173Y0107595D02*
X0228970Y0107595D01*
X0228970Y0108794D02*
X0244173Y0108794D01*
X0244173Y0109992D02*
X0228970Y0109992D01*
X0228970Y0111191D02*
X0244173Y0111191D01*
X0244173Y0112389D02*
X0239275Y0112389D01*
X0240474Y0113588D02*
X0244173Y0113588D01*
X0244173Y0114786D02*
X0241094Y0114786D01*
X0241453Y0115985D02*
X0244173Y0115985D01*
X0244173Y0117183D02*
X0241453Y0117183D01*
X0241156Y0118382D02*
X0244173Y0118382D01*
X0244173Y0119580D02*
X0240624Y0119580D01*
X0239425Y0120779D02*
X0244173Y0120779D01*
X0244173Y0121977D02*
X0240373Y0121977D01*
X0241247Y0123176D02*
X0244173Y0123176D01*
X0244173Y0124374D02*
X0241253Y0124374D01*
X0236678Y0124374D02*
X0236128Y0124374D01*
X0236128Y0123176D02*
X0236678Y0123176D01*
X0236678Y0121977D02*
X0236128Y0121977D01*
X0236128Y0125573D02*
X0236678Y0125573D01*
X0236678Y0127970D02*
X0236128Y0127970D01*
X0236128Y0129168D02*
X0236678Y0129168D01*
X0236678Y0130367D02*
X0236128Y0130367D01*
X0224070Y0144749D02*
X0222870Y0144749D01*
X0222870Y0145948D02*
X0224070Y0145948D01*
X0224070Y0147146D02*
X0222870Y0147146D01*
X0222870Y0150742D02*
X0224070Y0150742D01*
X0224070Y0151940D02*
X0222870Y0151940D01*
X0222870Y0153139D02*
X0224070Y0153139D01*
X0218439Y0153139D02*
X0205731Y0153139D01*
X0206930Y0151940D02*
X0218327Y0151940D01*
X0218327Y0150742D02*
X0208128Y0150742D01*
X0196663Y0169918D02*
X0244173Y0169918D01*
X0244173Y0171116D02*
X0196663Y0171116D01*
X0196663Y0172315D02*
X0244173Y0172315D01*
X0244173Y0173513D02*
X0196663Y0173513D01*
X0196663Y0174712D02*
X0197665Y0174712D01*
X0197613Y0175910D02*
X0196663Y0175910D01*
X0196663Y0177109D02*
X0197613Y0177109D01*
X0201663Y0177509D02*
X0215876Y0177509D01*
X0215970Y0177604D01*
X0215970Y0193096D01*
X0216600Y0193726D01*
X0219888Y0190293D02*
X0244173Y0190293D01*
X0244173Y0191491D02*
X0220819Y0191491D01*
X0221315Y0192690D02*
X0244173Y0192690D01*
X0244173Y0193888D02*
X0221353Y0193888D01*
X0221181Y0195087D02*
X0244173Y0195087D01*
X0244173Y0196285D02*
X0220684Y0196285D01*
X0219564Y0197484D02*
X0244173Y0197484D01*
X0244173Y0198682D02*
X0206431Y0198682D01*
X0206431Y0197484D02*
X0213636Y0197484D01*
X0212516Y0196285D02*
X0206431Y0196285D01*
X0206431Y0195087D02*
X0212019Y0195087D01*
X0211847Y0193888D02*
X0206431Y0193888D01*
X0206200Y0192690D02*
X0211885Y0192690D01*
X0212381Y0191491D02*
X0204063Y0191491D01*
X0204063Y0190293D02*
X0213312Y0190293D01*
X0213570Y0189094D02*
X0204063Y0189094D01*
X0205072Y0187896D02*
X0213570Y0187896D01*
X0213570Y0186697D02*
X0205713Y0186697D01*
X0205713Y0185498D02*
X0213570Y0185498D01*
X0213570Y0184300D02*
X0205713Y0184300D01*
X0205713Y0183101D02*
X0213570Y0183101D01*
X0213570Y0181903D02*
X0205713Y0181903D01*
X0205264Y0180704D02*
X0213570Y0180704D01*
X0218370Y0180704D02*
X0244173Y0180704D01*
X0244173Y0179506D02*
X0218370Y0179506D01*
X0218370Y0178307D02*
X0244173Y0178307D01*
X0244173Y0177109D02*
X0218363Y0177109D01*
X0217671Y0175910D02*
X0244173Y0175910D01*
X0244173Y0174712D02*
X0205661Y0174712D01*
X0218370Y0181903D02*
X0244173Y0181903D01*
X0244173Y0183101D02*
X0218370Y0183101D01*
X0218370Y0184300D02*
X0244173Y0184300D01*
X0244173Y0185498D02*
X0218370Y0185498D01*
X0218370Y0186697D02*
X0244173Y0186697D01*
X0244173Y0187896D02*
X0218370Y0187896D01*
X0218370Y0189094D02*
X0244173Y0189094D01*
X0244173Y0199881D02*
X0206431Y0199881D01*
X0206431Y0201079D02*
X0244173Y0201079D01*
X0244173Y0202278D02*
X0206431Y0202278D01*
X0201663Y0199923D02*
X0201482Y0197604D01*
X0201663Y0199923D02*
X0201663Y0184509D01*
X0196764Y0192690D02*
X0195176Y0192690D01*
X0195408Y0193888D02*
X0196532Y0193888D01*
X0196532Y0195087D02*
X0195408Y0195087D01*
X0195408Y0196285D02*
X0196532Y0196285D01*
X0196532Y0197484D02*
X0195408Y0197484D01*
X0195408Y0198682D02*
X0196532Y0198682D01*
X0196532Y0199881D02*
X0195408Y0199881D01*
X0195408Y0201079D02*
X0196532Y0201079D01*
X0196532Y0202278D02*
X0195408Y0202278D01*
X0190458Y0197604D02*
X0170970Y0197604D01*
X0167389Y0197484D02*
X0167120Y0197484D01*
X0167120Y0198682D02*
X0167389Y0198682D01*
X0167389Y0199881D02*
X0167120Y0199881D01*
X0167120Y0201079D02*
X0168338Y0201079D01*
X0167120Y0202278D02*
X0185509Y0202278D01*
X0185509Y0201079D02*
X0173603Y0201079D01*
X0167120Y0203476D02*
X0244173Y0203476D01*
X0244145Y0204675D02*
X0167120Y0204675D01*
X0167120Y0205873D02*
X0243517Y0205873D01*
X0190663Y0177109D02*
X0182253Y0177109D01*
X0183452Y0178307D02*
X0189613Y0178307D01*
X0189613Y0179506D02*
X0184067Y0179506D01*
X0184067Y0180704D02*
X0189613Y0180704D01*
X0189613Y0181903D02*
X0184067Y0181903D01*
X0183865Y0183101D02*
X0188699Y0183101D01*
X0187668Y0184300D02*
X0182667Y0184300D01*
X0181468Y0185498D02*
X0186638Y0185498D01*
X0176563Y0174712D02*
X0159953Y0174712D01*
X0161511Y0173513D02*
X0175364Y0173513D01*
X0174667Y0172315D02*
X0162878Y0172315D01*
X0183170Y0173513D02*
X0190663Y0173513D01*
X0190663Y0172315D02*
X0183867Y0172315D01*
X0164029Y0190293D02*
X0163370Y0190293D01*
X0167120Y0195087D02*
X0167389Y0195087D01*
X0167389Y0196285D02*
X0167120Y0196285D01*
X0167120Y0207072D02*
X0168713Y0207072D01*
X0060970Y0162604D02*
X0049730Y0162604D01*
X0044277Y0168057D01*
X0034677Y0161528D02*
X0033877Y0161528D01*
X0033877Y0160330D02*
X0034677Y0160330D01*
X0034677Y0159131D02*
X0033877Y0159131D01*
X0033877Y0156734D02*
X0034677Y0156734D01*
X0034677Y0155536D02*
X0033877Y0155536D01*
X0033877Y0154337D02*
X0034677Y0154337D01*
X0037063Y0154337D02*
X0041208Y0154337D01*
X0040010Y0155536D02*
X0038262Y0155536D01*
X0038877Y0156734D02*
X0039477Y0156734D01*
X0041372Y0151940D02*
X0037182Y0151940D01*
X0038380Y0150742D02*
X0040174Y0150742D01*
X0039477Y0149543D02*
X0039077Y0149543D01*
X0039077Y0148345D02*
X0039477Y0148345D01*
X0039477Y0147146D02*
X0039077Y0147146D01*
X0038956Y0145948D02*
X0039598Y0145948D01*
X0039477Y0138757D02*
X0039077Y0138757D01*
X0039077Y0137558D02*
X0039477Y0137558D01*
X0039477Y0136360D02*
X0039077Y0136360D01*
X0038170Y0135161D02*
X0040385Y0135161D01*
X0041583Y0133963D02*
X0036971Y0133963D01*
X0037274Y0131565D02*
X0040998Y0131565D01*
X0039799Y0130367D02*
X0038472Y0130367D01*
X0038877Y0129168D02*
X0039477Y0129168D01*
X0039477Y0127970D02*
X0034677Y0127970D01*
X0033877Y0127970D02*
X0027301Y0127970D01*
X0027301Y0129168D02*
X0029677Y0129168D01*
X0030082Y0130367D02*
X0027301Y0130367D01*
X0027301Y0131565D02*
X0031281Y0131565D01*
X0031583Y0133963D02*
X0027301Y0133963D01*
X0027301Y0135161D02*
X0030385Y0135161D01*
X0029477Y0136360D02*
X0027301Y0136360D01*
X0027301Y0137558D02*
X0029477Y0137558D01*
X0029477Y0138757D02*
X0027301Y0138757D01*
X0027301Y0139955D02*
X0029477Y0139955D01*
X0027301Y0132764D02*
X0042196Y0132764D01*
X0046358Y0132764D02*
X0056236Y0132764D01*
X0055740Y0131565D02*
X0047557Y0131565D01*
X0048755Y0130367D02*
X0055713Y0130367D01*
X0055848Y0129168D02*
X0049077Y0129168D01*
X0041171Y0124374D02*
X0037100Y0124374D01*
X0038299Y0125573D02*
X0039973Y0125573D01*
X0039477Y0126771D02*
X0038877Y0126771D01*
X0034677Y0126771D02*
X0033877Y0126771D01*
X0033877Y0125573D02*
X0034677Y0125573D01*
X0034677Y0124374D02*
X0033877Y0124374D01*
X0030256Y0125573D02*
X0027301Y0125573D01*
X0027301Y0126771D02*
X0029677Y0126771D01*
X0033877Y0129168D02*
X0034677Y0129168D01*
X0034677Y0130367D02*
X0033877Y0130367D01*
X0033877Y0131565D02*
X0034677Y0131565D01*
X0037145Y0121977D02*
X0041410Y0121977D01*
X0040211Y0120779D02*
X0038343Y0120779D01*
X0039077Y0119580D02*
X0039477Y0119580D01*
X0039477Y0118382D02*
X0039077Y0118382D01*
X0039077Y0117183D02*
X0039477Y0117183D01*
X0039561Y0115985D02*
X0038994Y0115985D01*
X0039077Y0109992D02*
X0039707Y0109992D01*
X0039677Y0108794D02*
X0039077Y0108794D01*
X0039077Y0107595D02*
X0039677Y0107595D01*
X0039677Y0106397D02*
X0039077Y0106397D01*
X0038207Y0105198D02*
X0040630Y0105198D01*
X0041829Y0104000D02*
X0037008Y0104000D01*
X0036265Y0102857D02*
X0032289Y0102857D01*
X0029477Y0100045D01*
X0029477Y0096068D01*
X0032289Y0093257D01*
X0036265Y0093257D01*
X0039077Y0096068D01*
X0039077Y0100045D01*
X0036265Y0102857D01*
X0036321Y0102801D02*
X0042233Y0102801D01*
X0042289Y0102857D02*
X0039477Y0100045D01*
X0039477Y0096068D01*
X0042289Y0093257D01*
X0046265Y0093257D01*
X0049077Y0096068D01*
X0049077Y0100045D01*
X0046265Y0102857D01*
X0042289Y0102857D01*
X0041035Y0101603D02*
X0037519Y0101603D01*
X0038718Y0100404D02*
X0039836Y0100404D01*
X0039477Y0099206D02*
X0039077Y0099206D01*
X0039077Y0098007D02*
X0039477Y0098007D01*
X0039477Y0096809D02*
X0039077Y0096809D01*
X0038619Y0095610D02*
X0039935Y0095610D01*
X0041134Y0094412D02*
X0037420Y0094412D01*
X0036183Y0092657D02*
X0034677Y0092657D01*
X0034677Y0088457D01*
X0033877Y0088457D01*
X0033877Y0092657D01*
X0032372Y0092657D01*
X0029677Y0089962D01*
X0029677Y0088457D01*
X0033877Y0088457D01*
X0033877Y0087657D01*
X0029677Y0087657D01*
X0029677Y0086151D01*
X0032372Y0083457D01*
X0033877Y0083457D01*
X0033877Y0087657D01*
X0034677Y0087657D01*
X0034677Y0088457D01*
X0038877Y0088457D01*
X0038877Y0089962D01*
X0036183Y0092657D01*
X0036825Y0092015D02*
X0041447Y0092015D01*
X0040248Y0090816D02*
X0038023Y0090816D01*
X0038877Y0089618D02*
X0039477Y0089618D01*
X0039477Y0088419D02*
X0034677Y0088419D01*
X0034677Y0087657D02*
X0038877Y0087657D01*
X0038877Y0086151D01*
X0036183Y0083457D01*
X0034677Y0083457D01*
X0034677Y0087657D01*
X0034677Y0087221D02*
X0033877Y0087221D01*
X0033877Y0088419D02*
X0027301Y0088419D01*
X0027301Y0087221D02*
X0029677Y0087221D01*
X0029806Y0086022D02*
X0027301Y0086022D01*
X0027301Y0084824D02*
X0031005Y0084824D01*
X0032203Y0083625D02*
X0027301Y0083625D01*
X0027301Y0082427D02*
X0031859Y0082427D01*
X0032289Y0082857D02*
X0029477Y0080045D01*
X0029477Y0076068D01*
X0032289Y0073257D01*
X0036265Y0073257D01*
X0039077Y0076068D01*
X0039077Y0080045D01*
X0036265Y0082857D01*
X0032289Y0082857D01*
X0033877Y0083625D02*
X0034677Y0083625D01*
X0034677Y0084824D02*
X0033877Y0084824D01*
X0033877Y0086022D02*
X0034677Y0086022D01*
X0036351Y0083625D02*
X0041921Y0083625D01*
X0041859Y0082427D02*
X0036696Y0082427D01*
X0037894Y0081228D02*
X0040660Y0081228D01*
X0039477Y0080030D02*
X0039077Y0080030D01*
X0039077Y0078831D02*
X0039477Y0078831D01*
X0039477Y0077632D02*
X0039077Y0077632D01*
X0039077Y0076434D02*
X0039477Y0076434D01*
X0040310Y0075235D02*
X0038244Y0075235D01*
X0037046Y0074037D02*
X0041509Y0074037D01*
X0040513Y0072838D02*
X0036284Y0072838D01*
X0037482Y0071640D02*
X0039477Y0071640D01*
X0039477Y0070441D02*
X0038681Y0070441D01*
X0039077Y0069243D02*
X0039477Y0069243D01*
X0039477Y0068044D02*
X0039077Y0068044D01*
X0039077Y0066846D02*
X0039477Y0066846D01*
X0039477Y0065647D02*
X0038821Y0065647D01*
X0038470Y0062604D02*
X0035345Y0065729D01*
X0035345Y0066989D01*
X0034277Y0068057D01*
X0029477Y0068044D02*
X0027301Y0068044D01*
X0027301Y0066846D02*
X0029477Y0066846D01*
X0029898Y0065647D02*
X0027301Y0065647D01*
X0027301Y0064449D02*
X0031097Y0064449D01*
X0034430Y0063250D02*
X0027301Y0063250D01*
X0027301Y0062052D02*
X0034910Y0062052D01*
X0032177Y0060853D02*
X0027301Y0060853D01*
X0027301Y0059655D02*
X0030582Y0059655D01*
X0029280Y0058456D02*
X0027301Y0058456D01*
X0027301Y0057258D02*
X0028102Y0057258D01*
X0027454Y0056059D02*
X0027301Y0056059D01*
X0038470Y0062604D02*
X0053470Y0062604D01*
X0053470Y0039604D01*
X0059720Y0040104D02*
X0097220Y0040104D01*
X0097220Y0057604D01*
X0095155Y0059781D02*
X0094677Y0059303D01*
X0094220Y0058201D01*
X0094220Y0057007D01*
X0094677Y0055905D01*
X0094820Y0055761D01*
X0094820Y0048502D01*
X0094776Y0048563D01*
X0094236Y0049103D01*
X0093618Y0049551D01*
X0092938Y0049898D01*
X0092212Y0050134D01*
X0091458Y0050253D01*
X0091351Y0050253D01*
X0091351Y0045678D01*
X0090801Y0045678D01*
X0090801Y0045128D01*
X0086226Y0045128D01*
X0086226Y0045021D01*
X0086346Y0044267D01*
X0086582Y0043541D01*
X0086928Y0042861D01*
X0087188Y0042504D01*
X0085319Y0042504D01*
X0085358Y0042543D01*
X0086126Y0044399D01*
X0086126Y0046408D01*
X0085358Y0048264D01*
X0083937Y0049684D01*
X0082081Y0050453D01*
X0080072Y0050453D01*
X0078216Y0049684D01*
X0076795Y0048264D01*
X0076076Y0046528D01*
X0075358Y0048264D01*
X0074254Y0049367D01*
X0075377Y0049367D01*
X0076431Y0050421D01*
X0076431Y0059787D01*
X0075377Y0060841D01*
X0073370Y0060841D01*
X0073370Y0068081D01*
X0073005Y0068963D01*
X0072330Y0069639D01*
X0071447Y0070004D01*
X0058370Y0070004D01*
X0058370Y0070204D01*
X0084976Y0070204D01*
X0094179Y0061001D01*
X0095155Y0059781D01*
X0095028Y0059655D02*
X0076431Y0059655D01*
X0076431Y0058456D02*
X0094326Y0058456D01*
X0094220Y0057258D02*
X0076431Y0057258D01*
X0076431Y0056059D02*
X0094613Y0056059D01*
X0094820Y0054861D02*
X0076431Y0054861D01*
X0076431Y0053662D02*
X0094820Y0053662D01*
X0094820Y0052464D02*
X0076431Y0052464D01*
X0076431Y0051265D02*
X0094820Y0051265D01*
X0094820Y0050067D02*
X0092418Y0050067D01*
X0091351Y0050067D02*
X0090801Y0050067D01*
X0090801Y0050253D02*
X0090695Y0050253D01*
X0089941Y0050134D01*
X0089215Y0049898D01*
X0088534Y0049551D01*
X0087917Y0049103D01*
X0087377Y0048563D01*
X0086928Y0047945D01*
X0086582Y0047265D01*
X0086346Y0046539D01*
X0086226Y0045785D01*
X0086226Y0045678D01*
X0090801Y0045678D01*
X0090801Y0050253D01*
X0089734Y0050067D02*
X0083014Y0050067D01*
X0084753Y0048868D02*
X0087683Y0048868D01*
X0086788Y0047670D02*
X0085604Y0047670D01*
X0086100Y0046471D02*
X0086335Y0046471D01*
X0086126Y0045273D02*
X0090801Y0045273D01*
X0090801Y0046471D02*
X0091351Y0046471D01*
X0091351Y0047670D02*
X0090801Y0047670D01*
X0090801Y0048868D02*
X0091351Y0048868D01*
X0094470Y0048868D02*
X0094820Y0048868D01*
X0086409Y0044074D02*
X0085992Y0044074D01*
X0085496Y0042876D02*
X0086921Y0042876D01*
X0077400Y0048868D02*
X0074753Y0048868D01*
X0075604Y0047670D02*
X0076549Y0047670D01*
X0076077Y0050067D02*
X0079139Y0050067D01*
X0071482Y0055104D02*
X0071482Y0043309D01*
X0071076Y0045403D01*
X0070970Y0042903D01*
X0070970Y0067604D01*
X0055970Y0067604D01*
X0055970Y0095104D01*
X0053470Y0095104D01*
X0053470Y0107604D01*
X0049889Y0107595D02*
X0048877Y0107595D01*
X0048877Y0107657D02*
X0044677Y0107657D01*
X0044677Y0103457D01*
X0046183Y0103457D01*
X0048877Y0106151D01*
X0048877Y0107657D01*
X0048877Y0108794D02*
X0049889Y0108794D01*
X0049889Y0109992D02*
X0048847Y0109992D01*
X0048877Y0106397D02*
X0049889Y0106397D01*
X0049889Y0105198D02*
X0047924Y0105198D01*
X0046726Y0104000D02*
X0051070Y0104000D01*
X0051070Y0102801D02*
X0046321Y0102801D01*
X0047519Y0101603D02*
X0051070Y0101603D01*
X0051070Y0100404D02*
X0048718Y0100404D01*
X0049077Y0099206D02*
X0051070Y0099206D01*
X0051070Y0098007D02*
X0049077Y0098007D01*
X0049077Y0096809D02*
X0051070Y0096809D01*
X0051070Y0095610D02*
X0048619Y0095610D01*
X0047420Y0094412D02*
X0051159Y0094412D01*
X0051967Y0093213D02*
X0027301Y0093213D01*
X0027301Y0092015D02*
X0031730Y0092015D01*
X0030531Y0090816D02*
X0027301Y0090816D01*
X0027301Y0089618D02*
X0029677Y0089618D01*
X0033877Y0089618D02*
X0034677Y0089618D01*
X0034677Y0090816D02*
X0033877Y0090816D01*
X0033877Y0092015D02*
X0034677Y0092015D01*
X0031134Y0094412D02*
X0027301Y0094412D01*
X0027301Y0095610D02*
X0029935Y0095610D01*
X0029477Y0096809D02*
X0027301Y0096809D01*
X0027301Y0098007D02*
X0029477Y0098007D01*
X0029477Y0099206D02*
X0027301Y0099206D01*
X0027301Y0100404D02*
X0029836Y0100404D01*
X0031035Y0101603D02*
X0027301Y0101603D01*
X0027301Y0102801D02*
X0032233Y0102801D01*
X0031546Y0104000D02*
X0027301Y0104000D01*
X0027301Y0105198D02*
X0030347Y0105198D01*
X0029477Y0106397D02*
X0027301Y0106397D01*
X0027301Y0107595D02*
X0029477Y0107595D01*
X0029477Y0108794D02*
X0027301Y0108794D01*
X0027301Y0109992D02*
X0029477Y0109992D01*
X0043877Y0107595D02*
X0044677Y0107595D01*
X0044677Y0106397D02*
X0043877Y0106397D01*
X0043877Y0105198D02*
X0044677Y0105198D01*
X0044677Y0104000D02*
X0043877Y0104000D01*
X0047107Y0092015D02*
X0053570Y0092015D01*
X0053570Y0090816D02*
X0048306Y0090816D01*
X0050970Y0087604D02*
X0044730Y0087604D01*
X0044277Y0088057D01*
X0040722Y0084824D02*
X0037549Y0084824D01*
X0038748Y0086022D02*
X0039524Y0086022D01*
X0039477Y0087221D02*
X0038877Y0087221D01*
X0046634Y0083625D02*
X0048570Y0083625D01*
X0048570Y0082427D02*
X0046696Y0082427D01*
X0047894Y0081228D02*
X0048570Y0081228D01*
X0048570Y0084824D02*
X0047832Y0084824D01*
X0050970Y0087604D02*
X0050970Y0072604D01*
X0047389Y0074037D02*
X0047046Y0074037D01*
X0053370Y0076434D02*
X0053570Y0076434D01*
X0053570Y0077632D02*
X0053370Y0077632D01*
X0053370Y0078831D02*
X0053570Y0078831D01*
X0053570Y0080030D02*
X0053370Y0080030D01*
X0053370Y0081228D02*
X0053570Y0081228D01*
X0053570Y0082427D02*
X0053370Y0082427D01*
X0053370Y0083625D02*
X0053570Y0083625D01*
X0053570Y0084824D02*
X0053370Y0084824D01*
X0053370Y0086022D02*
X0053570Y0086022D01*
X0053570Y0087221D02*
X0053370Y0087221D01*
X0053230Y0088419D02*
X0053570Y0088419D01*
X0053570Y0089618D02*
X0052351Y0089618D01*
X0058470Y0102604D02*
X0058470Y0072604D01*
X0085970Y0072604D01*
X0095970Y0062604D01*
X0094297Y0060853D02*
X0073370Y0060853D01*
X0073370Y0062052D02*
X0093128Y0062052D01*
X0091930Y0063250D02*
X0073370Y0063250D01*
X0073370Y0064449D02*
X0090731Y0064449D01*
X0089533Y0065647D02*
X0073370Y0065647D01*
X0073370Y0066846D02*
X0088334Y0066846D01*
X0087136Y0068044D02*
X0073370Y0068044D01*
X0072725Y0069243D02*
X0085937Y0069243D01*
X0094503Y0080030D02*
X0099856Y0080030D01*
X0098658Y0081228D02*
X0094551Y0081228D01*
X0060458Y0055104D02*
X0059720Y0055104D01*
X0059720Y0040104D01*
X0060458Y0043521D02*
X0061076Y0045403D01*
X0060458Y0043521D02*
X0060458Y0055104D01*
X0032271Y0072838D02*
X0027301Y0072838D01*
X0027301Y0071640D02*
X0031072Y0071640D01*
X0029874Y0070441D02*
X0027301Y0070441D01*
X0027301Y0069243D02*
X0029477Y0069243D01*
X0031509Y0074037D02*
X0027301Y0074037D01*
X0027301Y0075235D02*
X0030310Y0075235D01*
X0029477Y0076434D02*
X0027301Y0076434D01*
X0027301Y0077632D02*
X0029477Y0077632D01*
X0029477Y0078831D02*
X0027301Y0078831D01*
X0027301Y0080030D02*
X0029477Y0080030D01*
X0030660Y0081228D02*
X0027301Y0081228D01*
X0057451Y0110498D02*
X0055345Y0112604D01*
X0057451Y0110498D02*
X0060763Y0110498D01*
X0030293Y0155536D02*
X0027301Y0155536D01*
X0027301Y0156734D02*
X0029677Y0156734D01*
X0030422Y0165124D02*
X0027301Y0165124D01*
X0027301Y0166322D02*
X0029477Y0166322D01*
X0029477Y0167521D02*
X0027301Y0167521D01*
X0027301Y0168719D02*
X0029477Y0168719D01*
X0029477Y0169918D02*
X0027301Y0169918D01*
X0027301Y0171116D02*
X0030549Y0171116D01*
X0031747Y0172315D02*
X0027301Y0172315D01*
X0027301Y0173513D02*
X0032032Y0173513D01*
X0164986Y0107595D02*
X0196942Y0107595D01*
X0196149Y0106397D02*
X0166293Y0106397D01*
X0167601Y0105198D02*
X0185401Y0105198D01*
X0186670Y0105198D02*
X0187470Y0105198D01*
X0187470Y0104000D02*
X0186670Y0104000D01*
X0186670Y0102801D02*
X0187470Y0102801D01*
X0187470Y0101603D02*
X0186670Y0101603D01*
X0186670Y0100404D02*
X0187470Y0100404D01*
X0187470Y0099206D02*
X0186670Y0099206D01*
X0182470Y0096809D02*
X0180159Y0096809D01*
X0181358Y0095610D02*
X0182470Y0095610D01*
X0183470Y0090104D02*
X0175970Y0097604D01*
X0170970Y0098854D01*
X0168908Y0104000D02*
X0183660Y0104000D01*
X0188739Y0105198D02*
X0196070Y0105198D01*
X0196070Y0104000D02*
X0190480Y0104000D01*
X0191266Y0102801D02*
X0196070Y0102801D01*
X0196070Y0101603D02*
X0191617Y0101603D01*
X0191670Y0100404D02*
X0196070Y0100404D01*
X0196070Y0099206D02*
X0191670Y0099206D01*
X0191670Y0096809D02*
X0196070Y0096809D01*
X0196070Y0095610D02*
X0191670Y0095610D01*
X0191649Y0094412D02*
X0196070Y0094412D01*
X0196070Y0093213D02*
X0191357Y0093213D01*
X0198470Y0090104D02*
X0198470Y0105729D01*
X0210970Y0105729D01*
X0228970Y0112389D02*
X0233531Y0112389D01*
X0198470Y0090104D02*
X0183470Y0090104D01*
X0168438Y0080030D02*
X0153984Y0080030D01*
X0155182Y0081228D02*
X0167101Y0081228D01*
X0166446Y0082427D02*
X0155712Y0082427D01*
X0222831Y0078831D02*
X0222970Y0078831D01*
D27*
X0202220Y0113854D03*
X0163470Y0181354D03*
X0082220Y0132604D03*
X0077220Y0267604D03*
D28*
X0048470Y0103854D03*
M02*
